<?xml version="1.0" encoding="utf-8"?>
<!-- Generator: Adobe Illustrator 27.5.0, SVG Export Plug-In . SVG Version: 6.00 Build 0)  -->
<svg version="1.1" id="Layer_1" xmlns="http://www.w3.org/2000/svg" xmlns:xlink="http://www.w3.org/1999/xlink" x="0px" y="0px"
	 viewBox="0 0 2010 2010" style="enable-background:new 0 0 2010 2010;" xml:space="preserve">
<rect style="fill:#58D6F4;" width="2010" height="2010"/>
<path style="fill:#1FB4CC;" d="M1756.318,776.99l-7.308-85.539c-0.639-7.464-3.542-14.18-8.017-19.516
	c-0.206-0.892-0.451-1.779-0.733-2.655c-3.805-11.856-13.578-20.285-26.141-22.547c-192.774-34.687-389.426-61.626-584.493-80.067
	c-1.166-0.112-2.298-0.162-3.396-0.162c-4.355,0-8.494,0.803-12.279,2.274c-3.536-1.239-7.321-1.909-11.238-1.909
	c-2.712,0-5.451,0.318-8.129,0.947C853.458,624.338,604.121,682.784,353.97,744.313c-12.923,3.177-22.278,12.973-25.131,25.129
	c-9.23,5.756-15.335,15.57-16.17,27.051c-0.545,7.514-1.184,15.017-1.893,22.51c-4.014,16.592-7.269,32.929-9.678,48.585
	c-0.962,6.252-2.848,18.517,1.103,31.051c1.948,11.209,9.347,20.891,19.691,25.862c0.016,0.016,0.034,0.029,0.052,0.042
	c0.746,0.892,1.536,1.745,2.371,2.556c0.584,2.535,0.884,7.222,1.009,9.183c1.121,17.706,2.173,36.505,3.401,60.88l0.751,158.178
	c-0.089,0.595-0.159,1.195-0.206,1.8c-0.412,5.052-0.318,10.231,0.295,16.193l0.326,68.753c0.07,14.555,8.826,26.725,21.477,31.782
	c4.298,7.652,11.504,13.476,20.512,16.086c154.762,44.861,312.846,89.85,469.887,133.72l68.962,21.999
	c19.798,6.314,44.272,14.123,69.612,16.499l9.141,2.543c3.093,0.853,6.257,1.286,9.397,1.286c5.19,0,10.213-1.189,14.749-3.391
	c2.444,0.542,4.95,0.822,7.475,0.822c0.003,0,0.003,0,0.003,0c5.054,0,9.989-1.085,14.678-3.229l18.246-8.406
	c14.112-5.083,27.33-11.181,41.862-18.03l128.277-60.455c109.048-50.612,218.106-101.826,324.173-152.234l1.241-0.498
	c15.998-6.398,31.993-12.795,48.035-19.073c25.705-10.062,54.91-22.325,78.341-41.1c3.372-1.596,7.595-3.646,11.833-5.957
	l18.481-8.833c8.993-4.322,15.385-11.825,17.998-21.13c0.855-3.044,1.262-6.179,1.231-9.311c0.986-3.174,1.523-6.526,1.575-9.984
	l0.005-0.357c2.008-10.205,1.925-20.197,1.648-29.607l-0.811-27.747l3.075-210.631c11.7-5.68,19.274-17.312,19.607-30.574
	c0.055-2.206-0.094-4.387-0.43-6.515C1754.86,793.29,1757.033,785.338,1756.318,776.99z"/>
<path style="fill:#FFFFFF;" d="M1740.072,757.485l-7.308-85.539c-0.639-7.464-3.542-14.18-8.017-19.516
	c-0.206-0.892-0.451-1.779-0.733-2.655c-3.805-11.856-13.578-20.285-26.14-22.547c-192.774-34.687-389.426-61.626-584.493-80.067
	c-1.166-0.112-2.298-0.162-3.396-0.162c-4.355,0-8.494,0.803-12.279,2.274c-3.536-1.239-7.321-1.909-11.238-1.909
	c-2.712,0-5.451,0.318-8.129,0.947C837.212,604.833,587.875,663.28,337.724,724.809c-12.923,3.177-22.278,12.972-25.131,25.129
	c-9.23,5.756-15.335,15.57-16.17,27.051c-0.545,7.514-1.184,15.017-1.894,22.51c-4.014,16.592-7.269,32.929-9.678,48.585
	c-0.962,6.252-2.848,18.517,1.103,31.051c1.948,11.209,9.347,20.891,19.691,25.862c0.016,0.016,0.034,0.029,0.052,0.042
	c0.746,0.892,1.536,1.745,2.371,2.556c0.584,2.535,0.884,7.222,1.009,9.183c1.122,17.706,2.173,36.505,3.401,60.88l0.751,158.178
	c-0.089,0.595-0.159,1.195-0.206,1.8c-0.412,5.052-0.318,10.231,0.295,16.193l0.326,68.753c0.07,14.555,8.826,26.725,21.477,31.782
	c4.298,7.652,11.504,13.476,20.512,16.086c154.762,44.861,312.846,89.85,469.887,133.72l68.962,21.999
	c19.798,6.314,44.272,14.122,69.611,16.498l9.141,2.543c3.093,0.853,6.257,1.286,9.397,1.286c5.19,0,10.213-1.189,14.748-3.391
	c2.444,0.542,4.95,0.822,7.475,0.822c0.003,0,0.003,0,0.003,0c5.054,0,9.989-1.085,14.678-3.229l18.246-8.406
	c14.112-5.083,27.33-11.181,41.862-18.03l128.277-60.455c109.048-50.612,218.106-101.826,324.173-152.234l1.241-0.498
	c15.998-6.398,31.993-12.795,48.035-19.073c25.705-10.062,54.91-22.325,78.341-41.1c3.372-1.596,7.595-3.646,11.833-5.957
	l18.481-8.833c8.993-4.322,15.385-11.825,17.998-21.13c0.855-3.044,1.262-6.178,1.231-9.311c0.986-3.174,1.523-6.525,1.575-9.984
	l0.005-0.357c2.008-10.205,1.925-20.197,1.648-29.607l-0.811-27.747l3.075-210.631c11.7-5.68,19.273-17.312,19.607-30.574
	c0.055-2.207-0.094-4.387-0.43-6.515C1738.614,773.786,1740.787,765.834,1740.072,757.485z"/>
<path style="fill:#E7B17F;" d="M348.7,768.213c206.861-53.602,413.722-107.203,620.583-160.805
	c39.2-10.157,78.569-20.346,118.828-24.697c60.122-6.498,120.827,0.159,180.807,7.856c136.459,17.51,272.225,40.427,406.87,68.681
	c7.029,1.475,14.554,3.243,19.337,8.602c4.548,5.095,5.607,12.32,6.469,19.095c2.992,23.515,5.984,47.03,8.976,70.545
	c0.88,6.916,1.65,14.416-1.874,20.432c-3.543,6.049-10.559,9.081-15.408,14.144c-9.022,9.421-9.192,23.977-8.811,37.016
	c2.216,75.805,4.433,151.611,6.649,227.416c0.36,12.331,0.553,25.375-5.551,36.095c-6.84,12.012-20.109,18.592-32.613,24.484
	c-193.122,91.009-386.243,182.019-579.365,273.028c-25.627,12.077-51.998,24.355-80.257,26.366
	c-29.059,2.068-57.645-6.892-85.4-15.745c-180.006-57.416-360.012-114.832-540.018-172.248c-4.256-1.357-8.685-2.818-11.845-5.975
	c-5.211-5.208-5.54-13.407-5.558-20.774c-0.243-95.613-3.396-191.218-9.453-286.639c-0.555-8.74-1.364-18.093-6.873-24.9
	c-4.51-5.573-11.675-8.725-15.485-14.798c-4.228-6.741-3.333-15.38-2.123-23.245c4.241-27.56,10.542-54.802,18.833-81.425"/>
<path style="fill:#F4D9C3;" d="M476.17,790.599c-7.437,1.739-12.351-9.357-8.434-15.913c3.917-6.556,12.054-8.998,19.449-10.906
	c157.784-40.711,315.568-81.423,473.352-122.134c37.242-9.609,74.728-19.26,113.087-22.061c48.68-3.555,97.41,4.006,145.634,11.543
	c106.662,16.671,213.325,33.342,319.987,50.014c9.354,1.462,19.069,3.064,26.84,8.472c7.771,5.408,12.933,15.824,9.281,24.559
	c45.301-6.991,89.39-21.766,129.755-43.486c-34.013-8.888-68.874-14.034-103.654-19.163
	c-136.494-20.13-272.989-40.26-409.483-60.389c-32.583-4.805-65.4-9.624-98.306-8.245c-30.231,1.266-59.975,7.741-89.508,14.322
	c-218.399,48.665-435.212,104.445-649.979,167.223c40.923,9.811,81.847,19.622,122.77,29.433"/>
<path style="fill:#F4D9C3;" d="M996.177,1004.429c-3.478-33.461,18.189-65.475,46.12-84.225
	c27.931-18.75,61.417-26.908,94.023-35.191c117.326-29.807,233.204-65.541,346.235-108.875
	c49.012-18.791,97.525-39.021,147.506-55.057c18.958-6.082,43.007-10.256,55.973,4.853c10.332,12.038,9.15,32.415,22.37,41.185
	c-1.94-26.462-6.329-52.743-13.093-78.399c-1.295-4.91-3.308-10.496-8.121-12.113c-3.263-1.096-6.809,0.039-10.061,1.168
	c-114.635,39.805-229.269,79.61-343.904,119.414c-59.644,20.71-119.336,41.436-180.169,58.338
	c-47.633,13.234-96.6,24.378-139.681,48.629c-6.465,3.639-12.994,7.776-16.959,14.046c-4.169,6.592-4.981,14.69-5.685,22.457
	c-2.011,22.184-3.92,45.216,3.689,66.151"/>
<path style="fill:#F4D9C3;" d="M335.989,870.785c5.748-19.856,12.604-40.674,28.236-54.2c25.25-21.85,63.261-17.059,95.934-10.171
	c156.277,32.948,309.021,85.032,467.891,101.412c18.322,1.889,39.056,4.575,49.836,19.51c6.429,8.907,7.803,20.379,8.975,31.301
	c1.619,15.093,3.238,30.185,4.857,45.278c2.497-24.104,4.993-48.208,7.49-72.311c0.752-7.257,1.379-15.109-2.412-21.343
	c-2.731-4.492-7.369-7.437-11.95-10.017c-37.826-21.298-81.78-28.249-124.608-35.336c-155.206-25.686-309.345-57.821-461.885-96.295
	c-16.682-4.208-36.562-7.766-49.257,3.846c-5.158,4.718-8.203,11.31-10.366,17.958c-8.091,24.862-5.449,51.775-2.72,77.777"/>
<path style="fill:#DD863E;" d="M352.111,1144.875c-8.884,15.246-2.029,35.747,10.906,47.749
	c12.935,12.002,30.436,17.511,47.331,22.603c167.078,50.364,336.06,94.409,506.464,132.01c16.117,3.556,33.913,6.842,48.367-1.124
	c20.079-11.065,24.067-38.179,22.156-61.025c-1.911-22.846-7.105-47.129,2.872-67.77c0.309,30.612,0.619,61.224,0.928,91.836
	c0.124,12.229,1.684,26.905,12.604,32.41c6.401,3.227,14.046,2.06,21.083,0.697c100.2-19.412,193.845-62.977,286.324-106.155
	c93.725-43.76,187.45-87.52,281.175-131.28c20.432-9.539,41.831-19.876,54.651-38.427c22.96-33.226,10.828-80.992,31.097-115.925
	c-4.333,43.741,16.083,89.778,0.109,130.727c-15.802,40.507-60.711,60.083-101.2,75.931
	c-181.346,70.98-359.838,149.249-534.902,234.555c-17.249,8.405-35.021,17.033-54.165,18.338
	c-15.752,1.073-31.363-2.901-46.651-6.843c-196.356-50.627-393.346-101.459-581.615-176.781c-6.615-2.646-8.369-5.743-11.84-11.965
	c-3.028-5.428,2.735-12.044,3.242-18.239c1.539-18.801-7.604-37.601-6.065-56.401"/>
<path style="fill:#DD863E;" d="M357.138,1023.909c-1.109-30.434,25.26-56.397,54.457-65.058c29.196-8.661,60.495-4.001,90.513,1.133
	c129.589,22.165,257.74,51.928,385.802,81.673c17.368,4.034,35.175,8.255,49.942,18.247c37.492,25.366,43.136,77.362,45.182,122.584
	c15.695-36.919-8.225-86.867,19.203-116.143c10.486-11.193,25.992-15.858,40.721-20.135
	c171.198-49.714,339.931-107.915,505.371-174.319c26.145-10.494,53.863-21.404,81.68-16.947
	c27.817,4.456,54.141,30.955,47.417,58.313c4.112-39.689,2.469-79.97-4.862-119.192c-96.048,34.103-192.096,68.205-288.144,102.308
	c-70.8,25.138-141.608,50.279-213.031,73.588c-68.134,22.235-138.216,43.005-209.873,41.622
	c-41.483-0.8-82.422-9.027-123.095-17.224c-163.426-32.935-326.852-65.871-490.277-98.806c-4.386,44.105,3.477,88.366,2.229,132.671
	"/>
<g>
	<path d="M353.704,766.192c246.349-60.593,493.338-118.529,740.331-176.427c10.036-2.353,5.787-17.807-4.26-15.452
		C842.782,632.211,595.793,690.148,349.444,750.74C339.436,753.202,343.675,768.659,353.704,766.192L353.704,766.192z"/>
</g>
<g>
	<path d="M1116.206,589.771c193.709,18.317,386.525,44.738,578.023,79.194c10.083,1.814,14.409-13.625,4.26-15.452
		c-192.901-34.709-387.154-61.316-582.282-79.766C1105.945,572.777,1106.011,588.807,1116.206,589.771L1116.206,589.771z"/>
</g>
<g>
	<path d="M328.4,778.916c-2.26,31.131-5.841,62.066-10.827,92.882c-1.632,10.088,13.806,14.429,15.451,4.26
		c5.214-32.224,9.035-64.581,11.399-97.141C345.171,768.628,329.144,768.675,328.4,778.916L328.4,778.916z"/>
</g>
<g>
	<path d="M335.349,890.332c211.987,62.834,430.148,99.705,647.889,136.076c10.087,1.685,14.424-13.754,4.26-15.451
		c-217.741-36.37-435.902-73.242-647.889-136.076C329.702,871.944,325.469,887.404,335.349,890.332L335.349,890.332z"/>
</g>
<g>
	<path d="M1015.274,1022c56.948-6.312,111.196-27.774,165.266-45.712c59.37-19.696,118.653-39.656,177.846-59.879
		c116.742-39.885,233.123-80.821,349.158-122.718c9.626-3.476,5.473-18.966-4.26-15.452
		c-112.767,40.717-225.859,80.528-339.293,119.345c-55.895,19.127-111.87,38.02-167.924,56.677
		c-58.732,19.549-118.915,44.856-180.793,51.715C1005.137,1007.099,1005.023,1023.136,1015.274,1022L1015.274,1022z"/>
</g>
<g>
	<path d="M1695.472,674.224c2.436,28.512,4.872,57.024,7.308,85.536c0.871,10.198,16.903,10.291,16.024,0
		c-2.436-28.512-4.872-57.024-7.308-85.536C1710.625,664.026,1694.593,663.933,1695.472,674.224L1695.472,674.224z"/>
</g>
<g>
	<path d="M344.158,900.703c0.511,107.249,1.021,214.499,1.532,321.748c0.049,10.308,16.073,10.33,16.024,0
		c-0.511-107.249-1.022-214.499-1.532-321.748C360.133,890.395,344.109,890.374,344.158,900.703L344.158,900.703z"/>
</g>
<g>
	<path d="M368.41,1244.8c205.382,59.532,411.142,117.754,617.267,174.663c9.955,2.748,14.203-12.706,4.26-15.452
		c-206.125-56.909-411.884-115.131-617.267-174.663C362.746,1226.472,358.509,1241.93,368.41,1244.8L368.41,1244.8z"/>
</g>
<g>
	<path d="M1013.758,1416.415c224.328-102.688,447.684-207.483,670.04-314.374c9.291-4.466,1.173-18.288-8.088-13.836
		c-222.356,106.891-445.712,211.687-670.04,314.374C996.306,1406.866,1004.44,1420.681,1013.758,1416.415L1013.758,1416.415z"/>
</g>
<g>
	<path d="M1677.556,803.637c-1.371,93.902-2.743,187.804-4.115,281.706c-0.151,10.315,15.873,10.319,16.024,0
		c1.372-93.902,2.743-187.804,4.115-281.706C1693.73,793.322,1677.707,793.318,1677.556,803.637L1677.556,803.637z"/>
</g>
<g>
	<path d="M367.4,776.314c205.428,44.016,410.856,88.033,616.284,132.049c5.028,1.077,7.177-6.644,2.13-7.726
		c-205.428-44.016-410.856-88.033-616.285-132.049C364.502,767.511,362.353,775.233,367.4,776.314L367.4,776.314z"/>
</g>
<g>
	<path d="M1019.93,898.34c220.558-65.305,439.7-135.284,657.286-209.893c4.849-1.663,2.766-9.404-2.13-7.726
		C1457.5,755.33,1238.358,825.309,1017.8,890.614C1012.867,892.074,1014.967,899.809,1019.93,898.34L1019.93,898.34z"/>
</g>
<g>
	<path d="M995.062,917.922c-2.439,27.876-4.879,55.752-7.318,83.628c-0.449,5.135,7.565,5.105,8.012,0
		c2.439-27.876,4.879-55.752,7.318-83.628C1003.523,912.787,995.508,912.817,995.062,917.922L995.062,917.922z"/>
</g>
<g>
	<path d="M986.969,1047.29c1.154,106.615,2.309,213.231,3.463,319.846c0.056,5.152,8.068,5.166,8.012,0
		c-1.154-106.615-2.309-213.231-3.463-319.846C994.925,1042.138,986.913,1042.124,986.969,1047.29L986.969,1047.29z"/>
</g>
<g>
	<path d="M459.041,757.76c51.489-15.938,103.685-28.833,156.673-38.703c5.062-0.943,2.918-8.666-2.13-7.726
		c-52.987,9.871-105.184,22.765-156.673,38.703C452.001,751.555,454.096,759.291,459.041,757.76L459.041,757.76z"/>
</g>
<g>
	<path d="M628.877,714.322c3.157-0.706,6.314-1.413,9.471-2.119c5.03-1.125,2.901-8.851-2.13-7.726
		c-3.157,0.706-6.314,1.413-9.471,2.119C621.717,707.721,623.846,715.447,628.877,714.322L628.877,714.322z"/>
</g>
<g>
	<path d="M655.404,707.104c66.987-15.393,133.973-30.786,200.96-46.18c5.023-1.154,2.897-8.881-2.13-7.726
		c-66.987,15.393-133.973,30.786-200.96,46.18C648.251,700.533,650.377,708.259,655.404,707.104L655.404,707.104z"/>
</g>
<g>
	<path d="M874.393,655.931c5.75-1.431,11.5-2.862,17.251-4.293c5.001-1.244,2.882-8.973-2.13-7.726
		c-5.75,1.431-11.5,2.862-17.251,4.293C867.262,649.449,869.381,657.178,874.393,655.931L874.393,655.931z"/>
</g>
<g>
	<path d="M903.12,649.74c5.495-2.302,11.137-4.042,16.974-5.235c5.048-1.032,2.912-8.756-2.13-7.726
		c-5.837,1.193-11.479,2.932-16.974,5.235C896.305,643.977,898.362,651.733,903.12,649.74L903.12,649.74z"/>
</g>
<g>
	<path d="M938.16,640.691c48.663-14.036,97.879-25.306,147.8-33.845c5.072-0.868,2.921-8.59-2.13-7.726
		c-49.921,8.539-99.138,19.81-147.8,33.845C931.086,634.391,933.189,642.125,938.16,640.691L938.16,640.691z"/>
</g>
<g>
	<path d="M416.581,771.329c6.035-2.204,12.07-4.409,18.104-6.614c4.804-1.755,2.729-9.501-2.13-7.726
		c-6.035,2.204-12.07,4.409-18.104,6.614C409.647,765.358,411.722,773.104,416.581,771.329L416.581,771.329z"/>
</g>
<g>
	<path d="M350.582,783.484c-1.771,13.027-3.543,26.055-5.314,39.082c-0.686,5.042,7.033,7.224,7.726,2.13
		c1.772-13.027,3.543-26.055,5.314-39.082C358.993,780.572,351.275,778.391,350.582,783.484L350.582,783.484z"/>
</g>
<g>
	<path d="M344.084,835.862c-1.039,6.803-2.629,13.451-4.782,19.988c-1.616,4.909,6.118,7.013,7.726,2.13
		c2.152-6.537,3.742-13.185,4.781-19.988C352.58,832.948,344.861,830.774,344.084,835.862L344.084,835.862z"/>
</g>
<g>
	<path d="M366.107,915.926c1.055,53.305,2.11,106.61,3.165,159.915c0.102,5.149,8.114,5.166,8.012,0
		c-1.055-53.305-2.11-106.61-3.165-159.915C374.017,910.777,366.005,910.76,366.107,915.926L366.107,915.926z"/>
</g>
<g>
	<path d="M368.936,1106.4c1.714,8.468,3.04,16.981,3.941,25.575c0.532,5.076,8.55,5.131,8.012,0
		c-0.976-9.303-2.371-18.535-4.227-27.705C375.639,1099.221,367.915,1101.358,368.936,1106.4L368.936,1106.4z"/>
</g>
<g>
	<path d="M373.863,1149.184c1.307,19.649,2.614,39.298,3.921,58.948c0.34,5.118,8.355,5.156,8.012,0
		c-1.307-19.649-2.614-39.299-3.921-58.948C381.534,1144.066,373.52,1144.028,373.863,1149.184L373.863,1149.184z"/>
</g>
<g>
	<path d="M1124.752,604.777c45.665,3.458,90.937,9.52,135.902,18.198c5.038,0.972,7.195-6.748,2.13-7.726
		c-45.69-8.818-91.632-14.971-138.032-18.484C1119.609,596.375,1119.635,604.389,1124.752,604.777L1124.752,604.777z"/>
</g>
<g>
	<path d="M1277.941,623.861c6.69,0.87,13.32,2.093,19.9,3.578c5.021,1.134,7.165-6.589,2.13-7.726
		c-7.287-1.645-14.623-2.901-22.03-3.865C1272.843,615.186,1272.891,623.205,1277.941,623.861L1277.941,623.861z"/>
</g>
<g>
	<path d="M1310.195,628.492c5.28,1.802,10.717,2.791,16.286,3.09c5.152,0.277,5.137-7.736,0-8.012
		c-4.868-0.262-9.545-1.23-14.156-2.804C1307.434,619.097,1305.335,626.833,1310.195,628.492L1310.195,628.492z"/>
</g>
<g>
	<path d="M1346.2,634.468c56.297,7.612,112.545,15.565,168.745,23.859c5.044,0.744,7.22-6.974,2.13-7.726
		c-56.2-8.294-112.448-16.247-168.745-23.859C1343.288,626.061,1341.106,633.78,1346.2,634.468L1346.2,634.468z"/>
</g>
<g>
	<path d="M1544.359,663.73c2.216,0.346,4.433,0.693,6.65,1.039c2.152,0.337,4.285-0.55,4.928-2.798
		c0.543-1.898-0.663-4.594-2.798-4.928c-2.216-0.346-4.433-0.693-6.65-1.04c-2.152-0.336-4.285,0.55-4.928,2.798
		C1541.018,660.7,1542.224,663.396,1544.359,663.73L1544.359,663.73z"/>
</g>
<g>
	<path d="M1568.298,668.337c23.626,2.376,46.996,6.056,70.216,11.008c5.029,1.072,7.178-6.649,2.13-7.726
		c-23.92-5.101-48.013-8.847-72.346-11.294C1563.172,659.81,1563.208,667.825,1568.298,668.337L1568.298,668.337z"/>
</g>
<g>
	<path d="M1678.765,697.412c3.5,9.745,5.447,19.68,5.762,30.035c0.156,5.144,8.169,5.166,8.012,0
		c-0.336-11.05-2.308-21.755-6.048-32.165C1684.76,690.466,1677.016,692.543,1678.765,697.412L1678.765,697.412z"/>
</g>
<g>
	<path d="M1685.036,743.638c0.207,7.135,1.223,14.171,3.067,21.067c1.33,4.976,9.061,2.865,7.726-2.13
		c-1.665-6.229-2.593-12.491-2.781-18.937C1692.899,738.494,1684.886,738.472,1685.036,743.638L1685.036,743.638z"/>
</g>
<g>
	<path d="M1656.225,822.667c2.238,39.651,2.641,79.274,1.211,118.962c-0.186,5.157,7.826,5.149,8.012,0
		c1.43-39.688,1.027-79.312-1.211-118.962C1663.948,817.541,1655.934,817.507,1656.225,822.667L1656.225,822.667z"/>
</g>
<g>
	<path d="M1657.526,960.673c0.408,7.61,0.816,15.221,1.223,22.831c0.275,5.129,8.288,5.161,8.012,0
		c-0.408-7.61-0.816-15.221-1.223-22.831C1665.263,955.544,1657.25,955.512,1657.526,960.673L1657.526,960.673z"/>
</g>
<g>
	<path d="M1658.349,1006.378c1.756,19.959,2.429,39.923,2.02,59.955c-0.105,5.158,7.907,5.157,8.012,0
		c0.408-20.032-0.264-39.996-2.02-59.955C1665.912,1001.281,1657.896,1001.234,1658.349,1006.378L1658.349,1006.378z"/>
</g>
<g>
	<path d="M1040.771,993.279c56.411-18.626,113.022-36.619,169.836-53.979c4.917-1.502,2.82-9.238-2.13-7.726
		c-56.813,17.36-113.425,35.352-169.836,53.979C1033.767,987.163,1035.855,994.902,1040.771,993.279L1040.771,993.279z"/>
</g>
<g>
	<path d="M1226.633,933.068c6.036-1.559,12.072-3.118,18.108-4.678c4.988-1.289,2.874-9.018-2.13-7.726
		c-6.036,1.559-12.072,3.118-18.108,4.678C1219.514,926.631,1221.629,934.361,1226.633,933.068L1226.633,933.068z"/>
</g>
<g>
	<path d="M1267.604,922.734c7.312-2.175,14.623-4.351,21.935-6.526c4.93-1.467,2.831-9.202-2.13-7.726
		c-7.312,2.175-14.623,4.351-21.935,6.526C1260.543,916.475,1262.643,924.21,1267.604,922.734L1267.604,922.734z"/>
</g>
<g>
	<path d="M1309.418,909.211c61.714-24.171,124.248-45.997,187.599-65.477c4.914-1.511,2.818-9.247-2.13-7.726
		c-63.351,19.48-125.886,41.306-187.599,65.477C1302.541,903.344,1304.607,911.095,1309.418,909.211L1309.418,909.211z"/>
</g>
<g>
	<path d="M1516.007,838.82c4.761-1.583,9.522-3.165,14.283-4.748c4.869-1.619,2.782-9.359-2.13-7.726
		c-4.761,1.583-9.522,3.165-14.282,4.748C1509.008,832.713,1511.095,840.453,1516.007,838.82L1516.007,838.82z"/>
</g>
<g>
	<path d="M1549.365,827.57c1.9-0.341,3.799-0.681,5.699-1.021c5.067-0.908,2.92-8.631-2.13-7.726
		c-1.9,0.341-3.799,0.681-5.699,1.021C1542.168,820.752,1544.315,828.475,1549.365,827.57L1549.365,827.57z"/>
</g>
<g>
	<path d="M1594.01,812.039c25.07-9.828,50.141-19.655,75.211-29.483c4.747-1.861,2.681-9.611-2.13-7.726
		c-25.071,9.828-50.141,19.655-75.211,29.483C1587.134,806.174,1589.2,813.925,1594.01,812.039L1594.01,812.039z"/>
</g>
<g>
	<path d="M1032.546,1375.253c19.198-7.231,35.902-18.497,54.111-27.724c22.703-11.505,47.786-17.315,70.963-27.806
		c46.576-21.083,88.376-51.144,135.559-71.068c4.734-1.999,0.655-8.902-4.044-6.918c-44.359,18.73-83.877,46.36-127.177,67.144
		c-22.981,11.031-47.56,17.154-70.702,27.575c-20.879,9.402-39.298,22.958-60.84,31.072
		C1025.636,1369.328,1027.707,1377.075,1032.546,1375.253L1032.546,1375.253z"/>
</g>
<g>
	<path d="M1322.855,1239.354c5.959-2.994,11.919-5.987,17.879-8.981c4.608-2.315,0.556-9.229-4.044-6.918
		c-5.959,2.994-11.919,5.987-17.879,8.981C1314.203,1234.75,1318.255,1241.664,1322.855,1239.354L1322.855,1239.354z"/>
</g>
<g>
	<path d="M1369.499,1218.414c5.717-2.845,11.434-5.689,17.151-8.534c4.617-2.297,0.563-9.21-4.044-6.918
		c-5.717,2.845-11.434,5.689-17.151,8.534C1360.839,1213.793,1364.893,1220.706,1369.499,1218.414L1369.499,1218.414z"/>
</g>
<g>
	<path d="M1415.314,1195.848c47.384-21.669,94.487-43.925,141.315-66.771c4.633-2.26,0.576-9.172-4.044-6.918
		c-46.828,22.846-93.931,45.102-141.315,66.771C1406.587,1191.071,1410.654,1197.979,1415.314,1195.848L1415.314,1195.848z"/>
</g>
<g>
	<path d="M1582.555,1118.145c2.757-1.523,5.601-2.509,8.689-3.125c5.052-1.006,2.914-8.73-2.13-7.726
		c-3.736,0.744-7.27,2.091-10.603,3.932C1573.997,1113.721,1578.034,1120.643,1582.555,1118.145L1582.555,1118.145z"/>
</g>
<g>
	<path d="M1618.778,1104.325c7.003-2.8,14.006-5.601,21.009-8.401c4.729-1.891,2.665-9.643-2.13-7.726
		c-7.003,2.8-14.006,5.601-21.009,8.401C1611.919,1098.491,1613.983,1106.243,1618.778,1104.325L1618.778,1104.325z"/>
</g>
<g>
	<path d="M401.252,1222.139c56.926,21.712,114.94,39.895,174.076,54.558c5.005,1.241,7.14-6.484,2.13-7.726
		c-59.135-14.664-117.149-32.846-174.076-54.558C398.56,1212.575,396.475,1220.317,401.252,1222.139L401.252,1222.139z"/>
</g>
<g>
	<path d="M598.267,1282.794c3.376,1.601,6.742,2.506,10.469,2.796c5.141,0.401,5.115-7.613,0-8.012
		c-2.229-0.174-4.404-0.744-6.425-1.702C597.676,1273.678,593.606,1280.584,598.267,1282.794L598.267,1282.794z"/>
</g>
<g>
	<path d="M634.423,1292.677c11.383,3.923,22.766,7.846,34.15,11.769c4.885,1.683,6.984-6.053,2.13-7.726
		c-11.383-3.923-22.766-7.846-34.15-11.769C631.668,1283.267,629.569,1291.004,634.423,1292.677L634.423,1292.677z"/>
</g>
<g>
	<path d="M708.612,1314.692c3.16,0.694,6.32,1.388,9.48,2.082c5.025,1.104,7.172-6.618,2.13-7.726
		c-3.16-0.694-6.32-1.388-9.48-2.082C705.717,1305.862,703.57,1313.584,708.612,1314.692L708.612,1314.692z"/>
</g>
<g>
	<path d="M737.038,1322.822c59.638,16.072,119.041,32.968,178.21,50.689c4.95,1.482,7.065-6.248,2.13-7.726
		c-59.169-17.721-118.572-34.618-178.21-50.689C734.184,1313.753,732.057,1321.48,737.038,1322.822L737.038,1322.822z"/>
</g>
<g>
	<path d="M935.086,1378.747c8.768,3.245,17.665,6.04,26.713,8.394c4.994,1.299,7.124-6.426,2.13-7.726
		c-9.048-2.354-17.945-5.15-26.713-8.394C932.374,1369.229,930.284,1376.97,935.086,1378.747L935.086,1378.747z"/>
</g>
<g>
	<path d="M364.12,873.542c41.342,9.803,82.516,20.244,123.534,31.325c4.984,1.346,7.11-6.38,2.13-7.726
		c-41.018-11.081-82.192-21.522-123.534-31.325C361.237,864.627,359.097,872.351,364.12,873.542L364.12,873.542z"/>
</g>
<g>
	<path d="M505.851,908.287c1.905,0.632,3.81,1.263,5.715,1.895c4.905,1.627,7.008-6.108,2.13-7.726
		c-1.905-0.632-3.81-1.263-5.715-1.895C503.075,898.935,500.972,906.67,505.851,908.287L505.851,908.287z"/>
</g>
<g>
	<path d="M527.683,913.246c6.061,1.797,12.121,3.593,18.182,5.39c4.954,1.469,7.07-6.261,2.13-7.726
		c-6.06-1.797-12.121-3.593-18.182-5.39C524.859,904.052,522.743,911.782,527.683,913.246L527.683,913.246z"/>
</g>
<g>
	<path d="M568.635,924.611c49.596,12.118,99.41,23.2,149.466,33.251c5.035,1.011,7.189-6.71,2.13-7.726
		c-50.056-10.051-99.87-21.133-149.466-33.251C565.757,915.662,563.621,923.386,568.635,924.611L568.635,924.611z"/>
</g>
<g>
	<path d="M749.549,962.401c6.334,1.025,12.669,2.05,19.003,3.075c5.044,0.816,7.215-6.903,2.13-7.726
		c-6.334-1.025-12.669-2.05-19.003-3.075C746.635,953.859,744.465,961.578,749.549,962.401L749.549,962.401z"/>
</g>
<g>
	<path d="M797.159,971.827c41.093,5.363,81.934,12.108,122.581,20.181c5.036,1,7.191-6.721,2.13-7.726
		c-41.353-8.213-82.905-15.011-124.71-20.467C792.061,963.15,792.11,971.168,797.159,971.827L797.159,971.827z"/>
</g>
<g>
	<path d="M940.795,994.316c4.461,0.851,8.923,1.703,13.384,2.554c5.038,0.962,7.197-6.759,2.13-7.726
		c-4.462-0.852-8.923-1.703-13.384-2.554C937.886,985.628,935.728,993.349,940.795,994.316L940.795,994.316z"/>
</g>
<g>
	<path style="fill:#D3996A;" d="M1493.686,976.221c-0.134,5.454-1.38,10.664-3.813,15.553c-2.29,4.602,4.618,8.665,6.918,4.044
		c3.072-6.174,4.737-12.698,4.907-19.597C1501.825,971.063,1493.813,971.066,1493.686,976.221L1493.686,976.221z"/>
</g>
<g>
	<path style="fill:#D3996A;" d="M1510.126,976.231c-0.956,9.224-3.026,18.183-6.04,26.947c-1.68,4.886,6.056,6.985,7.726,2.13
		c3.256-9.47,5.294-19.122,6.326-29.077C1518.669,971.108,1510.653,971.145,1510.126,976.231L1510.126,976.231z"/>
</g>
<g>
	<path style="fill:#D3996A;" d="M1096.675,1166.867c-1.244,5.928-2.487,11.857-3.731,17.785c-1.055,5.031,6.666,7.181,7.726,2.13
		c1.244-5.928,2.487-11.857,3.731-17.785C1105.456,1163.967,1097.734,1161.816,1096.675,1166.867L1096.675,1166.867z"/>
</g>
<g>
	<path style="fill:#D3996A;" d="M1117.024,1164.114c-1.397,13.102-2.794,26.203-4.191,39.305c-0.546,5.121,7.47,5.082,8.012,0
		c1.397-13.102,2.794-26.203,4.191-39.305C1125.582,1158.994,1117.566,1159.032,1117.024,1164.114L1117.024,1164.114z"/>
</g>
<g>
	<path style="fill:#D3996A;" d="M465.583,1019.577c-0.846,3.385-1.692,6.769-2.538,10.154c-1.251,5.003,6.474,7.137,7.726,2.13
		c0.846-3.385,1.692-6.769,2.538-10.154C474.559,1016.704,466.835,1014.57,465.583,1019.577L465.583,1019.577z"/>
</g>
<g>
	<path style="fill:#D3996A;" d="M487.051,1011.925c-3.641,10.634-7.283,21.268-10.924,31.901c-1.674,4.889,6.062,6.988,7.726,2.13
		c3.641-10.634,7.283-21.268,10.924-31.901C496.451,1009.166,488.714,1007.067,487.051,1011.925L487.051,1011.925z"/>
</g>
<g>
	<path style="fill:#D3996A;" d="M788.243,1135.323c-1.309,2.518-2.617,5.036-3.926,7.554c-2.375,4.569,4.537,8.625,6.918,4.044
		c1.309-2.518,2.617-5.036,3.926-7.554C797.536,1134.798,790.624,1130.742,788.243,1135.323L788.243,1135.323z"/>
</g>
<g>
	<path style="fill:#D3996A;" d="M808.639,1127.752c-4.674,8.026-9.348,16.053-14.023,24.08c-2.6,4.464,4.322,8.502,6.918,4.044
		c4.674-8.026,9.348-16.053,14.023-24.079C818.157,1127.331,811.236,1123.293,808.639,1127.752L808.639,1127.752z"/>
</g>
<g>
	<path style="fill:#D3996A;" d="M823.852,1139.16c-0.846,1.27-1.692,2.539-2.537,3.808c-2.867,4.303,4.07,8.319,6.918,4.044
		c0.846-1.269,1.692-2.539,2.537-3.808C833.637,1138.901,826.7,1134.885,823.852,1139.16L823.852,1139.16z"/>
</g>
<g>
	<path style="fill:#D3996A;" d="M557.261,1142.937c-3.354,5.519-6.707,11.037-10.061,16.556c-2.685,4.418,4.241,8.449,6.918,4.044
		c3.354-5.519,6.707-11.037,10.061-16.556C566.864,1142.563,559.938,1138.532,557.261,1142.937L557.261,1142.937z"/>
</g>
<g>
	<path style="fill:#D3996A;" d="M571.541,1144.364c-2.268,5.079-5.068,9.915-8.531,14.277c-3.174,3.997,2.459,9.703,5.665,5.665
		c3.911-4.926,7.217-10.148,9.784-15.899C580.544,1143.74,573.642,1139.66,571.541,1144.364L571.541,1144.364z"/>
</g>
<g>
	<path style="fill:#D3996A;" d="M876.923,1248.181c-4.182,7.221-8.363,14.441-12.545,21.662c-2.589,4.47,4.332,8.509,6.918,4.044
		c4.182-7.221,8.363-14.441,12.545-21.662C886.43,1247.754,879.509,1243.715,876.923,1248.181L876.923,1248.181z"/>
</g>
<g>
	<path style="fill:#D3996A;" d="M889.905,1258.502c-0.846,1.269-1.692,2.538-2.538,3.808c-2.868,4.302,4.068,8.318,6.918,4.044
		c0.846-1.269,1.692-2.538,2.538-3.808C899.691,1258.244,892.755,1254.228,889.905,1258.502L889.905,1258.502z"/>
</g>
<g>
	<path style="fill:#D3996A;" d="M1365.085,1092.455c-5.1,11.413-10.2,22.825-15.299,34.238c-2.086,4.668,4.816,8.748,6.918,4.044
		c5.1-11.413,10.2-22.825,15.3-34.238C1374.089,1091.831,1367.187,1087.751,1365.085,1092.455L1365.085,1092.455z"/>
</g>
<g>
	<path style="fill:#D3996A;" d="M1347.786,1097.032c-0.431,1.266-0.863,2.533-1.294,3.799c-1.666,4.891,6.07,6.991,7.726,2.13
		c0.431-1.266,0.863-2.533,1.294-3.799C1357.178,1094.271,1349.442,1092.171,1347.786,1097.032L1347.786,1097.032z"/>
</g>
<g>
	<path style="fill:#D3996A;" d="M1381.419,1096.189c-2.253,5.015-4.507,10.03-6.76,15.045c-2.096,4.665,4.806,8.744,6.918,4.044
		c2.253-5.015,4.507-10.03,6.76-15.045C1390.433,1095.568,1383.531,1091.489,1381.419,1096.189L1381.419,1096.189z"/>
</g>
<g>
	<path style="fill:#D3996A;" d="M792.237,740.689c-4.205,9.742-8.411,19.483-12.616,29.225c-2.022,4.685,4.878,8.77,6.918,4.044
		c4.205-9.742,8.411-19.483,12.616-29.225C801.178,740.048,794.278,735.963,792.237,740.689L792.237,740.689z"/>
</g>
<g>
	<path style="fill:#D3996A;" d="M776.4,742.684c-0.02,2.173-0.714,3.854-1.995,5.593c-1.293,1.755-0.278,4.453,1.437,5.481
		c2.022,1.211,4.204,0.295,5.481-1.437c2.076-2.817,3.056-6.153,3.089-9.636C784.46,737.527,776.448,737.522,776.4,742.684
		L776.4,742.684z"/>
</g>
<g>
	<path style="fill:#D3996A;" d="M812.079,744.157c-0.423,1.269-0.846,2.538-1.269,3.808c-1.634,4.903,6.101,7.005,7.726,2.13
		c0.423-1.269,0.846-2.538,1.269-3.808C821.439,741.384,813.704,739.282,812.079,744.157L812.079,744.157z"/>
</g>
<g>
	<path style="fill:#D3996A;" d="M1271.224,704.119c-6.675,13.836-14.236,27.151-22.7,39.971c-2.849,4.315,4.086,8.333,6.918,4.044
		c8.464-12.82,16.025-26.135,22.7-39.971C1280.372,703.539,1273.466,699.471,1271.224,704.119L1271.224,704.119z"/>
</g>
<g>
	<path style="fill:#D3996A;" d="M1285.75,712.472c-0.655,3.244-2.028,5.914-4.395,8.24c-3.684,3.619,1.982,9.283,5.665,5.665
		c3.279-3.222,5.544-7.261,6.455-11.775C1294.493,709.567,1286.772,707.414,1285.75,712.472L1285.75,712.472z"/>
</g>
<g>
	<path style="fill:#D3996A;" d="M1250.368,707.233c-3.799,2.515-6.438,5.973-7.768,10.341c-1.505,4.943,6.225,7.056,7.726,2.13
		c0.705-2.314,2.061-4.212,4.086-5.553C1258.693,711.317,1254.684,704.376,1250.368,707.233L1250.368,707.233z"/>
</g>
<g>
	<path style="fill:#D3996A;" d="M1052.93,799.452c-2.919,3.421-5.838,6.842-8.757,10.263c-3.329,3.902,2.312,9.595,5.665,5.665
		c2.919-3.421,5.838-6.842,8.757-10.263C1061.925,801.216,1056.284,795.523,1052.93,799.452L1052.93,799.452z"/>
</g>
<g>
	<path style="fill:#D3996A;" d="M1033.272,797.741c-0.846,1.269-1.692,2.539-2.537,3.808c-2.867,4.303,4.07,8.319,6.918,4.044
		c0.846-1.269,1.692-2.539,2.537-3.808C1043.057,797.481,1036.121,793.465,1033.272,797.741L1033.272,797.741z"/>
</g>
<g>
	<path style="fill:#D3996A;" d="M1077.75,646.74c-1.269,2.962-2.538,5.923-3.807,8.885c-0.858,2.003-0.58,4.272,1.437,5.481
		c1.678,1.005,4.63,0.548,5.481-1.437c1.269-2.962,2.538-5.923,3.807-8.885c0.858-2.003,0.58-4.272-1.437-5.481
		C1081.553,644.298,1078.601,644.755,1077.75,646.74L1077.75,646.74z"/>
</g>
<g>
	<path style="fill:#D3996A;" d="M1088.548,647.483c-1.017,7.746-3.5,15.122-7.19,21.992c-2.439,4.542,4.475,8.593,6.918,4.044
		c4.402-8.197,7.075-16.824,8.284-26.036C1097.229,642.387,1089.21,642.436,1088.548,647.483L1088.548,647.483z"/>
</g>
</svg>
