<?xml version="1.0" encoding="utf-8"?>
<!-- Generator: Adobe Illustrator 27.5.0, SVG Export Plug-In . SVG Version: 6.00 Build 0)  -->
<svg version="1.1" id="Capa_1" xmlns="http://www.w3.org/2000/svg" xmlns:xlink="http://www.w3.org/1999/xlink" x="0px" y="0px"
	 viewBox="0 0 425.197 412.131" style="enable-background:new 0 0 425.197 412.131;" xml:space="preserve">
<rect y="-0.001" style="fill:#FFFFFF;" width="425.197" height="412.131"/>
<polygon style="fill:#808285;" points="59.429,277.89 37.037,281.902 168.234,381.594 371.689,340.998 355.774,331.14 "/>
<g>
	<polygon style="fill:#09333F;" points="73.849,245.939 204.384,223.23 355.774,281.902 173.677,316.839 	"/>
	<path style="fill:#D1D3D4;" d="M280.02,252.543c-1.976,4.336-4.479,8.437-7.72,12.157c-7.336,8.423-16.937,14.192-27.143,18.467
		c-21.51,9.012-46.145,11.057-69.113,7.857c-18.933-2.638-37.627-11.157-53.949-20.875c-11.278-6.714-23.881-15.537-30.722-27.259
		l-17.524,3.048l99.828,70.899l182.098-34.937L280.02,252.543z"/>
	<path style="fill:#001C26;" d="M73.849,245.939c0,0-24.348,11.338-12.814,35.962l115.861,86.39c0,0-19.75-21.398-3.219-51.453
		L73.849,245.939z"/>
	<path style="fill:#D6CCB1;" d="M355.774,281.902l-182.098,34.937c0,0-21.339,26.851,3.219,51.453l178.879-38.271V281.902z"/>
	<path style="fill:#001C26;" d="M168.464,323.271l187.311-35.326v-6.043l-182.098,34.937
		C173.677,316.839,168.464,318.914,168.464,323.271z"/>
	<path style="fill:#001C26;" d="M176.895,368.292l178.879-37.152v-6.043l-183.959,37.858
		C171.815,362.954,171.417,364.035,176.895,368.292z"/>
	<path style="opacity:0.1;fill:#FFFFFF;" d="M204.384,223.23l151.391,58.671l-182.098,34.937
		C173.677,316.839,296.476,288.586,204.384,223.23z"/>
</g>
<g>
	<polygon style="fill:#7B0E4C;" points="355.774,193.069 225.239,170.36 73.849,229.032 255.946,263.969 	"/>
	<path style="fill:#7B0E4C;" d="M149.604,199.673c1.976,4.336,4.479,8.437,7.72,12.157c7.336,8.423,16.937,14.192,27.143,18.467
		c21.51,9.012,46.145,11.057,69.113,7.857c18.933-2.638,37.627-11.157,53.949-20.875c11.278-6.714,23.881-15.537,30.722-27.259
		l17.524,3.048l-99.828,70.899L73.849,229.032L149.604,199.673z"/>
	<path style="fill:#2F000E;" d="M355.774,193.069c0,0,24.348,11.338,12.814,35.962l-115.861,86.39c0,0,19.75-21.398,3.219-51.453
		L355.774,193.069z"/>
	<path style="fill:#D6CCB1;" d="M73.849,229.032l182.098,34.937c0,0,21.339,26.851-3.219,51.453L73.849,277.15V229.032z"/>
	<path style="fill:#2F000E;" d="M261.159,270.401L73.849,235.075v-6.043l182.098,34.937
		C255.946,263.969,261.159,266.044,261.159,270.401z"/>
	<path style="fill:#2F000E;" d="M252.727,315.421L73.849,278.27v-6.043l183.959,37.858
		C257.808,310.084,258.206,311.164,252.727,315.421z"/>
	<path style="opacity:0.1;fill:#FFFFFF;" d="M225.239,170.36L73.849,229.032l182.098,34.937
		C255.946,263.969,133.148,235.716,225.239,170.36z"/>
</g>
<g>
	<g>
		<path style="fill:#00B9C5;" d="M203.813,44.806c0,0.45-0.076,0.923-0.225,1.419c-0.15,0.497-0.379,0.986-0.689,1.469
			c-0.309,0.483-0.705,0.949-1.188,1.398c-0.482,0.45-1.061,0.853-1.736,1.209c-0.674,0.356-1.443,0.654-2.305,0.893
			c-0.861,0.239-1.832,0.391-2.91,0.456c0.656,0.244,1.205,0.558,1.645,0.942c0.441,0.384,0.809,0.813,1.104,1.286
			c0.295,0.473,0.529,0.972,0.703,1.497c0.174,0.525,0.32,1.04,0.443,1.546c0.121,0.506,0.232,0.991,0.33,1.455
			c0.098,0.464,0.215,0.872,0.352,1.223c0.135,0.351,0.307,0.632,0.514,0.843c0.205,0.211,0.482,0.316,0.828,0.316
			c0.318,0,0.668-0.054,1.047-0.162c0.381-0.107,0.77-0.26,1.168-0.457c0.396-0.197,0.791-0.431,1.18-0.703
			c0.389-0.272,0.752-0.572,1.09-0.9l1.631,2.755c0-0.009-0.09,0.049-0.268,0.176c-0.178,0.126-0.428,0.286-0.746,0.478
			c-0.318,0.192-0.695,0.403-1.131,0.632c-0.436,0.229-0.916,0.443-1.439,0.64c-0.525,0.197-1.08,0.36-1.666,0.492
			c-0.586,0.131-1.184,0.197-1.793,0.197c-0.684,0-1.268-0.168-1.75-0.506c-0.482-0.337-0.893-0.782-1.229-1.335
			c-0.338-0.553-0.619-1.183-0.844-1.891c-0.225-0.708-0.422-1.431-0.59-2.172c-0.17-0.74-0.326-1.464-0.473-2.171
			c-0.145-0.708-0.307-1.337-0.484-1.891c-0.178-0.553-0.389-0.997-0.633-1.335c-0.242-0.337-0.547-0.506-0.912-0.506h-0.887
			c-0.188,2.052-0.422,3.891-0.703,5.517c-0.281,1.626-0.652,3.005-1.117,4.139c-0.463,1.134-1.045,2-1.742,2.601
			c-0.699,0.599-1.553,0.899-2.564,0.899c-0.75,0-1.438-0.143-2.061-0.429c-0.623-0.286-1.186-0.677-1.686-1.174
			c-0.502-0.497-0.939-1.078-1.314-1.743c-0.375-0.665-0.688-1.38-0.936-2.144c-0.248-0.764-0.436-1.553-0.563-2.368
			c-0.125-0.815-0.189-1.626-0.189-2.432c0-1.453,0.182-2.875,0.541-4.266c0.361-1.391,0.881-2.706,1.561-3.942
			c0.68-1.237,1.502-2.373,2.467-3.408c0.965-1.036,2.051-1.93,3.254-2.685c1.205-0.754,2.516-1.342,3.936-1.764
			c1.42-0.422,2.922-0.632,4.506-0.632c0.701,0,1.4,0.065,2.094,0.197c0.693,0.131,1.354,0.323,1.98,0.576
			c0.629,0.253,1.211,0.567,1.75,0.941c0.539,0.375,1.004,0.804,1.393,1.286c0.389,0.483,0.695,1.019,0.92,1.609
			C203.699,43.471,203.813,44.113,203.813,44.806z M195.084,41.419c-1.547,0-2.926,0.215-4.139,0.646
			c-1.215,0.431-2.279,1.012-3.199,1.743c-0.918,0.731-1.699,1.579-2.346,2.544c-0.646,0.965-1.172,1.977-1.574,3.036
			c-0.404,1.059-0.697,2.132-0.879,3.219c-0.184,1.087-0.273,2.122-0.273,3.106c0,0.759,0.064,1.521,0.195,2.284
			c0.131,0.764,0.338,1.45,0.619,2.059c0.281,0.609,0.645,1.104,1.09,1.483c0.445,0.379,0.98,0.569,1.609,0.569
			c0.318,0,0.6-0.124,0.842-0.373c0.244-0.248,0.459-0.581,0.648-0.998c0.186-0.417,0.35-0.899,0.49-1.448
			c0.141-0.548,0.258-1.117,0.352-1.708c0.094-0.59,0.17-1.186,0.225-1.785c0.057-0.6,0.102-1.162,0.135-1.686
			c0.033-0.525,0.053-0.991,0.063-1.398c0.01-0.408,0.014-0.719,0.014-0.935c-0.73-0.346-1.285-0.669-1.664-0.97
			c-0.381-0.3-0.57-0.646-0.57-1.04c0-0.093,0.008-0.206,0.021-0.337c0.014-0.131,0.045-0.253,0.092-0.365s0.113-0.208,0.203-0.288
			c0.09-0.08,0.209-0.12,0.359-0.12c0.064,0,0.195,0.012,0.393,0.035c0.197,0.024,0.402,0.052,0.619,0.084
			c0.215,0.033,0.414,0.061,0.598,0.084c0.182,0.024,0.301,0.035,0.357,0.035l0.014-0.295c0.01-0.15,0.025-0.356,0.049-0.619
			c0.023-0.262,0.064-0.543,0.121-0.843c0.055-0.3,0.137-0.602,0.246-0.906c0.107-0.305,0.25-0.581,0.428-0.83
			c0.178-0.248,0.391-0.45,0.639-0.604c0.25-0.154,0.551-0.232,0.908-0.232c0.467,0,0.779,0.105,0.934,0.316
			c0.154,0.211,0.232,0.48,0.232,0.808v0.126c-0.01,0.357-0.063,0.827-0.162,1.413c-0.098,0.586-0.189,1.263-0.273,2.031
			c1.527-0.028,2.787-0.18,3.781-0.457c0.992-0.276,1.779-0.625,2.361-1.047c0.58-0.422,0.988-0.883,1.223-1.385
			c0.234-0.501,0.352-0.986,0.352-1.455c0-0.459-0.111-0.899-0.33-1.321c-0.221-0.421-0.547-0.794-0.979-1.117
			c-0.43-0.323-0.965-0.581-1.602-0.773C196.668,41.515,195.928,41.419,195.084,41.419z"/>
		<path style="fill:#00B9C5;" d="M208.619,62.558c-0.881,0-1.65-0.159-2.313-0.478c-0.66-0.318-1.211-0.747-1.65-1.286
			c-0.441-0.539-0.771-1.162-0.99-1.869c-0.221-0.708-0.332-1.45-0.332-2.228c0-0.524,0.053-1.08,0.156-1.666
			c0.102-0.585,0.26-1.159,0.471-1.722c0.211-0.562,0.475-1.099,0.793-1.609c0.318-0.511,0.691-0.96,1.117-1.349
			c0.428-0.389,0.904-0.698,1.434-0.928s1.119-0.344,1.766-0.344c0.523,0,1.012,0.084,1.461,0.253
			c0.449,0.168,0.842,0.405,1.174,0.709c0.332,0.305,0.592,0.673,0.779,1.104c0.188,0.431,0.281,0.913,0.281,1.448
			c0,0.581-0.143,1.162-0.428,1.743c-0.287,0.582-0.682,1.129-1.188,1.645c-0.506,0.516-1.109,0.975-1.807,1.377
			c-0.699,0.403-1.455,0.717-2.27,0.942c0.141,0.253,0.277,0.464,0.414,0.632c0.135,0.169,0.273,0.3,0.414,0.394
			c0.141,0.094,0.289,0.16,0.443,0.197c0.154,0.038,0.32,0.056,0.498,0.056c0.563,0,1.156-0.112,1.779-0.337
			c0.623-0.225,1.229-0.506,1.82-0.844c0.59-0.337,1.146-0.705,1.672-1.103c0.525-0.398,0.971-0.775,1.336-1.131l1.813,1.883
			c-0.824,0.853-1.701,1.607-2.629,2.263c-0.402,0.281-0.836,0.558-1.299,0.83c-0.465,0.271-0.951,0.513-1.463,0.724
			c-0.51,0.211-1.039,0.379-1.588,0.506C209.736,62.495,209.182,62.558,208.619,62.558z M206.75,55.952
			c0.338,0,0.705-0.086,1.104-0.26c0.398-0.173,0.768-0.396,1.111-0.667c0.342-0.271,0.629-0.567,0.863-0.886
			c0.234-0.318,0.352-0.627,0.352-0.927c0-0.422-0.078-0.769-0.232-1.041c-0.154-0.271-0.344-0.407-0.568-0.407
			c-0.402,0-0.748,0.075-1.033,0.225c-0.285,0.15-0.525,0.345-0.717,0.583c-0.191,0.239-0.348,0.511-0.465,0.815
			c-0.117,0.305-0.205,0.612-0.266,0.921c-0.063,0.309-0.102,0.609-0.119,0.899C206.76,55.498,206.75,55.746,206.75,55.952z"/>
		<path style="fill:#00B9C5;" d="M229.633,59.115c-0.217,0.3-0.504,0.651-0.865,1.054c-0.361,0.403-0.766,0.787-1.215,1.153
			c-0.451,0.365-0.934,0.675-1.447,0.928c-0.516,0.253-1.031,0.379-1.547,0.379c-0.619,0-1.135-0.199-1.547-0.597
			c-0.412-0.398-0.768-0.977-1.068-1.736c-0.225,0.262-0.5,0.529-0.828,0.801c-0.328,0.272-0.688,0.518-1.076,0.738
			c-0.389,0.22-0.793,0.4-1.215,0.541c-0.422,0.141-0.844,0.211-1.266,0.211c-0.449,0-0.887-0.092-1.314-0.274
			c-0.426-0.183-0.803-0.445-1.131-0.787c-0.328-0.342-0.59-0.759-0.787-1.251c-0.197-0.492-0.295-1.047-0.295-1.666
			c0-0.703,0.098-1.424,0.295-2.165c0.197-0.74,0.469-1.464,0.814-2.171c0.348-0.708,0.758-1.375,1.23-2.003
			c0.473-0.628,0.99-1.176,1.553-1.645c0.563-0.468,1.154-0.841,1.779-1.117c0.623-0.276,1.258-0.415,1.904-0.415
			c0.215,0,0.383,0.042,0.506,0.127c0.121,0.084,0.223,0.18,0.301,0.288c0.08,0.107,0.158,0.213,0.232,0.316
			c0.076,0.104,0.17,0.178,0.281,0.225c0.113,0.047,0.227,0.077,0.344,0.091c0.117,0.014,0.238,0.021,0.359,0.021
			c0.104,0,0.209-0.002,0.316-0.007c0.107-0.005,0.213-0.007,0.316-0.007c0.141,0,0.271,0.014,0.393,0.042
			c0.123,0.028,0.23,0.089,0.324,0.183c0.094,0.094,0.166,0.225,0.217,0.394c0.053,0.168,0.078,0.398,0.078,0.689
			c0,0.45-0.047,0.949-0.141,1.497c-0.094,0.548-0.197,1.11-0.309,1.687c-0.113,0.577-0.217,1.153-0.311,1.729
			c-0.094,0.576-0.141,1.122-0.141,1.637c0,0.441,0.041,0.785,0.121,1.033c0.078,0.248,0.25,0.372,0.512,0.372
			c0.197,0,0.402-0.049,0.619-0.147c0.215-0.099,0.434-0.227,0.652-0.387c0.221-0.159,0.441-0.339,0.662-0.541
			c0.219-0.201,0.428-0.41,0.625-0.625c0.459-0.506,0.922-1.078,1.391-1.715L229.633,59.115z M217.629,58.004
			c0,0.234,0.016,0.462,0.049,0.682s0.092,0.417,0.176,0.59c0.084,0.173,0.197,0.314,0.338,0.421
			c0.141,0.108,0.318,0.162,0.533,0.162c0.348,0,0.662-0.15,0.943-0.45c0.279-0.3,0.523-0.661,0.73-1.082
			c0.205-0.422,0.371-0.857,0.498-1.307c0.127-0.45,0.209-0.825,0.246-1.125L222,51.764c-0.385,0-0.758,0.096-1.125,0.288
			c-0.365,0.192-0.709,0.452-1.031,0.78c-0.324,0.328-0.621,0.703-0.893,1.125c-0.273,0.422-0.508,0.865-0.703,1.328
			c-0.197,0.464-0.35,0.93-0.457,1.399C217.684,57.151,217.629,57.592,217.629,58.004z"/>
		<path style="fill:#00B9C5;" d="M243.828,59.803c-0.666,0.516-1.322,0.975-1.969,1.377c-0.271,0.168-0.557,0.335-0.857,0.499
			c-0.299,0.164-0.594,0.309-0.885,0.436s-0.574,0.23-0.85,0.31c-0.277,0.079-0.533,0.119-0.768,0.119
			c-0.131,0-0.324-0.028-0.582-0.084c-0.258-0.057-0.539-0.171-0.844-0.345c-0.305-0.173-0.609-0.424-0.914-0.752
			c-0.305-0.328-0.568-0.764-0.793-1.307c-0.348,0.337-0.715,0.659-1.104,0.963c-0.389,0.305-0.793,0.569-1.209,0.794
			c-0.418,0.225-0.84,0.406-1.266,0.542c-0.426,0.136-0.855,0.204-1.285,0.204c-0.609,0-1.137-0.131-1.582-0.394
			c-0.445-0.262-0.814-0.611-1.109-1.047c-0.295-0.436-0.516-0.93-0.662-1.482c-0.145-0.553-0.217-1.125-0.217-1.715
			c0-0.6,0.076-1.207,0.232-1.82c0.154-0.614,0.379-1.209,0.674-1.785c0.295-0.576,0.654-1.12,1.076-1.63
			c0.42-0.511,0.898-0.965,1.434-1.363c0.533-0.398,1.113-0.729,1.742-0.991c0.627-0.262,1.297-0.426,2.01-0.492
			c0.027-1.199,0.135-2.385,0.324-3.556c0.186-1.171,0.436-2.286,0.744-3.345c0.309-1.059,0.672-2.038,1.09-2.938
			c0.416-0.899,0.873-1.677,1.369-2.333c0.498-0.656,1.027-1.169,1.588-1.539c0.563-0.37,1.145-0.555,1.744-0.555
			c0.439,0,0.814,0.115,1.125,0.344c0.309,0.229,0.559,0.534,0.752,0.913c0.191,0.379,0.33,0.82,0.414,1.321
			c0.084,0.502,0.127,1.019,0.127,1.553c0,0.328-0.016,0.665-0.043,1.012c-0.121,1.321-0.348,2.57-0.674,3.746
			c-0.328,1.176-0.713,2.321-1.152,3.437c-0.441,1.115-0.92,2.221-1.436,3.317c-0.514,1.096-1.016,2.235-1.504,3.415
			c-0.047,0.131-0.094,0.291-0.141,0.478c-0.047,0.188-0.09,0.391-0.133,0.611c-0.041,0.22-0.076,0.445-0.105,0.675
			c-0.027,0.229-0.041,0.452-0.041,0.667c0,0.272,0.016,0.529,0.049,0.773c0.033,0.244,0.086,0.461,0.162,0.654
			c0.074,0.192,0.174,0.344,0.301,0.457c0.127,0.112,0.283,0.169,0.471,0.169c0.178,0,0.373-0.035,0.584-0.105
			c0.211-0.07,0.434-0.167,0.668-0.288c0.234-0.122,0.471-0.26,0.709-0.415c0.24-0.154,0.471-0.311,0.695-0.471
			c0.516-0.375,1.055-0.801,1.617-1.279L243.828,59.803z M234.158,51.932c-0.619,0.3-1.17,0.696-1.652,1.188
			c-0.482,0.492-0.885,1.023-1.209,1.595c-0.322,0.571-0.568,1.148-0.736,1.729c-0.17,0.581-0.254,1.106-0.254,1.574
			c0,0.188,0.021,0.375,0.063,0.563c0.043,0.188,0.121,0.356,0.232,0.506c0.113,0.15,0.271,0.272,0.479,0.365
			c0.205,0.094,0.473,0.141,0.801,0.141c0.168,0,0.334-0.042,0.498-0.126c0.164-0.084,0.322-0.194,0.473-0.33
			c0.148-0.136,0.291-0.291,0.428-0.464c0.137-0.173,0.26-0.354,0.373-0.541c0.262-0.431,0.5-0.918,0.717-1.462
			c-0.029-0.131-0.053-0.339-0.07-0.625c-0.02-0.286-0.033-0.604-0.043-0.956c-0.01-0.351-0.02-0.714-0.027-1.089
			c-0.01-0.375-0.018-0.717-0.021-1.026c-0.004-0.309-0.012-0.562-0.021-0.759C234.176,52.017,234.168,51.923,234.158,51.932z
			 M240.764,41.742c0.057-0.656,0.084-1.176,0.084-1.561c0-0.506-0.045-0.857-0.133-1.054c-0.09-0.197-0.219-0.295-0.387-0.295
			c-0.301,0-0.572,0.19-0.814,0.569c-0.244,0.379-0.461,0.864-0.646,1.455c-0.188,0.59-0.352,1.242-0.492,1.954
			c-0.141,0.712-0.258,1.401-0.352,2.066c-0.094,0.666-0.17,1.265-0.225,1.799c-0.057,0.534-0.094,0.914-0.113,1.139
			c-0.037,0.459-0.068,0.902-0.092,1.328c-0.023,0.427-0.039,0.816-0.049,1.167c-0.01,0.352-0.014,0.659-0.014,0.921
			c0,0.262,0,0.464,0,0.604v0.14c0.533-1.218,1.025-2.431,1.477-3.64c0.186-0.515,0.377-1.056,0.568-1.624
			c0.191-0.567,0.367-1.136,0.527-1.708c0.158-0.571,0.297-1.134,0.414-1.687C240.635,42.764,240.717,42.239,240.764,41.742z"/>
	</g>
	<g>
		<path style="fill:#3C2415;" d="M160.225,93.808V64.801h7.289c2.211,0,3.797,0.088,4.758,0.264
			c0.959,0.176,1.791,0.471,2.494,0.885c1.043,0.628,1.83,1.456,2.365,2.486c0.533,1.03,0.801,2.248,0.801,3.654
			c0,1.256-0.25,2.374-0.744,3.353c-0.496,0.979-1.291,1.934-2.383,2.863c1.293,0.653,2.266,1.541,2.918,2.665
			c0.654,1.124,0.98,2.471,0.98,4.04c0,1.293-0.221,2.518-0.66,3.673c-0.439,1.156-1.055,2.141-1.846,2.958
			c-0.752,0.791-1.682,1.35-2.787,1.676c-1.105,0.327-2.813,0.49-5.123,0.49H160.225z M167.006,76.14h0.434
			c1.33,0,2.313-0.279,2.947-0.838c0.635-0.559,0.951-1.422,0.951-2.59c0-1.017-0.314-1.799-0.941-2.345
			c-0.629-0.546-1.525-0.819-2.693-0.819c-0.189,0-0.334,0.003-0.434,0.009c-0.1,0.006-0.182,0.016-0.244,0.028L167.006,76.14z
			 M167.006,88.684h0.584c1.418,0,2.486-0.332,3.201-0.998c0.717-0.665,1.074-1.658,1.074-2.976c0-1.23-0.352-2.131-1.055-2.703
			c-0.703-0.571-1.814-0.857-3.334-0.857h-0.471V88.684z"/>
		<path style="fill:#3C2415;" d="M182.018,79.304c0-3.491,0.125-6.04,0.377-7.647c0.252-1.607,0.666-2.863,1.244-3.767
			c0.828-1.281,1.914-2.232,3.258-2.854c1.344-0.622,2.957-0.933,4.842-0.933c1.895,0,3.506,0.311,4.83,0.933
			c1.324,0.622,2.402,1.573,3.23,2.854c0.604,0.916,1.029,2.179,1.281,3.786c0.25,1.608,0.377,4.15,0.377,7.629
			c0,3.466-0.127,6.005-0.377,7.619c-0.252,1.613-0.678,2.879-1.281,3.795c-0.816,1.268-1.893,2.216-3.23,2.844
			c-1.338,0.628-2.947,0.941-4.83,0.941c-1.885,0-3.498-0.314-4.842-0.941c-1.344-0.628-2.43-1.576-3.258-2.844
			c-0.578-0.904-0.992-2.16-1.244-3.768C182.143,85.344,182.018,82.795,182.018,79.304z M194.525,81.922v-5.236
			c0-3.214-0.205-5.202-0.613-5.961c-0.408-0.76-1.145-1.14-2.213-1.14c-1.041,0-1.764,0.389-2.166,1.168
			c-0.402,0.779-0.602,2.757-0.602,5.934v5.236c0,3.139,0.199,5.107,0.602,5.905c0.402,0.798,1.137,1.196,2.205,1.196
			c1.055,0,1.781-0.389,2.184-1.168C194.324,87.077,194.525,85.099,194.525,81.922z"/>
		<path style="fill:#3C2415;" d="M205.016,79.304c0-3.491,0.125-6.04,0.377-7.647c0.252-1.607,0.666-2.863,1.244-3.767
			c0.828-1.281,1.914-2.232,3.258-2.854c1.344-0.622,2.957-0.933,4.842-0.933c1.895,0,3.506,0.311,4.83,0.933
			c1.324,0.622,2.402,1.573,3.23,2.854c0.604,0.916,1.029,2.179,1.281,3.786c0.25,1.608,0.377,4.15,0.377,7.629
			c0,3.466-0.127,6.005-0.377,7.619c-0.252,1.613-0.678,2.879-1.281,3.795c-0.816,1.268-1.893,2.216-3.23,2.844
			c-1.338,0.628-2.947,0.941-4.83,0.941c-1.885,0-3.498-0.314-4.842-0.941c-1.344-0.628-2.43-1.576-3.258-2.844
			c-0.578-0.904-0.992-2.16-1.244-3.768C205.141,85.344,205.016,82.795,205.016,79.304z M217.523,81.922v-5.236
			c0-3.214-0.205-5.202-0.613-5.961c-0.408-0.76-1.145-1.14-2.213-1.14c-1.041,0-1.764,0.389-2.166,1.168
			c-0.402,0.779-0.602,2.757-0.602,5.934v5.236c0,3.139,0.199,5.107,0.602,5.905c0.402,0.798,1.137,1.196,2.205,1.196
			c1.055,0,1.781-0.389,2.184-1.168C217.322,87.077,217.523,85.099,217.523,81.922z"/>
		<path style="fill:#3C2415;" d="M228.6,93.808V64.801h6.781v12.036l5.066-12.036h6.932l-6.291,12.695l6.441,16.312h-7.121
			l-3.559-10.492l-1.469,2.769v7.723H228.6z"/>
		<path style="fill:#3C2415;" d="M248.545,83.976h6.217v0.847c0,1.595,0.188,2.719,0.564,3.372c0.377,0.653,1.012,0.979,1.902,0.979
			c0.717,0,1.281-0.248,1.695-0.744c0.414-0.496,0.623-1.171,0.623-2.025c0-1.406-1.012-2.756-3.033-4.05
			c-0.326-0.226-0.578-0.396-0.754-0.509l-0.32-0.207c-2.725-1.833-4.42-3.214-5.086-4.144c-0.477-0.703-0.842-1.495-1.092-2.374
			c-0.252-0.879-0.377-1.839-0.377-2.882c0-2.537,0.734-4.527,2.203-5.971c1.471-1.444,3.492-2.166,6.066-2.166
			c2.799,0,4.938,0.709,6.412,2.128c1.477,1.419,2.215,3.472,2.215,6.16c0,0.113-0.008,0.27-0.02,0.471
			c-0.012,0.201-0.02,0.358-0.02,0.471h-6.084v-0.358c0-1.268-0.197-2.229-0.592-2.882c-0.397-0.653-0.971-0.979-1.725-0.979
			c-0.641,0-1.154,0.229-1.545,0.688c-0.389,0.458-0.584,1.064-0.584,1.818c0,1.231,1.105,2.537,3.316,3.918
			c0.4,0.264,0.709,0.464,0.922,0.603c0.176,0.101,0.422,0.257,0.734,0.471c2.375,1.507,3.893,2.775,4.559,3.805
			c0.414,0.666,0.732,1.422,0.951,2.27c0.221,0.848,0.33,1.768,0.33,2.759c0,2.901-0.754,5.136-2.26,6.706
			c-1.508,1.57-3.66,2.354-6.461,2.354c-2.939,0-5.146-0.75-6.621-2.25c-1.475-1.5-2.213-3.732-2.213-6.696
			c0-0.188,0.002-0.386,0.01-0.593C248.486,84.757,248.508,84.427,248.545,83.976z"/>
	</g>
</g>
<polygon style="fill:#808285;" points="112.073,214.218 98.814,219.356 135.988,240.954 228.98,258.795 278.599,247.881 
	318.762,219.356 "/>
<g>
	<polygon style="fill:#14BAAB;" points="73.849,140.199 204.384,117.49 355.774,176.162 173.677,211.099 	"/>
	<path style="fill:#D1D3D4;" d="M280.02,146.803c-1.976,4.336-4.479,8.437-7.72,12.157c-7.336,8.423-16.937,14.192-27.143,18.467
		c-21.51,9.012-46.145,11.057-69.113,7.857c-18.933-2.638-37.627-11.157-53.949-20.874c-11.278-6.714-23.881-15.537-30.722-27.259
		l-17.524,3.048l99.828,70.899l182.098-34.937L280.02,146.803z"/>
	<path style="fill:#007F7A;" d="M73.849,140.199c0,0-24.348,11.338-12.814,35.962l115.861,86.39c0,0-19.75-21.398-3.219-51.453
		L73.849,140.199z"/>
	<path style="fill:#D6CCB1;" d="M355.774,176.162l-182.098,34.937c0,0-21.339,26.851,3.219,51.453l178.879-38.271V176.162z"/>
	<path style="fill:#007F7A;" d="M168.464,217.531l187.311-35.326v-6.043l-182.098,34.937
		C173.677,211.099,168.464,213.174,168.464,217.531z"/>
	<path style="fill:#007F7A;" d="M176.895,262.551l178.879-37.152v-6.043l-183.959,37.858
		C171.815,257.214,171.417,258.294,176.895,262.551z"/>
	<path style="opacity:0.1;fill:#FFFFFF;" d="M204.384,117.49l151.391,58.671l-182.098,34.937
		C173.677,211.099,296.476,182.846,204.384,117.49z"/>
</g>
<polygon style="fill:#808285;" points="138.184,291.632 218.316,308.274 202.455,311.317 152.043,301.475 "/>
<polygon style="fill:#808285;" points="277.557,296.909 296.393,293.295 327.287,270.748 317.55,267.088 "/>
</svg>
