<?xml version="1.0" encoding="utf-8"?>
<!-- Generator: Adobe Illustrator 27.5.0, SVG Export Plug-In . SVG Version: 6.00 Build 0)  -->
<svg version="1.1" id="Layer_1" xmlns="http://www.w3.org/2000/svg" xmlns:xlink="http://www.w3.org/1999/xlink" x="0px" y="0px"
	 viewBox="0 0 3840 2180" style="enable-background:new 0 0 3840 2180;" xml:space="preserve">
<g>
	<ellipse style="opacity:0.1;fill:#006838;" cx="3383.5" cy="1442.442" rx="154.566" ry="25.355"/>
	<g>
		<path style="fill:#63AE20;" d="M3359.73,1445.141c0,0-53.505-270.302,157.734-275.166c-0.695,0-173.951,7.643-102.61,271.692
			C3363.205,1443.751,3359.73,1445.141,3359.73,1445.141z"/>
		<path style="fill:#63AE20;" d="M3272.939,1236.682c0,0,102.492,58.369,59.411,208.459c0.695-1.39-50.03,0-50.03,0
			S3361.534,1317.981,3272.939,1236.682z"/>
		<path style="fill:#63AE20;" d="M3413.024,1432.644c0,0-10.655-121.37,74.582-176.032c0.463,0.927-89.03,110.797-15.794,183.948
			C3397.27,1443.299,3413.024,1432.644,3413.024,1432.644z"/>
		<path style="fill:#63AE20;" d="M3317.063,1441.01c0,0-2.779-108.437-84.079-133.452c1.39,0.695,72.961,61.148,49.335,137.583
			C3308.736,1444.605,3317.063,1441.01,3317.063,1441.01z"/>
		<path style="fill:#63AE20;" d="M3468.044,1428.001c0,0,22.699-112.568,105.156-73.656c-0.463,0.927-69.487-25.015-77.362,90.796
			C3461.438,1449.754,3468.044,1428.001,3468.044,1428.001z"/>
	</g>
</g>
<g>
	<defs>
		<rect id="SVGID_1_" y="20" width="3840" height="2160"/>
	</defs>
	<clipPath id="SVGID_00000124136808735142013550000017911515796467382168_">
		<use xlink:href="#SVGID_1_"  style="overflow:visible;"/>
	</clipPath>
	<g style="clip-path:url(#SVGID_00000124136808735142013550000017911515796467382168_);">
		<g>
			<g>
				<g>
					<g>
						<g>
							<g>
								<g>
									
										<ellipse transform="matrix(0.6432 -0.7657 0.7657 0.6432 -547.2135 120.0712)" style="fill:#60AD0E;" cx="-144.769" cy="647.202" rx="23.485" ry="23.485"/>
									
										<ellipse transform="matrix(0.5286 -0.8489 0.8489 0.5286 -576.7623 161.4253)" style="fill:#60AD0E;" cx="-143.047" cy="599.982" rx="20.633" ry="20.633"/>
									<path style="fill:#60AD0E;" d="M-132.191,619.894c0.435,5.001-3.267,9.409-8.269,9.843
										c-5.001,0.435-9.408-3.267-9.843-8.269c-0.435-5.002,3.267-9.409,8.269-9.843
										C-137.033,611.19-132.626,614.892-132.191,619.894z"/>
									
										<ellipse transform="matrix(0.9903 -0.1393 0.1393 0.9903 -78.3869 -17.4752)" style="fill:#60AD0E;" cx="-164.053" cy="551.334" rx="17.098" ry="17.098"/>
									<path style="fill:#60AD0E;" d="M-153.407,576.472c0.873,10.039-6.558,18.885-16.597,19.758
										c-10.039,0.873-18.885-6.558-19.758-16.598c-0.873-10.039,6.558-18.885,16.597-19.758
										C-163.126,559.002-154.28,566.433-153.407,576.472z"/>
									
										<ellipse transform="matrix(0.8862 -0.4633 0.4633 0.8862 -267.5917 -29.5159)" style="fill:#60AD0E;" cx="-193.884" cy="530.006" rx="20.585" ry="20.585"/>
									
										<ellipse transform="matrix(0.6432 -0.7657 0.7657 0.6432 -471.7217 0.1194)" style="fill:#60AD0E;" cx="-235.733" cy="506.223" rx="29.819" ry="29.82"/>
								</g>
								<g>
									
										<ellipse transform="matrix(0.3808 -0.9247 0.9247 0.3808 -886.8976 19.4211)" style="fill:#60AD0E;" cx="-428.948" cy="671.909" rx="23.485" ry="23.485"/>
									
										<ellipse transform="matrix(0.5176 -0.8556 0.8556 0.5176 -747.069 -73.5904)" style="fill:#60AD0E;" cx="-438.793" cy="625.695" rx="20.633" ry="20.633"/>
									<path style="fill:#60AD0E;" d="M-446.05,647.182c0.435,5.002,4.842,8.703,9.843,8.269s8.703-4.842,8.269-9.843
										c-0.435-5.001-4.842-8.703-9.843-8.269C-442.783,637.773-446.485,642.18-446.05,647.182z"/>
									
										<ellipse transform="matrix(0.6432 -0.7657 0.7657 0.6432 -591.7999 -121.7122)" style="fill:#60AD0E;" cx="-426.499" cy="574.152" rx="17.098" ry="17.098"/>
									
										<ellipse transform="matrix(0.9577 -0.2877 0.2877 0.9577 -189.9401 -93.9216)" style="fill:#60AD0E;" cx="-414.469" cy="599.17" rx="18.247" ry="18.246"/>
									
										<ellipse transform="matrix(0.6432 -0.7657 0.7657 0.6432 -562.6011 -111.3642)" style="fill:#60AD0E;" cx="-400.796" cy="547.996" rx="20.585" ry="20.585"/>
									
										<ellipse transform="matrix(0.7924 -0.61 0.61 0.7924 -391.0882 -114.4439)" style="fill:#60AD0E;" cx="-363.68" cy="517.347" rx="29.82" ry="29.82"/>
								</g>
								
									<ellipse transform="matrix(0.1426 -0.9898 0.9898 0.1426 -757.8488 144.0169)" style="fill:#60AD0E;" cx="-295.802" cy="509.418" rx="31.84" ry="31.84"/>
								
									<ellipse transform="matrix(0.3737 -0.9276 0.9276 0.3737 -698.9185 22.4049)" style="fill:#60AD0E;" cx="-332.869" cy="528.75" rx="22.493" ry="22.493"/>
								<polygon style="fill:#60AD0E;" points="-426.914,695.306 -139.561,670.323 -141.247,620.681 -153.474,585.005 
									-174.523,576.117 -164.334,548.099 -193.884,530.006 -236.799,504.288 -311.106,517.218 -355.277,530.698 -367.435,528.423 
									-400.796,547.996 -420.444,562.994 -418.223,606.155 -438.592,628.01 								"/>
							</g>
						</g>
						<g>
							<g>
								<g>
									
										<ellipse transform="matrix(0.7071 -0.7071 0.7071 0.7071 -381.9349 253.1081)" style="fill:#60AD0E;" cx="114.561" cy="587.59" rx="26.651" ry="26.651"/>
								</g>
								<g>
									
										<ellipse transform="matrix(0.9962 -0.0866 0.0866 0.9962 -46.7083 13.4083)" style="fill:#60AD0E;" cx="131.141" cy="544.892" rx="23.433" ry="25.061"/>
								</g>
								<g>
									
										<ellipse transform="matrix(0.7823 -0.623 0.623 0.7823 -290.9142 219.3538)" style="fill:#60AD0E;" cx="168.328" cy="525.829" rx="23.433" ry="23.433"/>
								</g>
								<g>
									
										<ellipse transform="matrix(0.6432 -0.7657 0.7657 0.6432 -271.4827 357.8486)" style="fill:#60AD0E;" cx="248.234" cy="470.228" rx="23.433" ry="23.433"/>
								</g>
								<g>
									
										<ellipse transform="matrix(0.6432 -0.7657 0.7657 0.6432 -284.5031 392.9576)" style="fill:#60AD0E;" cx="279.396" cy="501.754" rx="23.433" ry="23.433"/>
								</g>
								<g>
									
										<ellipse transform="matrix(0.6432 -0.7657 0.7657 0.6432 -286.0785 432.3055)" style="fill:#60AD0E;" cx="320.829" cy="523.118" rx="29.129" ry="29.129"/>
								</g>
								<g>
									
										<ellipse transform="matrix(0.6432 -0.7657 0.7657 0.6432 -418.4686 322.5129)" style="fill:#60AD0E;" cx="136.825" cy="610.278" rx="35.88" ry="35.88"/>
								</g>
								<g>
									
										<ellipse transform="matrix(0.7071 -0.7071 0.7071 0.7071 -289.3435 431.2098)" style="fill:#60AD0E;" cx="375.845" cy="564.873" rx="26.651" ry="26.651"/>
								</g>
								<g>
									
										<ellipse transform="matrix(0.8069 -0.5907 0.5907 0.8069 -241.5825 309.1227)" style="fill:#60AD0E;" cx="352.004" cy="524.055" rx="23.433" ry="23.433"/>
								</g>
								<g>
									
										<ellipse transform="matrix(0.7071 -0.7071 0.7071 0.7071 -313.1385 426.1421)" style="fill:#60AD0E;" cx="357.83" cy="591.063" rx="35.88" ry="35.88"/>
								</g>
								<g>
									
										<ellipse transform="matrix(0.6432 -0.7657 0.7657 0.6432 -298.0707 334.6742)" style="fill:#60AD0E;" cx="210.074" cy="487.171" rx="38.327" ry="38.327"/>
								</g>
								<path style="fill:#60AD0E;" d="M362.739,626.651l-222.806,19.372l-7.336-84.377c2.534-4.731,35.138-63.107,104.47-70.014
									c71.442-7.118,115.498,47.026,118.336,50.643C357.848,570.4,360.294,598.525,362.739,626.651z"/>
							</g>
						</g>
						<g>
							<g>
								<circle style="fill:#60AD0E;" cx="133.333" cy="628.492" r="18.036"/>
								<path style="fill:#60AD0E;" d="M148.623,600.9c0.568,6.536-4.27,12.296-10.806,12.864
									c-6.536,0.568-12.296-4.27-12.864-10.806c-0.568-6.536,4.27-12.296,10.806-12.864
									C142.296,589.526,148.055,594.364,148.623,600.9z"/>
								<path style="fill:#60AD0E;" d="M138.881,572.133c0.568,6.536-4.27,12.296-10.806,12.864
									c-6.536,0.568-12.296-4.27-12.864-10.806c-0.568-6.536,4.27-12.296,10.806-12.864S138.312,565.597,138.881,572.133z"/>
								<path style="fill:#60AD0E;" d="M118.869,562.962c0.568,6.536-4.27,12.296-10.806,12.864s-12.296-4.27-12.864-10.806
									c-0.568-6.536,4.27-12.296,10.806-12.864C112.541,551.588,118.301,556.426,118.869,562.962z"/>
								
									<ellipse transform="matrix(0.6432 -0.7657 0.7657 0.6432 -390.8289 260.8909)" style="fill:#60AD0E;" cx="84.525" cy="549.81" rx="15.501" ry="15.501"/>
								
									<ellipse transform="matrix(0.5537 -0.8327 0.8327 0.5537 -414.4567 286.2032)" style="fill:#60AD0E;" cx="59.763" cy="529.738" rx="26.023" ry="26.023"/>
								<path style="fill:#60AD0E;" d="M137.341,586.852c0.217,2.495-1.63,4.694-4.125,4.911c-2.495,0.217-4.694-1.63-4.911-4.125
									c-0.217-2.495,1.63-4.694,4.125-4.911C134.925,582.51,137.124,584.357,137.341,586.852z"/>
								
									<ellipse transform="matrix(0.6432 -0.7657 0.7657 0.6432 -504.1924 203.9437)" style="fill:#60AD0E;" cx="-33.262" cy="642.977" rx="18.036" ry="18.036"/>
								
									<ellipse transform="matrix(0.9999 -0.0115 0.0115 0.9999 -7.1053 -0.4337)" style="fill:#60AD0E;" cx="-41.249" cy="617.408" rx="11.88" ry="11.88"/>
								<path style="fill:#60AD0E;" d="M-48.453,588.421c0.568,6.536,6.328,11.374,12.864,10.806
									c6.536-0.568,11.374-6.328,10.806-12.864s-6.328-11.374-12.864-10.806C-44.183,576.125-49.021,581.884-48.453,588.421z"/>
								<path style="fill:#60AD0E;" d="M-30.324,575.934c0.568,6.536,6.328,11.374,12.864,10.806
									c6.536-0.568,11.374-6.328,10.806-12.864c-0.568-6.536-6.328-11.374-12.864-10.806S-30.892,569.397-30.324,575.934z"/>
								
									<ellipse transform="matrix(0.9987 -0.0515 0.0515 0.9987 -28.7028 0.8037)" style="fill:#60AD0E;" cx="1.235" cy="557.052" rx="15.501" ry="15.501"/>
								<path style="fill:#60AD0E;" d="M-44.395,602.653c0.217,2.495,2.416,4.342,4.911,4.125c2.495-0.217,4.342-2.416,4.125-4.911
									c-0.217-2.495-2.416-4.342-4.911-4.125C-42.765,597.959-44.612,600.158-44.395,602.653z"/>
								<path style="fill:#60AD0E;" d="M39.805,548.916c0.783,9.011-5.886,16.95-14.897,17.734
									c-9.011,0.784-16.95-5.886-17.734-14.897c-0.783-9.011,5.886-16.95,14.897-17.734
									C31.082,533.236,39.022,539.905,39.805,548.916z"/>
								<polygon style="fill:#60AD0E;" points="-31.7,660.945 134.896,646.46 133.861,616.232 135.884,591.531 114.609,567.278 
									75.555,538.65 52.905,531.339 19.719,552.774 -4.655,565.611 -19.386,577.754 -35.33,585.948 -40.696,610.843 								"/>
							</g>
						</g>
						<g>
							<g>
								<path style="fill:#60AD0E;" d="M-547.656,696.273c0.454,5.224-3.413,9.828-8.637,10.282
									c-5.224,0.454-9.828-3.413-10.282-8.637c-0.454-5.224,3.413-9.828,8.637-10.282
									C-552.714,687.182-548.11,691.049-547.656,696.273z"/>
								
									<ellipse transform="matrix(0.6432 -0.7657 0.7657 0.6432 -712.3544 -186.4992)" style="fill:#60AD0E;" cx="-556.293" cy="671.114" rx="19.502" ry="19.502"/>
								<path style="fill:#60AD0E;" d="M-543.568,644.839c0.539,6.194-4.046,11.652-10.24,12.19
									c-6.194,0.538-11.652-4.046-12.19-10.24c-0.539-6.194,4.046-11.652,10.24-12.19
									C-549.564,634.06-544.106,638.645-543.568,644.839z"/>
								<path style="fill:#60AD0E;" d="M-526.185,624.209c0.792,9.103-5.947,17.125-15.05,17.916
									c-9.103,0.792-17.125-5.947-17.916-15.05c-0.791-9.103,5.947-17.125,15.05-17.916
									C-534.998,608.367-526.977,615.106-526.185,624.209z"/>
								
									<ellipse transform="matrix(0.6432 -0.7657 0.7657 0.6432 -648.3479 -179.7026)" style="fill:#60AD0E;" cx="-516.997" cy="605.832" rx="21.662" ry="21.662"/>
								
									<ellipse transform="matrix(1 -0.0052 0.0052 1 -3.2109 -2.4977)" style="fill:#60AD0E;" cx="-485.759" cy="621.151" rx="17" ry="17"/>
								
									<ellipse transform="matrix(0.7835 -0.6214 0.6214 0.7835 -488.4791 -145.0041)" style="fill:#60AD0E;" cx="-452.324" cy="628.476" rx="21.589" ry="21.589"/>
								
									<ellipse transform="matrix(0.3863 -0.9224 0.9224 0.3863 -838.3843 2.2239)" style="fill:#60AD0E;" cx="-417.521" cy="631.112" rx="18.507" ry="18.507"/>
								
									<ellipse transform="matrix(0.9998 -0.0214 0.0214 0.9998 -14.1819 -8.7069)" style="fill:#60AD0E;" cx="-414.854" cy="659.815" rx="17.654" ry="17.654"/>
								<path style="fill:#60AD0E;" d="M-413.689,681.43c0.585,6.726-4.393,12.652-11.119,13.237
									c-6.726,0.585-12.652-4.394-13.237-11.119c-0.585-6.726,4.394-12.652,11.119-13.237
									C-420.2,669.725-414.273,674.704-413.689,681.43z"/>
								<path style="fill:#60AD0E;" d="M-423.207,694.42l-133.134,11.575l-4.235-48.714c3.74-6.99,16.452-28.567,42.307-37.87
									c30.247-10.883,66.193-0.547,90.827,26.295C-426.031,661.945-424.619,678.182-423.207,694.42z"/>
							</g>
						</g>
						<g>
							<g>
								<path style="fill:#60AD0E;" d="M-145.629,661.319c0.454,5.224-3.413,9.828-8.637,10.282
									c-5.224,0.454-9.827-3.413-10.282-8.637c-0.454-5.224,3.413-9.828,8.637-10.282
									C-150.686,652.228-146.083,656.095-145.629,661.319z"/>
								
									<ellipse transform="matrix(0.6432 -0.7657 0.7657 0.6432 -542.1476 108.8605)" style="fill:#60AD0E;" cx="-154.265" cy="636.16" rx="19.502" ry="19.502"/>
								<path style="fill:#60AD0E;" d="M-141.54,609.885c0.538,6.194-4.046,11.652-10.24,12.19
									c-6.194,0.539-11.652-4.046-12.19-10.24c-0.538-6.194,4.046-11.652,10.24-12.19
									C-147.536,599.107-142.079,603.691-141.54,609.885z"/>
								
									<ellipse transform="matrix(0.6432 -0.7657 0.7657 0.6432 -502.4685 103.0681)" style="fill:#60AD0E;" cx="-140.641" cy="590.688" rx="16.545" ry="16.545"/>
								
									<ellipse transform="matrix(0.7951 -0.6065 0.6065 0.7951 -369.7986 47.2544)" style="fill:#60AD0E;" cx="-114.969" cy="570.878" rx="21.662" ry="21.662"/>
								
									<ellipse transform="matrix(0.2969 -0.9549 0.9549 0.2969 -618.6277 332.1797)" style="fill:#60AD0E;" cx="-83.732" cy="586.197" rx="17" ry="17"/>
								
									<ellipse transform="matrix(0.6432 -0.7657 0.7657 0.6432 -472.4039 173.2562)" style="fill:#60AD0E;" cx="-50.296" cy="593.523" rx="21.589" ry="21.589"/>
								
									<ellipse transform="matrix(0.9979 -0.065 0.065 0.9979 -38.8009 0.2543)" style="fill:#60AD0E;" cx="-15.494" cy="596.158" rx="18.507" ry="18.507"/>
								
									<ellipse transform="matrix(0.6432 -0.7657 0.7657 0.6432 -483.0314 213.1283)" style="fill:#60AD0E;" cx="-12.827" cy="624.862" rx="17.654" ry="17.654"/>
								<path style="fill:#60AD0E;" d="M-11.661,646.476c0.585,6.726-4.394,12.652-11.119,13.237
									c-6.726,0.585-12.652-4.394-13.237-11.119c-0.585-6.726,4.394-12.652,11.119-13.237
									C-18.172,634.771-12.246,639.75-11.661,646.476z"/>
								<path style="fill:#60AD0E;" d="M-21.18,659.467l-133.134,11.575l-4.235-48.714c3.74-6.99,16.452-28.567,42.307-37.87
									c30.247-10.883,66.193-0.547,90.827,26.295C-24.004,626.991-22.592,643.229-21.18,659.467z"/>
							</g>
						</g>
					</g>
				</g>
				<g>
					<g>
						<g>
							<g>
								<g>
									
										<ellipse transform="matrix(0.7071 -0.7071 0.7071 0.7071 -331.5751 594.9606)" style="fill:#60AD0E;" cx="552.393" cy="697.727" rx="23.485" ry="23.485"/>
									
										<ellipse transform="matrix(0.9228 -0.3852 0.3852 0.9228 -207.6828 264.5739)" style="fill:#60AD0E;" cx="556.526" cy="650.656" rx="20.633" ry="20.633"/>
									<path style="fill:#60AD0E;" d="M566.35,671.097c0.179,5.017-3.744,9.229-8.761,9.408c-5.017,0.179-9.229-3.744-9.408-8.761
										c-0.179-5.017,3.744-9.229,8.761-9.408S566.171,666.08,566.35,671.097z"/>
									<circle style="fill:#60AD0E;" cx="538.033" cy="600.999" r="17.098"/>
									
										<ellipse transform="matrix(0.6815 -0.7318 0.7318 0.6815 -290.5353 587.0458)" style="fill:#60AD0E;" cx="529.146" cy="627.298" rx="18.246" ry="18.247"/>
									
										<ellipse transform="matrix(0.6815 -0.7318 0.7318 0.6815 -260.8969 556.8983)" style="fill:#60AD0E;" cx="509.331" cy="578.174" rx="20.585" ry="20.585"/>
									
										<ellipse transform="matrix(0.8898 -0.4564 0.4564 0.8898 -200.3802 274.7809)" style="fill:#60AD0E;" cx="468.752" cy="552.284" rx="29.82" ry="29.819"/>
								</g>
								<g>
									
										<ellipse transform="matrix(0.7071 -0.7071 0.7071 0.7071 -422.2503 396.3595)" style="fill:#60AD0E;" cx="267.323" cy="707.881" rx="23.485" ry="23.485"/>
									
										<ellipse transform="matrix(0.9228 -0.3852 0.3852 0.9228 -234.6453 151.1138)" style="fill:#60AD0E;" cx="259.852" cy="661.224" rx="20.633" ry="20.633"/>
									
										<ellipse transform="matrix(0.13 -0.9915 0.9915 0.13 -449.4882 851.6999)" style="fill:#60AD0E;" cx="260.592" cy="681.988" rx="9.09" ry="9.09"/>
									<path style="fill:#60AD0E;" d="M257.677,610.985c0.336,9.437,8.259,16.815,17.696,16.479
										c9.437-0.336,16.815-8.259,16.479-17.696c-0.336-9.437-8.259-16.815-17.696-16.479
										C264.719,593.625,257.341,601.548,257.677,610.985z"/>
									
										<ellipse transform="matrix(0.4199 -0.9076 0.9076 0.4199 -411.5742 628.0338)" style="fill:#60AD0E;" cx="285.5" cy="635.976" rx="18.247" ry="18.246"/>
									
										<ellipse transform="matrix(0.3276 -0.9448 0.9448 0.3276 -350.3433 678.854)" style="fill:#60AD0E;" cx="301.771" cy="585.568" rx="20.585" ry="20.585"/>
									
										<ellipse transform="matrix(0.9999 -0.0125 0.0125 0.9999 -6.9169 4.2877)" style="fill:#60AD0E;" cx="340.404" cy="556.856" rx="29.82" ry="29.819"/>
								</g>
								
									<ellipse transform="matrix(0.1407 -0.99 0.99 0.1407 -195.8071 879.205)" style="fill:#60AD0E;" cx="408.599" cy="552.405" rx="31.84" ry="31.84"/>
								
									<ellipse transform="matrix(0.6815 -0.7318 0.7318 0.6815 -298.9712 452.7045)" style="fill:#60AD0E;" cx="370.592" cy="569.818" rx="22.493" ry="22.493"/>
								<polygon style="fill:#60AD0E;" points="268.159,731.351 556.413,721.084 557.266,671.421 546.878,635.166 526.311,625.215 
									537.918,597.754 509.331,578.174 467.786,550.297 392.916,559.413 348.113,570.618 336.088,567.725 301.771,585.568 
									281.381,599.542 281.394,642.761 259.935,663.546 								"/>
							</g>
						</g>
						<g>
							<g>
								<g>
									
										<ellipse transform="matrix(0.6589 -0.7522 0.7522 0.6589 -253.5135 825.8353)" style="fill:#60AD0E;" cx="783.899" cy="692.469" rx="26.651" ry="26.651"/>
								</g>
								<g>
									
										<ellipse transform="matrix(0.9994 -0.0356 0.0356 0.9994 -22.6564 28.988)" style="fill:#60AD0E;" cx="802.639" cy="650.674" rx="23.433" ry="25.061"/>
								</g>
								<g>
									
										<ellipse transform="matrix(0.9859 -0.1672 0.1672 0.9859 -94.0931 149.4942)" style="fill:#60AD0E;" cx="840.752" cy="633.536" rx="23.433" ry="23.433"/>
								</g>
								<g>
									
										<ellipse transform="matrix(0.9859 -0.1672 0.1672 0.9859 -84.328 162.588)" style="fill:#60AD0E;" cx="923.395" cy="582.091" rx="23.433" ry="23.433"/>
								</g>
								<g>
									
										<ellipse transform="matrix(0.9986 -0.052 0.052 0.9986 -30.6847 50.3575)" style="fill:#60AD0E;" cx="952.905" cy="615.168" rx="23.433" ry="23.433"/>
								</g>
								<g>
									
										<ellipse transform="matrix(0.7071 -0.7071 0.7071 0.7071 -160.6741 889.3406)" style="fill:#60AD0E;" cx="993.192" cy="638.621" rx="29.129" ry="29.129"/>
								</g>
								<g>
									
										<ellipse transform="matrix(0.8322 -0.5545 0.5545 0.8322 -262.0842 566.5839)" style="fill:#60AD0E;" cx="804.975" cy="716.264" rx="35.88" ry="35.88"/>
								</g>
								<g>
									
										<ellipse transform="matrix(0.6436 -0.7654 0.7654 0.6436 -150.0289 1044.1056)" style="fill:#60AD0E;" cx="1046.002" cy="683.133" rx="26.651" ry="26.651"/>
								</g>
								<g>
									
										<ellipse transform="matrix(0.9948 -0.1019 0.1019 0.9948 -60.0038 107.716)" style="fill:#60AD0E;" cx="1024.278" cy="641.15" rx="23.433" ry="23.433"/>
								</g>
								<g>
									
										<ellipse transform="matrix(0.5088 -0.8609 0.8609 0.5088 -105.519 1231.8021)" style="fill:#60AD0E;" cx="1026.672" cy="708.368" rx="35.88" ry="35.88"/>
								</g>
								<g>
									
										<ellipse transform="matrix(0.9577 -0.2876 0.2876 0.9577 -134.362 279.6272)" style="fill:#60AD0E;" cx="884.419" cy="597.061" rx="38.327" ry="38.327"/>
								</g>
								<path style="fill:#60AD0E;" d="M1029.757,744.16l-223.505,7.961l-3.015-84.641c2.772-4.595,38.317-61.229,107.911-64.585
									c71.712-3.458,112.945,52.867,115.594,56.623C1027.747,687.733,1028.752,715.946,1029.757,744.16z"/>
							</g>
						</g>
						<g>
							<g>
								
									<ellipse transform="matrix(0.0312 -0.9995 0.9995 0.0312 112.2486 1502.3112)" style="fill:#60AD0E;" cx="831.089" cy="693.252" rx="18.036" ry="18.036"/>
								
									<ellipse transform="matrix(0.2309 -0.973 0.973 0.2309 -5.964 1326.2559)" style="fill:#60AD0E;" cx="835.896" cy="666.9" rx="11.88" ry="11.88"/>
								<path style="fill:#60AD0E;" d="M839.508,637.25c0.234,6.557-4.892,12.061-11.449,12.295
									c-6.557,0.234-12.061-4.892-12.295-11.449c-0.234-6.557,4.893-12.062,11.449-12.295
									C833.77,625.568,839.275,630.694,839.508,637.25z"/>
								<path style="fill:#60AD0E;" d="M819.991,627.069c0.234,6.557-4.892,12.062-11.449,12.295
									c-6.557,0.234-12.062-4.892-12.295-11.449c-0.234-6.557,4.892-12.061,11.449-12.295
									C814.253,615.386,819.758,620.512,819.991,627.069z"/>
								
									<ellipse transform="matrix(0.6574 -0.7536 0.7536 0.6574 -191.8915 802.3037)" style="fill:#60AD0E;" cx="786.365" cy="612.179" rx="15.501" ry="15.501"/>
								
									<ellipse transform="matrix(0.8728 -0.488 0.488 0.8728 -191.3658 447.3084)" style="fill:#60AD0E;" cx="762.661" cy="590.867" rx="26.023" ry="26.023"/>
								<path style="fill:#60AD0E;" d="M837.218,651.872c0.089,2.503-1.868,4.605-4.371,4.694c-2.503,0.089-4.605-1.868-4.694-4.371
									c-0.089-2.503,1.868-4.605,4.371-4.694C835.028,647.411,837.129,649.368,837.218,651.872z"/>
								
									<ellipse transform="matrix(0.8955 -0.445 0.445 0.8955 -241.7692 368.4785)" style="fill:#60AD0E;" cx="663.971" cy="699.205" rx="18.036" ry="18.036"/>
								<path style="fill:#60AD0E;" d="M645.428,673.685c0.234,6.557,5.738,11.683,12.295,11.449
									c6.557-0.234,11.683-5.738,11.449-12.295c-0.234-6.557-5.738-11.683-12.295-11.449
									C650.32,661.623,645.195,667.128,645.428,673.685z"/>
								<path style="fill:#60AD0E;" d="M651.588,643.944c0.234,6.557,5.738,11.683,12.295,11.449
									c6.557-0.234,11.683-5.738,11.449-12.295c-0.234-6.557-5.738-11.683-12.295-11.449
									C656.48,631.883,651.354,637.387,651.588,643.944z"/>
								<path style="fill:#60AD0E;" d="M670.331,632.4c0.234,6.557,5.738,11.683,12.295,11.449
									c6.557-0.234,11.683-5.738,11.449-12.295c-0.234-6.557-5.738-11.683-12.295-11.449
									C675.223,620.338,670.097,625.843,670.331,632.4z"/>
								<circle style="fill:#60AD0E;" cx="702.813" cy="615.155" r="15.501"/>
								<path style="fill:#60AD0E;" d="M654.912,658.365c0.089,2.503,2.191,4.46,4.694,4.371c2.503-0.089,4.46-2.191,4.371-4.694
									c-0.089-2.503-2.191-4.46-4.694-4.371C656.78,653.761,654.823,655.862,654.912,658.365z"/>
								
									<ellipse transform="matrix(0.902 -0.4317 0.4317 0.902 -192.0832 372.8794)" style="fill:#60AD0E;" cx="725.382" cy="609.584" rx="16.377" ry="16.377"/>
								<polygon style="fill:#60AD0E;" points="664.613,717.23 831.731,711.277 832.242,681.035 835.525,656.47 815.517,631.161 
									777.977,600.576 755.73,592.116 721.492,611.828 696.493,623.402 681.161,634.777 664.82,642.145 658.188,666.733 								
									"/>
							</g>
						</g>
						<g>
							<g>
								<path style="fill:#60AD0E;" d="M147.525,726.147c0.187,5.241-3.91,9.64-9.151,9.827c-5.241,0.187-9.64-3.91-9.827-9.151
									c-0.187-5.241,3.91-9.64,9.151-9.827S147.338,720.906,147.525,726.147z"/>
								
									<ellipse transform="matrix(0.2274 -0.9738 0.9738 0.2274 -573.9183 677.7989)" style="fill:#60AD0E;" cx="140.185" cy="700.579" rx="19.502" ry="19.502"/>
								<path style="fill:#60AD0E;" d="M154.237,674.989c0.221,6.214-4.636,11.43-10.85,11.651
									c-6.214,0.221-11.43-4.636-11.651-10.85c-0.221-6.214,4.636-11.43,10.85-11.651
									C148.799,663.918,154.015,668.776,154.237,674.989z"/>
								<path style="fill:#60AD0E;" d="M172.65,655.274c0.325,9.132-6.814,16.798-15.946,17.124
									c-9.132,0.325-16.799-6.814-17.124-15.946c-0.325-9.132,6.814-16.799,15.946-17.124
									C164.658,639.003,172.325,646.142,172.65,655.274z"/>
								
									<ellipse transform="matrix(0.991 -0.1337 0.1337 0.991 -83.6035 30.1695)" style="fill:#60AD0E;" cx="182.766" cy="637.391" rx="21.662" ry="21.662"/>
								<path style="fill:#60AD0E;" d="M230.169,653.68c0.334,9.383-7.001,17.26-16.384,17.594
									c-9.383,0.334-17.26-7.001-17.594-16.384c-0.334-9.383,7.001-17.26,16.384-17.594
									C221.957,636.962,229.835,644.297,230.169,653.68z"/>
								
									<ellipse transform="matrix(0.6815 -0.7318 0.7318 0.6815 -407.0131 391.4472)" style="fill:#60AD0E;" cx="246.197" cy="663.31" rx="21.589" ry="21.589"/>
								<path style="fill:#60AD0E;" d="M299.315,667.062c0.364,10.215-7.622,18.79-17.836,19.154
									c-10.215,0.364-18.79-7.622-19.154-17.836c-0.364-10.215,7.622-18.79,17.836-19.154
									C290.376,648.862,298.951,656.847,299.315,667.062z"/>
								
									<ellipse transform="matrix(0.0801 -0.9968 0.9968 0.0801 -434.8529 921.8572)" style="fill:#60AD0E;" cx="282.016" cy="696.523" rx="17.654" ry="17.654"/>
								
									<ellipse transform="matrix(0.3402 -0.9404 0.9404 0.3402 -497.6874 727.8958)" style="fill:#60AD0E;" cx="269.86" cy="718.603" rx="12.224" ry="12.224"/>
								<path style="fill:#60AD0E;" d="M271.906,730.656l-133.552,4.757l-1.741-48.867c4.092-6.79,17.89-27.689,44.187-35.659
									c30.764-9.324,66.135,2.836,89.365,30.902C270.746,698.078,271.326,714.367,271.906,730.656z"/>
							</g>
						</g>
						<g>
							<g>
								<path style="fill:#60AD0E;" d="M550.813,711.782c0.187,5.241-3.91,9.64-9.151,9.827c-5.241,0.187-9.64-3.91-9.827-9.151
									c-0.187-5.241,3.91-9.64,9.151-9.827C546.227,702.444,550.627,706.541,550.813,711.782z"/>
								
									<ellipse transform="matrix(0.2526 -0.9676 0.9676 0.2526 -257.7687 1038.7253)" style="fill:#60AD0E;" cx="543.474" cy="686.214" rx="19.502" ry="19.502"/>
								<path style="fill:#60AD0E;" d="M557.525,660.624c0.221,6.214-4.636,11.43-10.85,11.651
									c-6.214,0.221-11.43-4.636-11.651-10.85c-0.221-6.213,4.636-11.43,10.85-11.651S557.304,654.411,557.525,660.624z"/>
								
									<ellipse transform="matrix(0.1143 -0.9934 0.9934 0.1143 -141.8205 1123.9263)" style="fill:#60AD0E;" cx="559.404" cy="641.498" rx="16.545" ry="16.545"/>
								
									<ellipse transform="matrix(0.6815 -0.7318 0.7318 0.6815 -269.2833 627.3326)" style="fill:#60AD0E;" cx="586.054" cy="623.026" rx="21.662" ry="21.662"/>
								
									<ellipse transform="matrix(0.8136 -0.5814 0.5814 0.8136 -257.1599 477.7308)" style="fill:#60AD0E;" cx="616.468" cy="639.921" rx="17" ry="17"/>
								
									<ellipse transform="matrix(0.2917 -0.9565 0.9565 0.2917 -160.6879 1080.8944)" style="fill:#60AD0E;" cx="649.486" cy="648.945" rx="21.589" ry="21.589"/>
								
									<ellipse transform="matrix(0.7071 -0.7071 0.7071 0.7071 -261.6218 675.101)" style="fill:#60AD0E;" cx="684.108" cy="653.356" rx="18.507" ry="18.507"/>
								
									<ellipse transform="matrix(0.6815 -0.7318 0.7318 0.6815 -280.9453 718.803)" style="fill:#60AD0E;" cx="685.305" cy="682.158" rx="17.654" ry="17.654"/>
								<path style="fill:#60AD0E;" d="M685.365,703.803c0.24,6.747-5.034,12.411-11.781,12.652
									c-6.747,0.24-12.411-5.034-12.652-11.781c-0.24-6.747,5.034-12.411,11.781-12.651
									C679.46,691.782,685.124,697.056,685.365,703.803z"/>
								<path style="fill:#60AD0E;" d="M675.194,716.291l-133.552,4.757l-1.741-48.867c4.092-6.79,17.89-27.689,44.187-35.659
									c30.764-9.324,66.134,2.836,89.365,30.902C674.034,683.713,674.614,700.002,675.194,716.291z"/>
							</g>
						</g>
					</g>
				</g>
				<g>
					<g>
						<g>
							<g>
								<g>
									
										<ellipse transform="matrix(0.7071 -0.7071 0.7071 0.7071 -110.5157 1195.7025)" style="fill:#60AD0E;" cx="1388.083" cy="731.255" rx="23.485" ry="23.485"/>
									
										<ellipse transform="matrix(1 -0.0044 0.0044 1 -2.9939 6.1261)" style="fill:#60AD0E;" cx="1392.215" cy="684.185" rx="20.633" ry="20.633"/>
									<path style="fill:#60AD0E;" d="M1402.039,704.626c0.179,5.017-3.744,9.229-8.761,9.408
										c-5.017,0.179-9.229-3.744-9.408-8.761c-0.179-5.017,3.744-9.229,8.761-9.408
										C1397.648,695.686,1401.861,699.609,1402.039,704.626z"/>
									<circle style="fill:#60AD0E;" cx="1373.723" cy="634.528" r="17.098"/>
									
										<ellipse transform="matrix(0.7071 -0.7071 0.7071 0.7071 -67.5237 1158.636)" style="fill:#60AD0E;" cx="1364.835" cy="660.826" rx="18.246" ry="18.246"/>
									<circle style="fill:#60AD0E;" cx="1345.02" cy="611.703" r="20.585"/>
									
										<ellipse transform="matrix(0.999 -0.0442 0.0442 0.999 -24.6282 58.2544)" style="fill:#60AD0E;" cx="1304.442" cy="585.813" rx="29.82" ry="29.819"/>
								</g>
								<g>
									
										<ellipse transform="matrix(0.7906 -0.6124 0.6124 0.7906 -223.0125 830.7548)" style="fill:#60AD0E;" cx="1103.012" cy="741.41" rx="23.485" ry="23.485"/>
									
										<ellipse transform="matrix(0.998 -0.0629 0.0629 0.998 -41.5599 70.3387)" style="fill:#60AD0E;" cx="1095.542" cy="694.752" rx="20.633" ry="20.633"/>
									<path style="fill:#60AD0E;" d="M1087.197,715.84c0.179,5.017,4.391,8.94,9.408,8.761c5.017-0.179,8.939-4.391,8.761-9.408
										s-4.391-8.94-9.408-8.761S1087.018,710.823,1087.197,715.84z"/>
									<circle style="fill:#60AD0E;" cx="1110.454" cy="643.905" r="17.098"/>
									<path style="fill:#60AD0E;" d="M1102.955,670.154c0.359,10.071,8.814,17.944,18.884,17.585
										c10.071-0.359,17.944-8.814,17.585-18.884c-0.359-10.071-8.814-17.944-18.884-17.585
										C1110.469,651.629,1102.596,660.083,1102.955,670.154z"/>
									<path style="fill:#60AD0E;" d="M1116.888,619.829c0.405,11.362,9.943,20.244,21.305,19.839
										c11.362-0.405,20.244-9.943,19.839-21.305c-0.405-11.362-9.943-20.244-21.305-19.839
										C1125.365,598.929,1116.483,608.467,1116.888,619.829z"/>
									
										<ellipse transform="matrix(0.8807 -0.4736 0.4736 0.8807 -139.3445 627.4304)" style="fill:#60AD0E;" cx="1176.094" cy="590.384" rx="29.82" ry="29.82"/>
								</g>
								
									<ellipse transform="matrix(0.8861 -0.4634 0.4634 0.8861 -129.8557 643.3827)" style="fill:#60AD0E;" cx="1244.288" cy="585.934" rx="31.839" ry="31.84"/>
								
									<ellipse transform="matrix(0.669 -0.7433 0.7433 0.669 -49.1528 1096.3237)" style="fill:#60AD0E;" cx="1206.282" cy="603.346" rx="22.493" ry="22.493"/>
								<polygon style="fill:#60AD0E;" points="1103.848,764.88 1392.103,754.612 1392.955,704.949 1382.568,668.695 1362,658.744 
									1373.607,631.283 1345.02,611.703 1303.476,583.826 1228.605,592.942 1183.803,604.147 1171.778,601.254 1137.46,619.096 
									1117.071,633.071 1117.083,676.289 1095.624,697.075 								"/>
							</g>
						</g>
						<g>
							<g>
								<g>
									
										<ellipse transform="matrix(0.3025 -0.9531 0.9531 0.3025 498.0494 2050.5569)" style="fill:#60AD0E;" cx="1650.12" cy="684.973" rx="26.651" ry="26.651"/>
								</g>
								<g>
									
										<ellipse transform="matrix(0.9994 -0.0356 0.0356 0.9994 -21.8403 59.822)" style="fill:#60AD0E;" cx="1668.86" cy="643.178" rx="23.433" ry="25.061"/>
								</g>
								<g>
									
										<ellipse transform="matrix(0.5614 -0.8275 0.8275 0.5614 230.5567 1687.115)" style="fill:#60AD0E;" cx="1706.973" cy="626.041" rx="23.433" ry="23.433"/>
								</g>
								<g>
									
										<ellipse transform="matrix(0.9325 -0.3612 0.3612 0.9325 -86.7202 685.2635)" style="fill:#60AD0E;" cx="1789.616" cy="574.595" rx="23.433" ry="23.433"/>
								</g>
								<g>
									
										<ellipse transform="matrix(0.0051 -1 1 0.0051 1202.1069 2423.6492)" style="fill:#60AD0E;" cx="1819.126" cy="607.672" rx="23.433" ry="23.433"/>
								</g>
								<g>
									
										<ellipse transform="matrix(0.4534 -0.8913 0.8913 0.4534 453.9055 2002.3602)" style="fill:#60AD0E;" cx="1859.413" cy="631.125" rx="29.129" ry="29.129"/>
								</g>
								<g>
									
										<ellipse transform="matrix(0.9933 -0.1154 0.1154 0.9933 -70.6516 197.6757)" style="fill:#60AD0E;" cx="1671.196" cy="708.769" rx="35.88" ry="35.88"/>
								</g>
								<g>
									
										<ellipse transform="matrix(0.8189 -0.574 0.574 0.8189 -41.429 1219.9962)" style="fill:#60AD0E;" cx="1912.223" cy="675.637" rx="26.651" ry="26.651"/>
								</g>
								<g>
									<circle style="fill:#60AD0E;" cx="1890.499" cy="633.655" r="23.433"/>
								</g>
								<g>
									
										<ellipse transform="matrix(0.7071 -0.7071 0.7071 0.7071 58.8243 1543.7585)" style="fill:#60AD0E;" cx="1892.894" cy="700.872" rx="35.88" ry="35.88"/>
								</g>
								<g>
									
										<ellipse transform="matrix(0.7071 -0.7071 0.7071 0.7071 95.8648 1410.569)" style="fill:#60AD0E;" cx="1750.64" cy="589.565" rx="38.327" ry="38.327"/>
								</g>
								<path style="fill:#60AD0E;" d="M1895.978,736.664l-223.505,7.961l-3.015-84.641c2.772-4.595,38.317-61.229,107.911-64.585
									c71.712-3.458,112.944,52.867,115.594,56.623C1893.968,680.237,1894.973,708.451,1895.978,736.664z"/>
							</g>
						</g>
						<g>
							<g>
								
									<ellipse transform="matrix(0.999 -0.0458 0.0458 0.999 -31.5272 77.0742)" style="fill:#60AD0E;" cx="1666.778" cy="726.781" rx="18.036" ry="18.036"/>
								<path style="fill:#60AD0E;" d="M1683.458,700.006c0.234,6.557-4.892,12.062-11.449,12.295
									c-6.557,0.234-12.062-4.893-12.295-11.449c-0.234-6.557,4.892-12.062,11.449-12.295
									C1677.72,688.323,1683.224,693.449,1683.458,700.006z"/>
								
									<ellipse transform="matrix(0.158 -0.9874 0.9874 0.158 737.743 2207.5813)" style="fill:#60AD0E;" cx="1663.326" cy="671.202" rx="11.88" ry="11.88"/>
								<path style="fill:#60AD0E;" d="M1655.681,660.598c0.234,6.557-4.892,12.061-11.449,12.295
									c-6.557,0.233-12.061-4.893-12.295-11.449c-0.234-6.557,4.892-12.062,11.449-12.295
									C1649.943,648.915,1655.447,654.041,1655.681,660.598z"/>
								
									<ellipse transform="matrix(0.9988 -0.0489 0.0489 0.9988 -29.6253 80.0637)" style="fill:#60AD0E;" cx="1622.054" cy="645.708" rx="15.501" ry="15.501"/>
								
									<ellipse transform="matrix(0.3085 -0.9512 0.9512 0.3085 511.3272 1952.1669)" style="fill:#60AD0E;" cx="1598.35" cy="624.396" rx="26.023" ry="26.023"/>
								<path style="fill:#60AD0E;" d="M1672.908,685.4c0.089,2.503-1.868,4.605-4.371,4.694c-2.503,0.089-4.605-1.868-4.694-4.371
									c-0.089-2.503,1.868-4.605,4.371-4.694C1670.717,680.94,1672.818,682.897,1672.908,685.4z"/>
								
									<ellipse transform="matrix(0.1736 -0.9848 0.9848 0.1736 517.7745 2082.467)" style="fill:#60AD0E;" cx="1499.66" cy="732.734" rx="18.036" ry="18.036"/>
								
									<ellipse transform="matrix(0.0927 -0.9957 0.9957 0.0927 650.9 2127.8662)" style="fill:#60AD0E;" cx="1492.99" cy="706.791" rx="11.88" ry="11.88"/>
								<path style="fill:#60AD0E;" d="M1487.277,677.473c0.234,6.557,5.738,11.683,12.295,11.449
									c6.557-0.234,11.683-5.738,11.449-12.295c-0.234-6.557-5.738-11.683-12.295-11.449
									C1492.17,665.411,1487.043,670.916,1487.277,677.473z"/>
								
									<ellipse transform="matrix(0.8287 -0.5598 0.5598 0.8287 -112.4387 963.6927)" style="fill:#60AD0E;" cx="1517.892" cy="665.506" rx="11.88" ry="11.88"/>
								<circle style="fill:#60AD0E;" cx="1538.503" cy="648.684" r="15.501"/>
								<path style="fill:#60AD0E;" d="M1490.602,691.894c0.089,2.503,2.191,4.46,4.694,4.371c2.503-0.089,4.46-2.191,4.371-4.694
									c-0.089-2.503-2.191-4.46-4.694-4.371C1492.469,687.289,1490.513,689.391,1490.602,691.894z"/>
								
									<ellipse transform="matrix(0.9981 -0.0616 0.0616 0.9981 -36.6585 97.405)" style="fill:#60AD0E;" cx="1561.072" cy="643.113" rx="16.377" ry="16.377"/>
								<polygon style="fill:#60AD0E;" points="1500.302,750.758 1667.42,744.806 1667.931,714.564 1671.214,689.999 
									1651.206,664.69 1613.666,634.104 1591.419,625.644 1557.181,645.357 1532.183,656.931 1516.85,668.305 1500.509,675.674 
									1493.877,700.262 								"/>
							</g>
						</g>
						<g>
							<g>
								<path style="fill:#60AD0E;" d="M983.214,759.676c0.187,5.241-3.91,9.64-9.151,9.827c-5.241,0.187-9.64-3.91-9.827-9.151
									c-0.187-5.241,3.91-9.64,9.151-9.827C978.628,750.338,983.028,754.435,983.214,759.676z"/>
								
									<ellipse transform="matrix(0.6605 -0.7508 0.7508 0.6605 -219.8849 981.9077)" style="fill:#60AD0E;" cx="975.875" cy="734.108" rx="19.502" ry="19.502"/>
								<path style="fill:#60AD0E;" d="M989.926,708.518c0.221,6.214-4.636,11.43-10.85,11.651
									c-6.214,0.221-11.43-4.636-11.651-10.85c-0.221-6.214,4.636-11.43,10.85-11.651
									C984.488,697.447,989.705,702.304,989.926,708.518z"/>
								<path style="fill:#60AD0E;" d="M1008.34,688.803c0.325,9.132-6.814,16.799-15.946,17.124
									c-9.132,0.325-16.798-6.814-17.124-15.946s6.814-16.798,15.946-17.124S1008.015,679.671,1008.34,688.803z"/>
								
									<ellipse transform="matrix(0.6815 -0.7318 0.7318 0.6815 -166.6084 959.0311)" style="fill:#60AD0E;" cx="1018.456" cy="670.92" rx="21.662" ry="21.662"/>
								
									<ellipse transform="matrix(0.6815 -0.7318 0.7318 0.6815 -169.2853 986.6703)" style="fill:#60AD0E;" cx="1048.869" cy="687.814" rx="17" ry="17"/>
								
									<ellipse transform="matrix(0.9453 -0.3261 0.3261 0.9453 -168.1048 390.9234)" style="fill:#60AD0E;" cx="1081.887" cy="696.839" rx="21.589" ry="21.589"/>
								
									<ellipse transform="matrix(0.9934 -0.1143 0.1143 0.9934 -72.8262 132.1933)" style="fill:#60AD0E;" cx="1116.509" cy="701.25" rx="18.507" ry="18.507"/>
								
									<ellipse transform="matrix(0.829 -0.5592 0.5592 0.829 -217.1529 749.8961)" style="fill:#60AD0E;" cx="1117.706" cy="730.052" rx="17.654" ry="17.654"/>
								<path style="fill:#60AD0E;" d="M1117.766,751.697c0.24,6.747-5.034,12.411-11.781,12.652
									c-6.747,0.24-12.411-5.034-12.651-11.781c-0.24-6.747,5.034-12.411,11.781-12.652S1117.525,744.95,1117.766,751.697z"/>
								<path style="fill:#60AD0E;" d="M1107.595,764.185l-133.552,4.757l-1.741-48.867c4.092-6.79,17.89-27.689,44.187-35.659
									c30.764-9.324,66.134,2.836,89.365,30.902C1106.435,731.607,1107.015,747.896,1107.595,764.185z"/>
							</g>
						</g>
						<g>
							<g>
								<path style="fill:#60AD0E;" d="M1386.503,745.311c0.187,5.241-3.91,9.64-9.151,9.827c-5.241,0.187-9.64-3.91-9.827-9.151
									c-0.187-5.241,3.911-9.64,9.151-9.827C1381.916,735.973,1386.316,740.07,1386.503,745.311z"/>
								
									<ellipse transform="matrix(0.0551 -0.9985 0.9985 0.0551 584.5808 2057.188)" style="fill:#60AD0E;" cx="1379.163" cy="719.743" rx="19.502" ry="19.502"/>
								<path style="fill:#60AD0E;" d="M1393.214,694.153c0.221,6.213-4.636,11.43-10.85,11.651
									c-6.214,0.221-11.43-4.636-11.651-10.85c-0.221-6.213,4.636-11.43,10.85-11.651
									C1387.777,683.082,1392.993,687.939,1393.214,694.153z"/>
								
									<ellipse transform="matrix(0.987 -0.1606 0.1606 0.987 -90.3166 232.8685)" style="fill:#60AD0E;" cx="1395.093" cy="675.027" rx="16.545" ry="16.545"/>
								
									<ellipse transform="matrix(0.6848 -0.7287 0.7287 0.6848 -30.3463 1242.9451)" style="fill:#60AD0E;" cx="1421.744" cy="656.555" rx="21.662" ry="21.662"/>
								
									<ellipse transform="matrix(0.1464 -0.9892 0.9892 0.1464 573.4023 2011.3898)" style="fill:#60AD0E;" cx="1452.157" cy="673.449" rx="17" ry="17"/>
								
									<ellipse transform="matrix(0.6868 -0.7269 0.7269 0.6868 -30.8835 1293.2782)" style="fill:#60AD0E;" cx="1485.175" cy="682.474" rx="21.589" ry="21.589"/>
								
									<ellipse transform="matrix(0.3998 -0.9166 0.9166 0.3998 282.5489 1805.2811)" style="fill:#60AD0E;" cx="1519.797" cy="686.885" rx="18.507" ry="18.507"/>
								
									<ellipse transform="matrix(0.6789 -0.7343 0.7343 0.6789 -37.0583 1346.6406)" style="fill:#60AD0E;" cx="1520.994" cy="715.687" rx="17.654" ry="17.654"/>
								<path style="fill:#60AD0E;" d="M1521.054,737.332c0.24,6.747-5.034,12.411-11.781,12.651
									c-6.747,0.24-12.411-5.034-12.651-11.781c-0.24-6.747,5.034-12.411,11.781-12.652S1520.814,730.585,1521.054,737.332z"/>
								<path style="fill:#60AD0E;" d="M1510.884,749.82l-133.552,4.757l-1.741-48.867c4.092-6.79,17.89-27.689,44.187-35.659
									c30.764-9.324,66.135,2.836,89.365,30.902C1509.723,717.242,1510.303,733.531,1510.884,749.82z"/>
							</g>
						</g>
					</g>
				</g>
			</g>
			<path style="fill:#60AD0E;" d="M1982.963,709.958c29.703,21.165,47.798,34.45,47.591,53.462
				c-1.47,134.833-920.742,303.109-1807.796,189.401c-327.988-42.044-821.534-144.42-817.005-229.516
				c4.186-78.65,432.144-167.958,828.4-111.127c137.49,19.719,177.417,43.586,397.675,74.655
				c158.313,22.331,315.055,35.021,526.471,40.357C1578.167,737.788,1790.704,572.962,1982.963,709.958z"/>
		</g>
		<g>
			<g>
				<g>
					<g>
						<g>
							<g>
								<g>
									
										<ellipse transform="matrix(0.7657 -0.6432 0.6432 0.7657 512.3408 2716.4827)" style="fill:#60AD0E;" cx="3984.769" cy="655.011" rx="23.485" ry="23.485"/>
									
										<ellipse transform="matrix(0.0487 -0.9988 0.9988 0.0487 3181.9282 4556.4976)" style="fill:#60AD0E;" cx="3983.047" cy="607.791" rx="20.633" ry="20.633"/>
									<path style="fill:#60AD0E;" d="M3972.191,627.703c-0.435,5.001,3.267,9.409,8.269,9.843
										c5.001,0.435,9.408-3.267,9.843-8.269c0.435-5.001-3.267-9.408-8.269-9.843
										C3977.033,618.999,3972.626,622.701,3972.191,627.703z"/>
									
										<ellipse transform="matrix(0.7657 -0.6432 0.6432 0.7657 578.5219 2706.4248)" style="fill:#60AD0E;" cx="4004.053" cy="559.143" rx="17.098" ry="17.098"/>
									
										<ellipse transform="matrix(0.0475 -0.9989 0.9989 0.0475 3235.8618 4565.0952)" style="fill:#60AD0E;" cx="4011.585" cy="585.862" rx="18.246" ry="18.247"/>
									
										<ellipse transform="matrix(0.4327 -0.9015 0.9015 0.4327 1803.6047 3941.8306)" style="fill:#60AD0E;" cx="4033.884" cy="537.815" rx="20.585" ry="20.585"/>
									
										<ellipse transform="matrix(0.7657 -0.6432 0.6432 0.7657 624.3333 2741.9612)" style="fill:#60AD0E;" cx="4075.733" cy="514.032" rx="29.82" ry="29.819"/>
								</g>
								<g>
									
										<ellipse transform="matrix(0.7657 -0.6432 0.6432 0.7657 563.033 2905.0564)" style="fill:#60AD0E;" cx="4268.948" cy="679.719" rx="23.485" ry="23.485"/>
									
										<ellipse transform="matrix(0.6738 -0.7389 0.7389 0.6738 927.5051 3368.1462)" style="fill:#60AD0E;" cx="4278.793" cy="633.504" rx="20.633" ry="20.633"/>
									<path style="fill:#60AD0E;" d="M4286.05,654.991c-0.435,5.002-4.842,8.703-9.843,8.269
										c-5.001-0.435-8.704-4.842-8.269-9.843c0.435-5.001,4.842-8.703,9.843-8.269
										C4282.783,645.582,4286.484,649.989,4286.05,654.991z"/>
									
										<ellipse transform="matrix(0.7657 -0.6432 0.6432 0.7657 625.3372 2880.5769)" style="fill:#60AD0E;" cx="4266.499" cy="581.961" rx="17.098" ry="17.098"/>
									
										<ellipse transform="matrix(0.7657 -0.6432 0.6432 0.7657 606.4272 2878.7009)" style="fill:#60AD0E;" cx="4254.469" cy="606.979" rx="18.247" ry="18.247"/>
									
										<ellipse transform="matrix(0.0433 -0.9991 0.9991 0.0433 3501.9717 4768.5718)" style="fill:#60AD0E;" cx="4240.796" cy="555.805" rx="20.585" ry="20.585"/>
									
										<ellipse transform="matrix(0.3391 -0.9407 0.9407 0.3391 2284.0012 4301.6025)" style="fill:#60AD0E;" cx="4203.68" cy="525.156" rx="29.82" ry="29.82"/>
								</g>
								
									<ellipse transform="matrix(0.1651 -0.9863 0.9863 0.1651 2942.7017 4510.8335)" style="fill:#60AD0E;" cx="4135.802" cy="517.227" rx="31.84" ry="31.84"/>
								
									<ellipse transform="matrix(0.7908 -0.6121 0.6121 0.7908 544.6388 2666.5063)" style="fill:#60AD0E;" cx="4172.869" cy="536.559" rx="22.493" ry="22.493"/>
								<polygon style="fill:#60AD0E;" points="4266.914,703.115 3979.561,678.132 3981.248,628.49 3993.474,592.814 
									4014.523,583.927 4004.334,555.909 4033.884,537.815 4076.799,512.097 4151.106,525.027 4195.277,538.507 4207.435,536.232 
									4240.796,555.805 4260.444,570.803 4258.223,613.964 4278.592,635.819 								"/>
							</g>
						</g>
						<g>
							<g>
								<g>
									
										<ellipse transform="matrix(0.7071 -0.7071 0.7071 0.7071 670.1447 2808.6716)" style="fill:#60AD0E;" cx="3725.439" cy="595.4" rx="26.651" ry="26.651"/>
								</g>
								<g>
									
										<ellipse transform="matrix(0.0866 -0.9962 0.9962 0.0866 2836.9736 4199.7456)" style="fill:#60AD0E;" cx="3708.86" cy="552.701" rx="25.061" ry="23.433"/>
								</g>
								<g>
									
										<ellipse transform="matrix(0.623 -0.7823 0.7823 0.623 966.9564 3073.4138)" style="fill:#60AD0E;" cx="3671.672" cy="533.639" rx="23.433" ry="23.433"/>
								</g>
								<g>
									
										<ellipse transform="matrix(0.7657 -0.6432 0.6432 0.7657 534.0888 2422.2373)" style="fill:#60AD0E;" cx="3591.766" cy="478.038" rx="23.433" ry="23.433"/>
								</g>
								<g>
									
										<ellipse transform="matrix(0.7657 -0.6432 0.6432 0.7657 506.5101 2409.5803)" style="fill:#60AD0E;" cx="3560.604" cy="509.563" rx="23.433" ry="23.433"/>
								</g>
								<g>
									
										<ellipse transform="matrix(0.7657 -0.6432 0.6432 0.7657 483.0598 2387.9348)" style="fill:#60AD0E;" cx="3519.171" cy="530.927" rx="29.129" ry="29.129"/>
								</g>
								<g>
									
										<ellipse transform="matrix(0.3077 -0.9515 0.9515 0.3077 1975.749 3951.4836)" style="fill:#60AD0E;" cx="3703.175" cy="618.087" rx="35.88" ry="35.88"/>
								</g>
								<g>
									
										<ellipse transform="matrix(0.7071 -0.7071 0.7071 0.7071 609.6799 2617.2627)" style="fill:#60AD0E;" cx="3464.156" cy="572.683" rx="26.651" ry="26.651"/>
								</g>
								<g>
									
										<ellipse transform="matrix(0.5907 -0.8069 0.8069 0.5907 998.5036 3032.1494)" style="fill:#60AD0E;" cx="3487.996" cy="531.865" rx="23.433" ry="23.433"/>
								</g>
								<g>
									
										<ellipse transform="matrix(0.7071 -0.7071 0.7071 0.7071 596.4377 2637.6716)" style="fill:#60AD0E;" cx="3482.17" cy="598.872" rx="35.88" ry="35.88"/>
								</g>
								<g>
									
										<ellipse transform="matrix(0.0755 -0.9971 0.9971 0.0755 2862.2666 4077.167)" style="fill:#60AD0E;" cx="3629.926" cy="494.98" rx="38.327" ry="38.327"/>
								</g>
								<path style="fill:#60AD0E;" d="M3477.261,634.46l222.806,19.372l7.336-84.377c-2.534-4.731-35.138-63.107-104.47-70.014
									c-71.442-7.118-115.499,47.026-118.336,50.643C3482.152,578.209,3479.706,606.335,3477.261,634.46z"/>
							</g>
						</g>
						<g>
							<g>
								
									<ellipse transform="matrix(0.9563 -0.2922 0.2922 0.9563 -24.143 1110.9767)" style="fill:#60AD0E;" cx="3706.667" cy="636.301" rx="18.036" ry="18.036"/>
								<path style="fill:#60AD0E;" d="M3691.377,608.709c-0.568,6.536,4.27,12.296,10.806,12.864
									c6.536,0.568,12.296-4.27,12.864-10.806c0.568-6.536-4.27-12.296-10.806-12.864S3691.945,602.173,3691.377,608.709z"/>
								<path style="fill:#60AD0E;" d="M3701.119,579.942c-0.568,6.536,4.27,12.296,10.806,12.864
									c6.537,0.568,12.296-4.27,12.864-10.806c0.568-6.536-4.27-12.296-10.806-12.864S3701.688,573.406,3701.119,579.942z"/>
								<path style="fill:#60AD0E;" d="M3721.131,570.772c-0.568,6.536,4.27,12.296,10.806,12.864
									c6.536,0.568,12.296-4.27,12.864-10.806c0.568-6.536-4.27-12.296-10.806-12.864S3721.699,564.235,3721.131,570.772z"/>
								
									<ellipse transform="matrix(0.9995 -0.0324 0.0324 0.9995 -16.0964 121.981)" style="fill:#60AD0E;" cx="3755.475" cy="557.619" rx="15.501" ry="15.501"/>
								
									<ellipse transform="matrix(0.1001 -0.995 0.995 0.1001 2867.0767 4245.0103)" style="fill:#60AD0E;" cx="3780.237" cy="537.547" rx="26.023" ry="26.023"/>
								<path style="fill:#60AD0E;" d="M3702.659,594.661c-0.217,2.495,1.63,4.694,4.125,4.911c2.495,0.217,4.694-1.63,4.911-4.125
									c0.217-2.495-1.63-4.694-4.125-4.911C3705.075,590.319,3702.876,592.166,3702.659,594.661z"/>
								
									<ellipse transform="matrix(0.7657 -0.6432 0.6432 0.7657 488.9339 2643.7744)" style="fill:#60AD0E;" cx="3873.262" cy="650.786" rx="18.036" ry="18.036"/>
								
									<ellipse transform="matrix(0.5335 -0.8458 0.8458 0.5335 1281.8065 3574.4358)" style="fill:#60AD0E;" cx="3881.249" cy="625.217" rx="11.88" ry="11.88"/>
								
									<ellipse transform="matrix(0.945 -0.327 0.327 0.945 18.4893 1300.3773)" style="fill:#60AD0E;" cx="3876.617" cy="595.201" rx="11.88" ry="11.88"/>
								<path style="fill:#60AD0E;" d="M3870.324,583.743c-0.568,6.536-6.328,11.374-12.864,10.806s-11.374-6.328-10.806-12.864
									c0.568-6.536,6.328-11.374,12.864-10.806C3866.054,571.447,3870.892,577.207,3870.324,583.743z"/>
								
									<ellipse transform="matrix(0.9995 -0.0324 0.0324 0.9995 -16.2873 124.6835)" style="fill:#60AD0E;" cx="3838.765" cy="564.861" rx="15.501" ry="15.501"/>
								<path style="fill:#60AD0E;" d="M3884.395,610.462c-0.217,2.495-2.416,4.342-4.911,4.125
									c-2.495-0.217-4.342-2.416-4.125-4.911c0.217-2.495,2.416-4.342,4.911-4.125
									C3882.765,605.768,3884.612,607.967,3884.395,610.462z"/>
								
									<ellipse transform="matrix(0.3653 -0.9309 0.9309 0.3653 1902.9155 3907.0881)" style="fill:#60AD0E;" cx="3816.51" cy="558.144" rx="16.377" ry="16.377"/>
								<polygon style="fill:#60AD0E;" points="3871.7,668.754 3705.104,654.27 3706.139,624.041 3704.116,599.341 3725.39,575.087 
									3764.445,546.46 3787.095,539.148 3820.281,560.583 3844.655,573.42 3859.386,585.563 3875.33,593.757 3880.696,618.652 
																	"/>
							</g>
						</g>
						<g>
							<g>
								<path style="fill:#60AD0E;" d="M4387.656,704.082c-0.454,5.224,3.413,9.828,8.637,10.282
									c5.225,0.454,9.828-3.413,10.282-8.637c0.454-5.224-3.413-9.828-8.637-10.282
									C4392.714,694.991,4388.11,698.858,4387.656,704.082z"/>
								
									<ellipse transform="matrix(0.7657 -0.6432 0.6432 0.7657 593.3798 2986.7747)" style="fill:#60AD0E;" cx="4396.292" cy="678.923" rx="19.502" ry="19.502"/>
								<path style="fill:#60AD0E;" d="M4383.567,652.648c-0.539,6.194,4.046,11.652,10.24,12.19
									c6.194,0.539,11.652-4.046,12.19-10.24c0.539-6.194-4.046-11.652-10.24-12.19
									C4389.564,641.87,4384.106,646.454,4383.567,652.648z"/>
								<path style="fill:#60AD0E;" d="M4366.185,632.018c-0.791,9.103,5.947,17.125,15.05,17.916
									c9.103,0.791,17.125-5.947,17.916-15.05c0.792-9.103-5.947-17.125-15.05-17.916
									C4374.998,616.177,4366.977,622.915,4366.185,632.018z"/>
								
									<ellipse transform="matrix(0.0729 -0.9973 0.9973 0.0729 3427.4407 4914.3276)" style="fill:#60AD0E;" cx="4356.997" cy="613.641" rx="21.662" ry="21.662"/>
								
									<ellipse transform="matrix(0.7657 -0.6432 0.6432 0.7657 608.991 2929.7029)" style="fill:#60AD0E;" cx="4325.759" cy="628.96" rx="17" ry="17"/>
								
									<ellipse transform="matrix(0.1264 -0.992 0.992 0.1264 3118.6309 4813.7666)" style="fill:#60AD0E;" cx="4292.324" cy="636.286" rx="21.589" ry="21.589"/>
								
									<ellipse transform="matrix(1 -0.0072 0.0072 1 -4.4988 30.7331)" style="fill:#60AD0E;" cx="4257.521" cy="638.921" rx="18.507" ry="18.507"/>
								
									<ellipse transform="matrix(0.3524 -0.9358 0.9358 0.3524 2130.5247 4414.187)" style="fill:#60AD0E;" cx="4254.854" cy="667.625" rx="17.654" ry="17.654"/>
								<path style="fill:#60AD0E;" d="M4253.688,689.239c-0.585,6.726,4.394,12.652,11.119,13.237
									c6.726,0.585,12.652-4.393,13.237-11.119c0.585-6.726-4.394-12.652-11.12-13.237
									C4260.2,677.534,4254.273,682.513,4253.688,689.239z"/>
								<path style="fill:#60AD0E;" d="M4263.208,702.23l133.134,11.575l4.235-48.714c-3.74-6.99-16.452-28.567-42.307-37.87
									c-30.247-10.883-66.193-0.547-90.827,26.295C4266.031,669.754,4264.619,685.992,4263.208,702.23z"/>
							</g>
						</g>
						<g>
							<g>
								<path style="fill:#60AD0E;" d="M3985.629,669.129c-0.454,5.224,3.413,9.828,8.637,10.282
									c5.224,0.454,9.828-3.413,10.282-8.637c0.454-5.224-3.413-9.828-8.637-10.282
									C3990.687,660.037,3986.083,663.904,3985.629,669.129z"/>
								
									<ellipse transform="matrix(0.7657 -0.6432 0.6432 0.7657 521.666 2720.0005)" style="fill:#60AD0E;" cx="3994.265" cy="643.969" rx="19.502" ry="19.502"/>
								<path style="fill:#60AD0E;" d="M3981.54,617.695c-0.538,6.194,4.046,11.652,10.24,12.19s11.652-4.046,12.19-10.24
									c0.539-6.194-4.046-11.652-10.24-12.19C3987.537,606.916,3982.079,611.5,3981.54,617.695z"/>
								
									<ellipse transform="matrix(0.9797 -0.2003 0.2003 0.9797 -39.2124 809.403)" style="fill:#60AD0E;" cx="3980.641" cy="598.497" rx="16.545" ry="16.545"/>
								
									<ellipse transform="matrix(0.7657 -0.6432 0.6432 0.7657 554.4473 2679.4285)" style="fill:#60AD0E;" cx="3954.969" cy="578.688" rx="21.662" ry="21.662"/>
								<path style="fill:#60AD0E;" d="M3906.796,592.534c-0.813,9.354,6.11,17.595,15.464,18.409
									c9.354,0.813,17.595-6.11,18.409-15.464c0.813-9.354-6.11-17.595-15.464-18.409
									C3915.851,576.257,3907.609,583.18,3906.796,592.534z"/>
								
									<ellipse transform="matrix(0.9227 -0.3854 0.3854 0.9227 68.821 1545.965)" style="fill:#60AD0E;" cx="3890.296" cy="601.332" rx="21.589" ry="21.589"/>
								
									<ellipse transform="matrix(0.794 -0.6079 0.6079 0.794 426.9229 2467.9714)" style="fill:#60AD0E;" cx="3855.494" cy="603.968" rx="18.507" ry="18.507"/>
								
									<ellipse transform="matrix(0.8853 -0.4649 0.4649 0.8853 147.5927 1863.8439)" style="fill:#60AD0E;" cx="3852.827" cy="632.671" rx="17.654" ry="17.654"/>
								
									<ellipse transform="matrix(0.2393 -0.971 0.971 0.2393 2302.9841 4250.1265)" style="fill:#60AD0E;" cx="3863.839" cy="655.344" rx="12.224" ry="12.224"/>
								<path style="fill:#60AD0E;" d="M3861.18,667.276l133.134,11.575l4.235-48.714c-3.74-6.99-16.452-28.567-42.307-37.87
									c-30.247-10.883-66.193-0.547-90.827,26.295C3864.004,634.8,3862.592,651.038,3861.18,667.276z"/>
							</g>
						</g>
					</g>
				</g>
				<g>
					<g>
						<g>
							<g>
								<g>
									
										<ellipse transform="matrix(0.7071 -0.7071 0.7071 0.7071 464.0284 2531.3357)" style="fill:#60AD0E;" cx="3287.607" cy="705.536" rx="23.485" ry="23.485"/>
									
										<ellipse transform="matrix(0.7071 -0.7071 0.7071 0.7071 496.1019 2514.627)" style="fill:#60AD0E;" cx="3283.474" cy="658.466" rx="20.633" ry="20.633"/>
									<path style="fill:#60AD0E;" d="M3273.65,678.906c-0.179,5.017,3.744,9.229,8.761,9.408s9.229-3.744,9.408-8.761
										s-3.744-9.229-8.761-9.408S3273.829,673.889,3273.65,678.906z"/>
									<circle style="fill:#60AD0E;" cx="3301.967" cy="608.808" r="17.098"/>
									
										<ellipse transform="matrix(0.2697 -0.9629 0.9629 0.2697 1806.2098 3651.9199)" style="fill:#60AD0E;" cx="3310.854" cy="635.107" rx="18.247" ry="18.246"/>
									
										<ellipse transform="matrix(0.8611 -0.5084 0.5084 0.8611 164.5875 1774.5377)" style="fill:#60AD0E;" cx="3330.669" cy="585.984" rx="20.585" ry="20.585"/>
									
										<ellipse transform="matrix(0.737 -0.6759 0.6759 0.737 508.1193 2425.9739)" style="fill:#60AD0E;" cx="3371.248" cy="560.093" rx="29.82" ry="29.82"/>
								</g>
								<g>
									
										<ellipse transform="matrix(0.7071 -0.7071 0.7071 0.7071 540.3435 2735.8848)" style="fill:#60AD0E;" cx="3572.677" cy="715.69" rx="23.485" ry="23.485"/>
									<circle style="fill:#60AD0E;" cx="3580.148" cy="669.033" r="20.633"/>
									<path style="fill:#60AD0E;" d="M3588.493,690.121c-0.179,5.017-4.391,8.94-9.408,8.761s-8.939-4.391-8.761-9.408
										c0.179-5.017,4.391-8.939,9.408-8.761C3584.749,680.891,3588.671,685.104,3588.493,690.121z"/>
									
										<ellipse transform="matrix(0.7318 -0.6815 0.6815 0.7318 534.8051 2595.4436)" style="fill:#60AD0E;" cx="3565.235" cy="618.186" rx="17.098" ry="17.098"/>
									
										<ellipse transform="matrix(0.7318 -0.6815 0.6815 0.7318 514.4821 2594.9954)" style="fill:#60AD0E;" cx="3554.5" cy="643.785" rx="18.246" ry="18.246"/>
									<circle style="fill:#60AD0E;" cx="3538.229" cy="593.377" r="20.585"/>
									
										<ellipse transform="matrix(0.7318 -0.6815 0.6815 0.7318 553.6786 2536.3618)" style="fill:#60AD0E;" cx="3499.596" cy="564.665" rx="29.82" ry="29.82"/>
								</g>
								
									<ellipse transform="matrix(0.99 -0.1407 0.1407 0.99 -44.6888 488.4327)" style="fill:#60AD0E;" cx="3431.401" cy="560.214" rx="31.84" ry="31.84"/>
								
									<ellipse transform="matrix(0.2764 -0.961 0.961 0.2764 1955.3098 3752.2056)" style="fill:#60AD0E;" cx="3469.408" cy="577.627" rx="22.493" ry="22.493"/>
								<polygon style="fill:#60AD0E;" points="3571.841,739.16 3283.587,728.893 3282.735,679.23 3293.122,642.976 
									3313.689,633.024 3302.082,605.563 3330.669,585.984 3372.213,558.106 3447.084,567.222 3491.887,578.428 3503.912,575.535 
									3538.229,593.377 3558.619,607.352 3558.606,650.57 3580.065,671.355 								"/>
							</g>
						</g>
						<g>
							<g>
								<g>
									
										<ellipse transform="matrix(0.9912 -0.1325 0.1325 0.9912 -65.8446 411.1443)" style="fill:#60AD0E;" cx="3056.101" cy="700.278" rx="26.651" ry="26.651"/>
								</g>
								<g>
									
										<ellipse transform="matrix(0.0356 -0.9994 0.9994 0.0356 2271.1597 3670.4758)" style="fill:#60AD0E;" cx="3037.361" cy="658.483" rx="25.061" ry="23.433"/>
								</g>
								<g>
									
										<ellipse transform="matrix(0.7443 -0.6679 0.6679 0.7443 338.6829 2167.1917)" style="fill:#60AD0E;" cx="2999.248" cy="641.346" rx="23.433" ry="23.433"/>
								</g>
								<g>
									
										<ellipse transform="matrix(0.7443 -0.6679 0.6679 0.7443 351.9077 2098.8386)" style="fill:#60AD0E;" cx="2916.605" cy="589.9" rx="23.433" ry="23.433"/>
								</g>
								<g>
									
										<ellipse transform="matrix(0.7071 -0.7071 0.7071 0.7071 405.0993 2223.9502)" style="fill:#60AD0E;" cx="2887.095" cy="622.977" rx="23.433" ry="23.433"/>
								</g>
								<g>
									
										<ellipse transform="matrix(0.9053 -0.4248 0.4248 0.9053 -4.9441 1270.6884)" style="fill:#60AD0E;" cx="2846.808" cy="646.43" rx="29.129" ry="29.129"/>
								</g>
								<g>
									
										<ellipse transform="matrix(0.7071 -0.7071 0.7071 0.7071 376.9409 2358.1631)" style="fill:#60AD0E;" cx="3035.025" cy="724.074" rx="35.88" ry="35.88"/>
								</g>
								<g>
									
										<ellipse transform="matrix(0.2958 -0.9552 0.9552 0.2958 1307.4688 3155.5027)" style="fill:#60AD0E;" cx="2793.998" cy="690.942" rx="26.651" ry="26.651"/>
								</g>
								<g>
									
										<ellipse transform="matrix(0.3527 -0.9358 0.9358 0.3527 1215.4813 3054.9248)" style="fill:#60AD0E;" cx="2815.722" cy="648.96" rx="23.433" ry="23.433"/>
								</g>
								<g>
									
										<ellipse transform="matrix(0.8609 -0.5088 0.5088 0.8609 26.9821 1531.0391)" style="fill:#60AD0E;" cx="2813.328" cy="716.177" rx="35.88" ry="35.88"/>
								</g>
								<g>
									
										<ellipse transform="matrix(0.7071 -0.7071 0.7071 0.7071 437.9619 2267.0742)" style="fill:#60AD0E;" cx="2955.582" cy="604.87" rx="38.327" ry="38.327"/>
								</g>
								<path style="fill:#60AD0E;" d="M2810.243,751.969l223.505,7.961l3.015-84.641c-2.772-4.595-38.316-61.229-107.911-64.585
									c-71.712-3.458-112.945,52.867-115.594,56.623C2812.253,695.542,2811.248,723.756,2810.243,751.969z"/>
							</g>
						</g>
						<g>
							<g>
								
									<ellipse transform="matrix(0.9995 -0.0312 0.0312 0.9995 -20.4046 94.2013)" style="fill:#60AD0E;" cx="3008.911" cy="701.062" rx="18.036" ry="18.036"/>
								<path style="fill:#60AD0E;" d="M2992.231,674.287c-0.233,6.557,4.893,12.061,11.449,12.295
									c6.557,0.233,12.061-4.893,12.295-11.449c0.234-6.557-4.892-12.061-11.449-12.295
									C2997.97,662.604,2992.465,667.73,2992.231,674.287z"/>
								
									<ellipse transform="matrix(0.9873 -0.1589 0.1589 0.9873 -64.2927 486.8381)" style="fill:#60AD0E;" cx="3012.364" cy="645.482" rx="11.88" ry="11.88"/>
								
									<ellipse transform="matrix(0.9873 -0.1589 0.1589 0.9873 -62.427 489.8098)" style="fill:#60AD0E;" cx="3031.881" cy="635.301" rx="11.88" ry="11.88"/>
								
									<ellipse transform="matrix(0.0301 -0.9995 0.9995 0.0301 2342.0352 3653.5835)" style="fill:#60AD0E;" cx="3053.635" cy="619.988" rx="15.501" ry="15.501"/>
								
									<ellipse transform="matrix(0.8031 -0.5959 0.5959 0.8031 249.2253 1951.5262)" style="fill:#60AD0E;" cx="3077.339" cy="598.677" rx="26.023" ry="26.023"/>
								<path style="fill:#60AD0E;" d="M3002.782,659.681c-0.089,2.503,1.868,4.605,4.371,4.694
									c2.503,0.089,4.605-1.868,4.694-4.371c0.089-2.503-1.868-4.605-4.371-4.694
									C3004.972,655.221,3002.871,657.178,3002.782,659.681z"/>
								
									<ellipse transform="matrix(0.7071 -0.7071 0.7071 0.7071 430.3029 2452.8716)" style="fill:#60AD0E;" cx="3176.029" cy="707.014" rx="18.036" ry="18.036"/>
								
									<ellipse transform="matrix(0.9873 -0.1589 0.1589 0.9873 -67.7835 514.3551)" style="fill:#60AD0E;" cx="3182.7" cy="681.071" rx="11.88" ry="11.88"/>
								<path style="fill:#60AD0E;" d="M3188.412,651.753c-0.234,6.557-5.738,11.683-12.295,11.449
									c-6.557-0.234-11.683-5.738-11.449-12.295c0.234-6.557,5.738-11.683,12.295-11.449
									C3183.52,639.692,3188.646,645.196,3188.412,651.753z"/>
								<path style="fill:#60AD0E;" d="M3169.669,640.209c-0.234,6.557-5.738,11.683-12.295,11.449
									c-6.557-0.234-11.683-5.738-11.449-12.295c0.233-6.557,5.738-11.683,12.295-11.449
									C3164.777,628.148,3169.903,633.652,3169.669,640.209z"/>
								
									<ellipse transform="matrix(0.1771 -0.9842 0.9842 0.1771 1968.4884 3600.2397)" style="fill:#60AD0E;" cx="3137.187" cy="622.964" rx="15.501" ry="15.501"/>
								<path style="fill:#60AD0E;" d="M3185.088,666.174c-0.089,2.503-2.191,4.46-4.694,4.371c-2.503-0.089-4.46-2.191-4.371-4.694
									c0.089-2.503,2.19-4.46,4.694-4.371C3183.22,661.57,3185.177,663.671,3185.088,666.174z"/>
								
									<ellipse transform="matrix(0.7071 -0.7071 0.7071 0.7071 475.6876 2383.1975)" style="fill:#60AD0E;" cx="3114.618" cy="617.393" rx="16.377" ry="16.377"/>
								<polygon style="fill:#60AD0E;" points="3175.387,725.039 3008.269,719.086 3007.758,688.844 3004.475,664.279 
									3024.483,638.971 3062.023,608.385 3084.271,599.925 3118.508,619.637 3143.507,631.212 3158.839,642.586 3175.18,649.954 
									3181.812,674.542 								"/>
							</g>
						</g>
						<g>
							<g>
								<path style="fill:#60AD0E;" d="M3692.475,733.956c-0.187,5.241,3.91,9.64,9.151,9.827c5.241,0.187,9.64-3.91,9.827-9.151
									c0.187-5.241-3.91-9.64-9.151-9.827C3697.061,724.619,3692.662,728.716,3692.475,733.956z"/>
								
									<ellipse transform="matrix(0.9048 -0.4259 0.4259 0.9048 50.5868 1643.0425)" style="fill:#60AD0E;" cx="3699.814" cy="708.388" rx="19.502" ry="19.502"/>
								<path style="fill:#60AD0E;" d="M3685.763,682.798c-0.221,6.214,4.636,11.43,10.85,11.651
									c6.213,0.221,11.43-4.636,11.651-10.85c0.221-6.213-4.636-11.43-10.85-11.651
									C3691.201,671.727,3685.985,676.585,3685.763,682.798z"/>
								<path style="fill:#60AD0E;" d="M3667.35,663.083c-0.325,9.132,6.814,16.798,15.946,17.124
									c9.132,0.325,16.799-6.814,17.124-15.946c0.325-9.132-6.814-16.798-15.946-17.124S3667.675,653.951,3667.35,663.083z"/>
								
									<ellipse transform="matrix(0.7318 -0.6815 0.6815 0.7318 541.0676 2665.3857)" style="fill:#60AD0E;" cx="3657.234" cy="645.2" rx="21.662" ry="21.662"/>
								
									<ellipse transform="matrix(0.9898 -0.1427 0.1427 0.9898 -57.3601 524.2191)" style="fill:#60AD0E;" cx="3626.82" cy="662.095" rx="17" ry="17"/>
								
									<ellipse transform="matrix(0.8823 -0.4706 0.4706 0.8823 107.0048 1770.2369)" style="fill:#60AD0E;" cx="3593.802" cy="671.119" rx="21.589" ry="21.589"/>
								
									<ellipse transform="matrix(0.163 -0.9866 0.9866 0.163 2312.4463 4076.9648)" style="fill:#60AD0E;" cx="3559.18" cy="675.53" rx="18.507" ry="18.507"/>
								
									<ellipse transform="matrix(0.7318 -0.6815 0.6815 0.7318 474.15 2613.5994)" style="fill:#60AD0E;" cx="3557.984" cy="704.332" rx="17.654" ry="17.654"/>
								
									<ellipse transform="matrix(0.829 -0.5592 0.5592 0.829 204.1679 2120.6174)" style="fill:#60AD0E;" cx="3570.14" cy="726.413" rx="12.224" ry="12.224"/>
								<path style="fill:#60AD0E;" d="M3568.094,738.465l133.552,4.757l1.741-48.867c-4.093-6.79-17.89-27.689-44.187-35.659
									c-30.764-9.324-66.135,2.836-89.365,30.902C3569.254,705.887,3568.674,722.176,3568.094,738.465z"/>
							</g>
						</g>
						<g>
							<g>
								<path style="fill:#60AD0E;" d="M3289.187,719.591c-0.187,5.241,3.91,9.64,9.151,9.827c5.24,0.187,9.64-3.91,9.827-9.151
									c0.187-5.241-3.91-9.64-9.151-9.827C3293.773,710.253,3289.373,714.351,3289.187,719.591z"/>
								
									<ellipse transform="matrix(0.7662 -0.6426 0.6426 0.7662 324.7859 2280.6907)" style="fill:#60AD0E;" cx="3296.526" cy="694.023" rx="19.502" ry="19.502"/>
								<path style="fill:#60AD0E;" d="M3282.475,668.433c-0.221,6.213,4.636,11.43,10.85,11.651
									c6.214,0.221,11.43-4.636,11.651-10.85c0.221-6.214-4.636-11.43-10.85-11.651
									C3287.913,657.362,3282.696,662.22,3282.475,668.433z"/>
								
									<ellipse transform="matrix(0.9564 -0.2922 0.2922 0.9564 -46.5646 986.8168)" style="fill:#60AD0E;" cx="3280.596" cy="649.307" rx="16.545" ry="16.545"/>
								
									<ellipse transform="matrix(0.7318 -0.6815 0.6815 0.7318 442.7069 2386.6973)" style="fill:#60AD0E;" cx="3253.946" cy="630.835" rx="21.662" ry="21.662"/>
								<path style="fill:#60AD0E;" d="M3206.543,647.125c-0.334,9.383,7.001,17.26,16.384,17.594
									c9.383,0.334,17.26-7.001,17.594-16.384c0.334-9.383-7.001-17.26-16.384-17.595
									C3214.754,630.406,3206.877,637.742,3206.543,647.125z"/>
								
									<ellipse transform="matrix(0.7318 -0.6815 0.6815 0.7318 408.0311 2350.4175)" style="fill:#60AD0E;" cx="3190.514" cy="656.754" rx="21.589" ry="21.589"/>
								
									<ellipse transform="matrix(0.9175 -0.3978 0.3978 0.9175 -2.5812 1309.8876)" style="fill:#60AD0E;" cx="3155.892" cy="661.165" rx="18.507" ry="18.507"/>
								
									<ellipse transform="matrix(0.9968 -0.0801 0.0801 0.9968 -45.1203 254.8385)" style="fill:#60AD0E;" cx="3154.695" cy="689.967" rx="17.654" ry="17.654"/>
								
									<ellipse transform="matrix(0.2423 -0.9702 0.9702 0.2423 1708.6846 3611.9978)" style="fill:#60AD0E;" cx="3166.852" cy="712.048" rx="12.224" ry="12.224"/>
								<path style="fill:#60AD0E;" d="M3164.806,724.1l133.552,4.757l1.74-48.867c-4.092-6.79-17.89-27.689-44.187-35.659
									c-30.764-9.324-66.135,2.836-89.365,30.902C3165.966,691.522,3165.386,707.811,3164.806,724.1z"/>
							</g>
						</g>
					</g>
				</g>
				<g>
					<g>
						<g>
							<g>
								<g>
									
										<ellipse transform="matrix(0.7071 -0.7071 0.7071 0.7071 195.5522 1950.2344)" style="fill:#60AD0E;" cx="2451.917" cy="739.065" rx="23.485" ry="23.485"/>
									
										<ellipse transform="matrix(0.9989 -0.0471 0.0471 0.9989 -29.8883 116.1101)" style="fill:#60AD0E;" cx="2447.785" cy="691.994" rx="20.633" ry="20.633"/>
									<path style="fill:#60AD0E;" d="M2437.961,712.435c-0.179,5.017,3.744,9.229,8.761,9.408
										c5.017,0.179,9.229-3.744,9.408-8.761s-3.743-9.229-8.761-9.408C2442.352,703.495,2438.139,707.418,2437.961,712.435z"/>
									
										<ellipse transform="matrix(0.3585 -0.9335 0.9335 0.3585 982.5074 2714.4246)" style="fill:#60AD0E;" cx="2466.277" cy="642.337" rx="17.098" ry="17.098"/>
									
										<ellipse transform="matrix(0.9076 -0.4199 0.4199 0.9076 -51.9767 1101.1515)" style="fill:#60AD0E;" cx="2475.165" cy="668.636" rx="18.246" ry="18.247"/>
									
										<ellipse transform="matrix(0.3955 -0.9185 0.9185 0.3955 939.1538 2666.0034)" style="fill:#60AD0E;" cx="2494.98" cy="619.512" rx="20.585" ry="20.585"/>
									
										<ellipse transform="matrix(0.7318 -0.6815 0.6815 0.7318 275.4174 1887.1465)" style="fill:#60AD0E;" cx="2535.558" cy="593.622" rx="29.82" ry="29.82"/>
								</g>
								<g>
									
										<ellipse transform="matrix(0.9483 -0.3174 0.3174 0.9483 -96.281 907.3934)" style="fill:#60AD0E;" cx="2736.988" cy="749.219" rx="23.485" ry="23.485"/>
									
										<ellipse transform="matrix(0.0938 -0.9956 0.9956 0.0938 1787.6941 3369.0664)" style="fill:#60AD0E;" cx="2744.458" cy="702.562" rx="20.633" ry="20.633"/>
									<path style="fill:#60AD0E;" d="M2752.803,723.649c-0.179,5.017-4.391,8.94-9.408,8.761
										c-5.017-0.179-8.939-4.391-8.761-9.408c0.179-5.017,4.391-8.94,9.408-8.761
										C2749.06,714.42,2752.982,718.632,2752.803,723.649z"/>
									
										<ellipse transform="matrix(0.1591 -0.9873 0.9873 0.1591 1651.8755 3242.8105)" style="fill:#60AD0E;" cx="2729.546" cy="651.714" rx="17.098" ry="17.098"/>
									<path style="fill:#60AD0E;" d="M2737.045,677.964c-0.359,10.071-8.813,17.944-18.884,17.585
										c-10.071-0.359-17.944-8.814-17.585-18.884c0.359-10.071,8.814-17.944,18.885-17.585S2737.404,667.893,2737.045,677.964z"
										/>
									
										<ellipse transform="matrix(0.2522 -0.9677 0.9677 0.2522 1414.3719 3084.0088)" style="fill:#60AD0E;" cx="2702.54" cy="626.906" rx="20.585" ry="20.585"/>
									
										<ellipse transform="matrix(0.4148 -0.9099 0.9099 0.4148 1014.6845 2774.0383)" style="fill:#60AD0E;" cx="2663.906" cy="598.194" rx="29.82" ry="29.82"/>
								</g>
								
									<ellipse transform="matrix(0.9953 -0.0969 0.0969 0.9953 -45.3069 254.2275)" style="fill:#60AD0E;" cx="2595.712" cy="593.743" rx="31.84" ry="31.84"/>
								
									<ellipse transform="matrix(0.0605 -0.9982 0.9982 0.0605 1864.3375 3203.0732)" style="fill:#60AD0E;" cx="2633.718" cy="611.156" rx="22.493" ry="22.493"/>
								<polygon style="fill:#60AD0E;" points="2736.152,772.689 2447.897,762.422 2447.045,712.758 2457.432,676.504 2478,666.553 
									2466.393,639.092 2494.98,619.512 2536.524,591.635 2611.395,600.751 2656.198,611.956 2668.222,609.063 2702.54,626.906 
									2722.929,640.88 2722.917,684.099 2744.376,704.884 								"/>
							</g>
						</g>
						<g>
							<g>
								<g>
									
										<ellipse transform="matrix(0.7461 -0.6658 0.6658 0.7461 94.7271 1633.9822)" style="fill:#60AD0E;" cx="2189.88" cy="692.783" rx="26.651" ry="26.651"/>
								</g>
								<g>
									
										<ellipse transform="matrix(0.0356 -0.9994 0.9994 0.0356 1443.2687 2797.575)" style="fill:#60AD0E;" cx="2171.14" cy="650.987" rx="25.061" ry="23.433"/>
								</g>
								<g>
									
										<ellipse transform="matrix(0.7625 -0.647 0.647 0.7625 96.5542 1530.7046)" style="fill:#60AD0E;" cx="2133.027" cy="633.85" rx="23.433" ry="23.433"/>
								</g>
								<g>
									
										<ellipse transform="matrix(0.9845 -0.1753 0.1753 0.9845 -70.3426 368.4229)" style="fill:#60AD0E;" cx="2050.384" cy="582.404" rx="23.433" ry="23.433"/>
								</g>
								<g>
									
										<ellipse transform="matrix(0.8447 -0.5352 0.5352 0.8447 -15.6314 1177.0813)" style="fill:#60AD0E;" cx="2020.874" cy="615.481" rx="23.433" ry="23.433"/>
								</g>
								<g>
									
										<ellipse transform="matrix(0.7071 -0.7071 0.7071 0.7071 128.3053 1587.6259)" style="fill:#60AD0E;" cx="1980.587" cy="638.935" rx="29.129" ry="29.129"/>
								</g>
								<g>
									
										<ellipse transform="matrix(0.7769 -0.6296 0.6296 0.7769 32.6561 1525.3221)" style="fill:#60AD0E;" cx="2168.804" cy="716.578" rx="35.88" ry="35.88"/>
								</g>
								<g>
									
										<ellipse transform="matrix(0.5926 -0.8055 0.8055 0.5926 234.9277 1831.3511)" style="fill:#60AD0E;" cx="1927.777" cy="683.447" rx="26.651" ry="26.651"/>
								</g>
								<g>
									
										<ellipse transform="matrix(0.1748 -0.9846 0.9846 0.1748 977.231 2448.8708)" style="fill:#60AD0E;" cx="1949.501" cy="641.464" rx="23.433" ry="23.433"/>
								</g>
								<g>
									
										<ellipse transform="matrix(0.7071 -0.7071 0.7071 0.7071 69.181 1584.38)" style="fill:#60AD0E;" cx="1947.106" cy="708.681" rx="35.88" ry="35.88"/>
								</g>
								<g>
									
										<ellipse transform="matrix(0.1865 -0.9825 0.9825 0.1865 1112.7943 2538.6633)" style="fill:#60AD0E;" cx="2089.36" cy="597.375" rx="38.327" ry="38.327"/>
								</g>
								<path style="fill:#60AD0E;" d="M1944.022,744.474l223.505,7.961l3.015-84.641c-2.772-4.595-38.316-61.229-107.911-64.584
									c-71.712-3.458-112.944,52.867-115.594,56.623C1946.032,688.046,1945.027,716.26,1944.022,744.474z"/>
							</g>
						</g>
						<g>
							<g>
								<path style="fill:#60AD0E;" d="M2155.197,733.948c-0.354,9.955,7.428,18.312,17.383,18.667
									c9.955,0.355,18.312-7.428,18.667-17.383s-7.428-18.312-17.383-18.667C2163.909,716.211,2155.552,723.994,2155.197,733.948z
									"/>
								<path style="fill:#60AD0E;" d="M2156.542,707.815c-0.233,6.557,4.893,12.062,11.449,12.295
									c6.557,0.234,12.062-4.893,12.295-11.449c0.233-6.557-4.893-12.061-11.449-12.295
									C2162.28,696.133,2156.776,701.258,2156.542,707.815z"/>
								<path style="fill:#60AD0E;" d="M2164.802,678.588c-0.234,6.557,4.892,12.062,11.449,12.295
									c6.557,0.234,12.062-4.893,12.295-11.449c0.234-6.557-4.892-12.061-11.449-12.295
									C2170.54,666.906,2165.036,672.031,2164.802,678.588z"/>
								
									<ellipse transform="matrix(0.9825 -0.1864 0.1864 0.9825 -86.1747 421.0494)" style="fill:#60AD0E;" cx="2196.191" cy="668.83" rx="11.88" ry="11.88"/>
								
									<ellipse transform="matrix(0.9999 -0.0144 0.0144 0.9999 -9.172 31.975)" style="fill:#60AD0E;" cx="2217.946" cy="653.517" rx="15.501" ry="15.501"/>
								
									<ellipse transform="matrix(0.7071 -0.7071 0.7071 0.7071 209.5273 1770.2545)" style="fill:#60AD0E;" cx="2241.65" cy="632.205" rx="26.023" ry="26.023"/>
								<path style="fill:#60AD0E;" d="M2167.092,693.21c-0.089,2.503,1.868,4.605,4.371,4.694c2.503,0.089,4.604-1.868,4.694-4.371
									c0.089-2.503-1.868-4.605-4.371-4.694C2169.283,688.75,2167.181,690.706,2167.092,693.21z"/>
								
									<ellipse transform="matrix(0.7071 -0.7071 0.7071 0.7071 161.8268 1871.7703)" style="fill:#60AD0E;" cx="2340.34" cy="740.543" rx="18.036" ry="18.036"/>
								<path style="fill:#60AD0E;" d="M2358.883,715.023c-0.234,6.557-5.738,11.683-12.295,11.449
									c-6.557-0.234-11.683-5.738-11.449-12.295c0.233-6.557,5.738-11.683,12.295-11.449
									C2353.99,702.961,2359.116,708.466,2358.883,715.023z"/>
								<path style="fill:#60AD0E;" d="M2352.723,685.282c-0.233,6.557-5.738,11.683-12.295,11.449
									c-6.557-0.234-11.683-5.738-11.449-12.295c0.234-6.557,5.738-11.683,12.295-11.449
									C2347.83,673.221,2352.957,678.725,2352.723,685.282z"/>
								<path style="fill:#60AD0E;" d="M2333.98,673.738c-0.234,6.557-5.738,11.683-12.295,11.449
									c-6.557-0.234-11.683-5.738-11.449-12.295c0.234-6.557,5.738-11.683,12.295-11.449
									C2329.087,661.676,2334.213,667.181,2333.98,673.738z"/>
								<circle style="fill:#60AD0E;" cx="2301.497" cy="656.493" r="15.501"/>
								<path style="fill:#60AD0E;" d="M2349.398,699.703c-0.089,2.503-2.191,4.46-4.694,4.371c-2.503-0.089-4.46-2.191-4.371-4.694
									c0.089-2.503,2.191-4.46,4.694-4.371S2349.487,697.2,2349.398,699.703z"/>
								
									<ellipse transform="matrix(0.7498 -0.6617 0.6617 0.7498 139.5707 1670.9034)" style="fill:#60AD0E;" cx="2278.928" cy="650.922" rx="16.377" ry="16.377"/>
								<polygon style="fill:#60AD0E;" points="2339.698,758.568 2172.58,752.615 2172.069,722.373 2168.786,697.808 
									2188.794,672.499 2226.334,641.914 2248.581,633.454 2282.819,653.166 2307.817,664.74 2323.149,676.115 2339.491,683.483 
									2346.123,708.071 								"/>
							</g>
						</g>
						<g>
							<g>
								<path style="fill:#60AD0E;" d="M2856.786,767.485c-0.187,5.241,3.91,9.64,9.151,9.827c5.241,0.187,9.64-3.91,9.827-9.151
									c0.187-5.241-3.91-9.64-9.151-9.827C2861.372,758.147,2856.972,762.244,2856.786,767.485z"/>
								
									<ellipse transform="matrix(0.9898 -0.1428 0.1428 0.9898 -76.5842 416.5211)" style="fill:#60AD0E;" cx="2864.125" cy="741.917" rx="19.502" ry="19.502"/>
								<path style="fill:#60AD0E;" d="M2850.074,716.327c-0.221,6.213,4.636,11.43,10.85,11.651
									c6.214,0.221,11.43-4.636,11.651-10.85c0.221-6.213-4.636-11.43-10.85-11.651
									C2855.512,705.256,2850.295,710.114,2850.074,716.327z"/>
								
									<ellipse transform="matrix(0.1689 -0.9856 0.9856 0.1689 1679.9728 3386.729)" style="fill:#60AD0E;" cx="2848.195" cy="697.201" rx="16.545" ry="16.545"/>
								
									<ellipse transform="matrix(0.7318 -0.6815 0.6815 0.7318 294.1105 2104.8647)" style="fill:#60AD0E;" cx="2821.544" cy="678.729" rx="21.662" ry="21.662"/>
								
									<ellipse transform="matrix(0.7318 -0.6815 0.6815 0.7318 274.4403 2088.6677)" style="fill:#60AD0E;" cx="2791.131" cy="695.624" rx="17" ry="17"/>
								
									<ellipse transform="matrix(0.3261 -0.9453 0.9453 0.3261 1192.5114 3082.1694)" style="fill:#60AD0E;" cx="2758.113" cy="704.648" rx="21.589" ry="21.589"/>
								
									<ellipse transform="matrix(0.9622 -0.2724 0.2724 0.9622 -90.1534 768.8312)" style="fill:#60AD0E;" cx="2723.491" cy="709.059" rx="18.507" ry="18.507"/>
								
									<ellipse transform="matrix(0.7318 -0.6815 0.6815 0.7318 227.1942 2053.0793)" style="fill:#60AD0E;" cx="2722.294" cy="737.861" rx="17.654" ry="17.654"/>
								<path style="fill:#60AD0E;" d="M2722.234,759.506c-0.24,6.747,5.034,12.411,11.781,12.651
									c6.747,0.24,12.411-5.034,12.651-11.781c0.24-6.747-5.034-12.411-11.781-12.652
									C2728.139,747.485,2722.475,752.759,2722.234,759.506z"/>
								<path style="fill:#60AD0E;" d="M2732.405,771.994l133.552,4.757l1.741-48.867c-4.092-6.79-17.89-27.689-44.187-35.659
									c-30.764-9.324-66.135,2.836-89.365,30.902C2733.565,739.416,2732.985,755.705,2732.405,771.994z"/>
							</g>
						</g>
						<g>
							<g>
								<path style="fill:#60AD0E;" d="M2453.497,753.12c-0.187,5.241,3.91,9.64,9.151,9.827c5.24,0.187,9.64-3.91,9.827-9.151
									c0.187-5.241-3.91-9.64-9.151-9.827C2458.084,743.782,2453.684,747.879,2453.497,753.12z"/>
								
									<ellipse transform="matrix(0.7318 -0.6815 0.6815 0.7318 164.1034 1872.1331)" style="fill:#60AD0E;" cx="2460.837" cy="727.552" rx="19.502" ry="19.502"/>
								<path style="fill:#60AD0E;" d="M2446.786,701.962c-0.221,6.214,4.636,11.43,10.85,11.651
									c6.213,0.221,11.43-4.636,11.651-10.85c0.221-6.214-4.636-11.43-10.85-11.651
									C2452.223,690.891,2447.007,695.749,2446.786,701.962z"/>
								<path style="fill:#60AD0E;" d="M2428.372,682.247c-0.325,9.132,6.814,16.799,15.946,17.124
									c9.132,0.325,16.798-6.814,17.124-15.946c0.325-9.132-6.814-16.798-15.946-17.124
									C2436.364,665.976,2428.697,673.115,2428.372,682.247z"/>
								
									<ellipse transform="matrix(0.1337 -0.991 0.991 0.1337 1436.4404 2972.0425)" style="fill:#60AD0E;" cx="2418.256" cy="664.364" rx="21.662" ry="21.662"/>
								<circle style="fill:#60AD0E;" cx="2387.843" cy="681.259" r="17"/>
								
									<ellipse transform="matrix(0.7318 -0.6815 0.6815 0.7318 161.0747 1789.8971)" style="fill:#60AD0E;" cx="2354.825" cy="690.283" rx="21.589" ry="21.589"/>
								
									<ellipse transform="matrix(0.7071 -0.7071 0.7071 0.7071 188.3488 1844.1021)" style="fill:#60AD0E;" cx="2320.202" cy="694.694" rx="18.507" ry="18.507"/>
								
									<ellipse transform="matrix(0.9987 -0.0503 0.0503 0.9987 -33.4354 117.4807)" style="fill:#60AD0E;" cx="2319.006" cy="723.496" rx="17.654" ry="17.654"/>
								
									<ellipse transform="matrix(0.9345 -0.356 0.356 0.9345 -112.7061 878.6522)" style="fill:#60AD0E;" cx="2331.163" cy="745.576" rx="12.224" ry="12.224"/>
								<path style="fill:#60AD0E;" d="M2329.116,757.629l133.552,4.757l1.74-48.867c-4.092-6.79-17.89-27.689-44.187-35.659
									c-30.764-9.324-66.135,2.836-89.365,30.902C2330.277,725.051,2329.697,741.34,2329.116,757.629z"/>
							</g>
						</g>
					</g>
				</g>
			</g>
			<path style="fill:#60AD0E;" d="M2777.448,731.115c-2.11,20.633,368.619,111.127,828.4,111.127
				c457.512,0,828.4-49.753,828.4-111.127c0-62.359-422.826-195.736-828.4-111.127c-122.01,25.453-186.737,59.044-374.047,85.636
				C2955.743,744.816,2778.899,716.921,2777.448,731.115z"/>
		</g>
	</g>
	
		<ellipse style="clip-path:url(#SVGID_00000124136808735142013550000017911515796467382168_);fill:#83BE29;" cx="3226.118" cy="2746.576" rx="7969.519" ry="2024.041"/>
	<path style="clip-path:url(#SVGID_00000124136808735142013550000017911515796467382168_);fill:#98C630;" d="M-1081.497,2341.458
		c-94.377-344.191,647.588-957.104,1436.331-1207.032c810.895-256.947,1022.456,75.344,2083.873-95.389
		c1006.899-161.963,1792.188-617.936,1867.414-480.611c56.838,103.758-376.349,393.62-286.812,597.265
		c51.232,116.524,210.971,91.377,319.122,183.457c205.456,174.925,29.547,911.634-335.058,1358.541
		c-534.388,655.014-1790.781,411.791-4222.837-4.421C-668.58,2616.409-1024.149,2550.606-1081.497,2341.458z"/>
	<g style="clip-path:url(#SVGID_00000124136808735142013550000017911515796467382168_);">
		<ellipse style="opacity:0.1;fill:#006838;" cx="685.392" cy="1969.403" rx="154.566" ry="25.355"/>
		<g>
			<path style="fill:#63AE20;" d="M661.622,1972.102c0,0-53.505-270.302,157.734-275.166c-0.695,0-173.951,7.643-102.61,271.692
				C665.096,1970.712,661.622,1972.102,661.622,1972.102z"/>
			<path style="fill:#63AE20;" d="M574.83,1763.642c0,0,102.492,58.369,59.411,208.459c0.695-1.39-50.03,0-50.03,0
				S663.425,1844.942,574.83,1763.642z"/>
			<path style="fill:#63AE20;" d="M714.916,1959.605c0,0-10.655-121.37,74.582-176.032c0.463,0.927-89.03,110.797-15.794,183.948
				C699.162,1970.26,714.916,1959.605,714.916,1959.605z"/>
			<path style="fill:#63AE20;" d="M618.954,1967.971c0,0-2.78-108.437-84.079-133.452c1.39,0.695,72.961,61.148,49.335,137.583
				C610.627,1971.565,618.954,1967.971,618.954,1967.971z"/>
			<path style="fill:#63AE20;" d="M769.935,1954.962c0,0,22.699-112.568,105.156-73.656c-0.463,0.926-69.486-25.015-77.362,90.796
				C763.329,1976.714,769.935,1954.962,769.935,1954.962z"/>
		</g>
	</g>
	<g style="clip-path:url(#SVGID_00000124136808735142013550000017911515796467382168_);">
		<ellipse style="opacity:0.1;fill:#006838;" cx="284.379" cy="1032.382" rx="65.852" ry="10.803"/>
		<g>
			<path style="fill:#63AE20;" d="M274.252,1033.532c0,0-22.795-115.161,67.202-117.233c-0.296,0-74.111,3.256-43.717,115.753
				C275.732,1032.94,274.252,1033.532,274.252,1033.532z"/>
			<path style="fill:#63AE20;" d="M237.275,944.719c0,0,43.667,24.868,25.312,88.813c0.296-0.592-21.315,0-21.315,0
				S275.02,979.356,237.275,944.719z"/>
			<path style="fill:#63AE20;" d="M296.957,1028.208c0,0-4.539-51.709,31.775-74.998c0.197,0.395-37.931,47.205-6.729,78.37
				C290.245,1032.747,296.957,1028.208,296.957,1028.208z"/>
			<path style="fill:#63AE20;" d="M256.073,1031.772c0,0-1.184-46.199-35.821-56.857c0.592,0.296,31.085,26.052,21.019,58.617
				C252.526,1033.303,256.073,1031.772,256.073,1031.772z"/>
			<path style="fill:#63AE20;" d="M320.398,1026.23c0,0,9.671-47.959,44.801-31.381c-0.197,0.395-29.604-10.658-32.959,38.683
				C317.584,1035.497,320.398,1026.23,320.398,1026.23z"/>
		</g>
	</g>
	<g style="clip-path:url(#SVGID_00000124136808735142013550000017911515796467382168_);">
		<ellipse style="opacity:0.1;fill:#006838;" cx="2865.098" cy="860.645" rx="65.852" ry="10.803"/>
		<g>
			<path style="fill:#63AE20;" d="M2854.971,861.795c0,0-22.795-115.161,67.202-117.233c-0.296,0-74.111,3.257-43.717,115.753
				C2856.451,861.203,2854.971,861.795,2854.971,861.795z"/>
			<path style="fill:#63AE20;" d="M2817.993,772.982c0,0,43.667,24.868,25.312,88.813c0.296-0.592-21.315,0-21.315,0
				S2855.739,807.619,2817.993,772.982z"/>
			<path style="fill:#63AE20;" d="M2877.676,856.47c0,0-4.539-51.709,31.775-74.998c0.197,0.395-37.931,47.205-6.729,78.37
				C2870.964,861.01,2877.676,856.47,2877.676,856.47z"/>
			<path style="fill:#63AE20;" d="M2836.792,860.035c0,0-1.184-46.199-35.821-56.857c0.592,0.296,31.085,26.052,21.019,58.617
				C2833.245,861.566,2836.792,860.035,2836.792,860.035z"/>
			<path style="fill:#63AE20;" d="M2901.117,854.492c0,0,9.671-47.959,44.801-31.381c-0.197,0.395-29.604-10.658-32.959,38.683
				C2898.302,863.76,2901.117,854.492,2901.117,854.492z"/>
		</g>
	</g>
	<g style="clip-path:url(#SVGID_00000124136808735142013550000017911515796467382168_);">
		<ellipse style="opacity:0.1;fill:#006838;" cx="1839.904" cy="942.68" rx="23.364" ry="3.833"/>
		<g>
			<path style="fill:#63AE20;" d="M1836.311,943.088c0,0-8.088-40.858,23.843-41.593c-0.105,0-26.294,1.155-15.51,41.068
				C1836.836,942.878,1836.311,943.088,1836.311,943.088z"/>
			<path style="fill:#63AE20;" d="M1823.192,911.578c0,0,15.493,8.823,8.98,31.51c0.105-0.21-7.562,0-7.562,0
				S1836.584,923.867,1823.192,911.578z"/>
			<path style="fill:#63AE20;" d="M1844.367,941.199c0,0-1.61-18.346,11.274-26.609c0.07,0.14-13.458,16.748-2.387,27.805
				C1841.986,942.81,1844.367,941.199,1844.367,941.199z"/>
			<path style="fill:#63AE20;" d="M1829.862,942.464c0,0-0.42-16.391-12.709-20.172c0.21,0.105,11.028,9.243,7.457,20.797
				C1828.603,943.007,1829.862,942.464,1829.862,942.464z"/>
			<path style="fill:#63AE20;" d="M1852.684,940.497c0,0,3.431-17.016,15.895-11.134c-0.07,0.14-10.504-3.781-11.694,13.724
				C1851.685,943.785,1852.684,940.497,1852.684,940.497z"/>
		</g>
	</g>
	<g style="clip-path:url(#SVGID_00000124136808735142013550000017911515796467382168_);">
		<path style="opacity:0.1;fill:#006838;" d="M2712.175,2019.09c0,3.089-15.265,5.593-34.095,5.593
			c-18.83,0-34.095-2.504-34.095-5.593c0-3.089,15.265-5.593,34.095-5.593C2696.91,2013.497,2712.175,2016.001,2712.175,2019.09z"/>
		<g>
			<path style="fill:#63AE20;" d="M2672.836,2019.685c0,0-11.802-59.625,34.794-60.698c-0.153,0-38.372,1.686-22.635,59.932
				C2673.603,2019.379,2672.836,2019.685,2672.836,2019.685z"/>
			<path style="fill:#63AE20;" d="M2653.691,1973.702c0,0,22.609,12.875,13.105,45.983c0.153-0.307-11.036,0-11.036,0
				S2673.234,1991.635,2653.691,1973.702z"/>
			<path style="fill:#63AE20;" d="M2684.592,2016.929c0,0-2.35-26.773,16.452-38.831c0.102,0.204-19.639,24.44-3.484,40.577
				C2681.117,2019.279,2684.592,2016.929,2684.592,2016.929z"/>
			<path style="fill:#63AE20;" d="M2663.424,2018.774c0,0-0.613-23.92-18.547-29.438c0.307,0.153,16.094,13.489,10.883,30.349
				C2661.587,2019.567,2663.424,2018.774,2663.424,2018.774z"/>
			<path style="fill:#63AE20;" d="M2696.729,2015.905c0,0,5.007-24.831,23.196-16.247c-0.102,0.204-15.328-5.518-17.065,20.028
				C2695.272,2020.703,2696.729,2015.905,2696.729,2015.905z"/>
		</g>
	</g>
	<g style="clip-path:url(#SVGID_00000124136808735142013550000017911515796467382168_);">
		<ellipse style="opacity:0.1;fill:#006838;" cx="2294.494" cy="1256.217" rx="63.366" ry="10.395"/>
		<g>
			<path style="fill:#63AE20;" d="M2284.749,1257.324c0,0-21.935-110.814,64.665-112.808c-0.285,0-71.313,3.134-42.066,111.384
				C2286.173,1256.754,2284.749,1257.324,2284.749,1257.324z"/>
			<path style="fill:#63AE20;" d="M2249.167,1171.863c0,0,42.018,23.929,24.356,85.46c0.285-0.57-20.51,0-20.51,0
				S2285.488,1205.193,2249.167,1171.863z"/>
			<path style="fill:#63AE20;" d="M2306.597,1252.2c0,0-4.368-49.757,30.576-72.167c0.19,0.38-36.499,45.423-6.475,75.412
				C2300.139,1256.568,2306.597,1252.2,2306.597,1252.2z"/>
			<path style="fill:#63AE20;" d="M2267.257,1255.63c0,0-1.139-44.455-34.469-54.71c0.57,0.285,29.911,25.068,20.226,56.404
				C2263.843,1257.104,2267.257,1255.63,2267.257,1255.63z"/>
			<path style="fill:#63AE20;" d="M2329.153,1250.297c0,0,9.306-46.149,43.11-30.196c-0.19,0.38-28.487-10.255-31.715,37.223
				C2326.445,1259.215,2329.153,1250.297,2329.153,1250.297z"/>
		</g>
	</g>
</g>
</svg>
