<?xml version="1.0" encoding="utf-8"?>
<!-- Generator: Adobe Illustrator 27.5.0, SVG Export Plug-In . SVG Version: 6.00 Build 0)  -->
<svg version="1.1" id="Capa_1" xmlns="http://www.w3.org/2000/svg" xmlns:xlink="http://www.w3.org/1999/xlink" x="0px" y="0px"
	 viewBox="0 0 2122 2122" style="enable-background:new 0 0 2122 2122;" xml:space="preserve">
<g>
	<path style="fill:#F28B54;" d="M747.305,724.926c-4.625,134.5,1.273,270.555,21.691,403.844l371.348,397.871h-257.25
		c38.57,84.27,86.531,162.875,142.301,235.59h690.063L747.305,724.926z"/>
	<path style="fill:#ED6E4D;" d="M883.094,1526.641H650.461v-524.875l118.535,127.004l0,0
		c-20.418-133.289-26.316-269.344-21.691-403.844v-0.004L405.863,359.094V1762.23h619.531
		C969.625,1689.516,921.664,1610.91,883.094,1526.641z"/>
	<g>
		<path style="fill:#6E2521;" d="M459.215,1713.73c0,8.082,0,16.168,0,24.25c0,16.09,24.945,16.09,24.945,0
			c0-8.082,0-16.168,0-24.25C484.16,1697.645,459.215,1697.645,459.215,1713.73z"/>
		<path style="fill:#6E2521;" d="M538.902,1713.73c0,8.082,0,16.168,0,24.25c0,16.09,24.945,16.09,24.945,0
			c0-8.082,0-16.168,0-24.25C563.848,1697.645,538.902,1697.645,538.902,1713.73z"/>
		<path style="fill:#6E2521;" d="M618.586,1713.73c0,8.082,0,16.168,0,24.25c0,16.09,24.941,16.09,24.941,0
			c0-8.082,0-16.168,0-24.25C643.527,1697.645,618.586,1697.645,618.586,1713.73z"/>
		<path style="fill:#6E2521;" d="M698.266,1713.73c0,8.082,0,16.168,0,24.25c0,16.09,24.945,16.09,24.945,0
			c0-8.082,0-16.168,0-24.25C723.211,1697.645,698.266,1697.645,698.266,1713.73z"/>
		<path style="fill:#6E2521;" d="M777.949,1713.73c0,8.082,0,16.168,0,24.25c0,16.09,24.945,16.09,24.945,0
			c0-8.082,0-16.168,0-24.25C802.894,1697.645,777.949,1697.645,777.949,1713.73z"/>
		<path style="fill:#6E2521;" d="M857.633,1713.73c0,8.082,0,16.168,0,24.25c0,16.09,24.945,16.09,24.945,0
			c0-8.082,0-16.168,0-24.25C882.578,1697.645,857.633,1697.645,857.633,1713.73z"/>
		<path style="fill:#6E2521;" d="M937.313,1713.73c0,8.082,0,16.168,0,24.25c0,16.09,24.945,16.09,24.945,0
			c0-8.082,0-16.168,0-24.25C962.258,1697.645,937.313,1697.645,937.313,1713.73z"/>
		<path style="fill:#6E2521;" d="M1016.996,1713.73c0,8.082,0,16.168,0,24.25c0,16.09,24.945,16.09,24.945,0
			c0-8.082,0-16.168,0-24.25C1041.941,1697.645,1016.996,1697.645,1016.996,1713.73z"/>
		<path style="fill:#6E2521;" d="M1096.684,1713.73c0,8.082,0,16.168,0,24.25c0,16.09,24.945,16.09,24.945,0
			c0-8.082,0-16.168,0-24.25C1121.629,1697.645,1096.684,1697.645,1096.684,1713.73z"/>
		<path style="fill:#6E2521;" d="M1176.359,1713.73c0,8.082,0,16.168,0,24.25c0,16.09,24.945,16.09,24.945,0
			c0-8.082,0-16.168,0-24.25C1201.305,1697.645,1176.359,1697.645,1176.359,1713.73z"/>
		<path style="fill:#6E2521;" d="M1256.047,1713.73c0,8.082,0,16.168,0,24.25c0,16.09,24.945,16.09,24.945,0
			c0-8.082,0-16.168,0-24.25C1280.992,1697.645,1256.047,1697.645,1256.047,1713.73z"/>
		<path style="fill:#6E2521;" d="M1335.727,1713.73c0,8.082,0,16.168,0,24.25c0,16.09,24.941,16.09,24.941,0
			c0-8.082,0-16.168,0-24.25C1360.668,1697.645,1335.727,1697.645,1335.727,1713.73z"/>
		<path style="fill:#6E2521;" d="M1415.414,1713.73c0,8.082,0,16.168,0,24.25c0,16.09,24.941,16.09,24.941,0
			c0-8.082,0-16.168,0-24.25C1440.355,1697.645,1415.414,1697.645,1415.414,1713.73z"/>
		<path style="fill:#6E2521;" d="M1520.039,1737.98c0-8.082,0-16.168,0-24.25c0-16.086-24.945-16.086-24.945,0
			c0,8.082,0,16.168,0,24.25C1495.094,1754.07,1520.039,1754.07,1520.039,1737.98z"/>
		<path style="fill:#6E2521;" d="M1599.723,1737.98c0-8.082,0-16.168,0-24.25c0-16.086-24.945-16.086-24.945,0
			c0,8.082,0,16.168,0,24.25C1574.777,1754.07,1599.723,1754.07,1599.723,1737.98z"/>
	</g>
	<path style="fill:#FFFFFF;" d="M978.855,1168.395l304.621,312.672c15.027,15.422,39.703,15.742,55.117,0.723
		c15.422-15.02,15.742-39.699,0.723-55.113l-304.625-312.684c-15.02-15.414-39.695-15.738-55.113-0.715
		C964.16,1128.301,963.836,1152.973,978.855,1168.395z"/>
	
		<ellipse transform="matrix(0.7071 -0.7071 0.7071 0.7071 -676.1359 1428.2808)" style="fill:#FFFFFF;" cx="1386.02" cy="1530.309" rx="42.406" ry="42.406"/>
	<path style="fill:#6E2521;" d="M482.672,1260.672c0-106.656-3.484-213.996,0.691-320.566c1.996-50.914,7.656-100.867,6.082-151.941
		c-1.68-54.559-6.492-108.945-6.773-163.559c-0.082-16.082-25.027-16.09-24.945,0c0.266,51.387,4.211,102.617,6.414,153.938
		c2.195,51.191-2.082,101.273-5.242,152.285c-6.77,109.242-1.172,220.399-1.172,329.844
		C457.727,1276.758,482.672,1276.758,482.672,1260.672z"/>
	<path style="fill:#6E2521;" d="M465.211,1328.016c0,12.473,0,24.945,0,37.418c0,16.09,24.945,16.09,24.945,0
		c0-12.473,0-24.945,0-37.418C490.156,1311.93,465.211,1311.93,465.211,1328.016z"/>
</g>
</svg>
