<?xml version="1.0" encoding="utf-8"?>
<!-- Generator: Adobe Illustrator 27.5.0, SVG Export Plug-In . SVG Version: 6.00 Build 0)  -->
<svg version="1.1" id="圖層_1" xmlns="http://www.w3.org/2000/svg" xmlns:xlink="http://www.w3.org/1999/xlink" x="0px" y="0px"
	 viewBox="0 0 3000 3000" style="enable-background:new 0 0 3000 3000;" xml:space="preserve">
<g>
	<path style="fill:#F6ECDB;" d="M2453.922,2266.427c-66.111,158.425-197.594,221.142-349.137,248.739
		c-107.51,19.565-225.121,21.459-336.646,27.297c-244.793,12.809-532.754,26.289-772.329-19.974
		c-14.188-2.742-28.677-5.626-43.343-8.704c-171.906-36.179-369.482-99.743-414.807-274.744
		c-9.942-38.408-9.766-78.709-2.618-119.823c5.326-30.836,14.595-62.113,26.432-93.392
		c42.564-112.499,118.442-224.856,165.412-315.612c93.517-180.646,202.954-354.001,322.016-521.148
		c93.604-131.393,189.208-270.233,300.485-389.508c187.758-200.991,431.878,113.454,526.65,247.5
		c181.053,256.152,353.259,533.533,500.379,807.376c34.339,63.918,67.476,132.914,85.289,202.6
		C2479.751,2127.64,2482.068,2198.971,2453.922,2266.427"/>
	<path style="fill:#E2D2BA;" d="M2453.922,2266.427c-49.511,120.813-144.919,194.765-268.136,231.761
		c-29.301,9.014-59.218,16.007-89.379,21.447c-30.156,5.505-60.544,9.672-91.005,12.904
		c-182.888,15.673-366.11,22.686-549.696,27.041c-168.226,2.139-337.75-4.506-502.675-40.268
		c-104.552-22.388-211.327-50.875-300.415-112.689c-59.026-41.817-101.797-95.957-120.201-166.698
		c-34.761-138.249,55.795-294.401,121.886-411.431c22.776-39.767,46.112-79.092,67.306-119.649
		c35.257-67.888,72.527-134.749,111.669-200.468c126.501-209.557,267.933-409.588,417.975-603.031
		c29.665-37.162,61.421-73.851,93.709-108.812c116.639-126.065,256.7-54.571,362.848,44.124
		c78.949,72.906,143.231,160.219,204.051,248.25c113.399,163.177,220.993,330.616,321.938,501.761
		c45.997,79.372,90.648,159.517,133.401,240.677C2436.029,1961.941,2513.715,2118.609,2453.922,2266.427 M2453.922,2266.427
		c48.49-116.39,4.643-244.75-48.691-351.544c-55.956-108.547-118.434-213.73-180.577-318.821
		c-61.826-103.635-127.253-210.696-193.446-311.207c-49.535-76.125-102.098-152.965-154.355-227.39
		c-99.271-140.756-329.458-437.675-512.239-265.647c-121.778,126.511-219.895,272.892-322.02,415.364
		c-114.618,161.931-220.253,330.371-311.563,506.551c-21.272,40.71-44.738,80.266-67.521,120.044
		c-64.54,114.304-154.626,269.153-120.813,403.509c46.826,178.736,252.243,237.406,412.511,271.639
		c254.436,54.322,516.781,42.547,774.994,30.123c151.756-9.902,306.689-3.832,454.427-44.764
		C2309.226,2459.219,2403.452,2387.963,2453.922,2266.427"/>
	<path style="fill:#EFE2CE;" d="M2453.922,2266.427c-66.111,158.425-197.594,221.142-349.137,248.739
		c-107.51,19.565-225.121,21.459-336.646,27.297c-244.793,12.809-532.754,26.289-772.329-19.974
		c-14.188-2.742-28.677-5.626-43.343-8.704c-171.906-36.179-369.482-99.743-414.807-274.744
		c-9.942-38.408-9.766-78.709-2.618-119.823c36.886,10.827,85.325,57.603,131.605,88.634
		c197.628,132.472,442.404,179.972,676,196.336c228.182,15.976,461.494,6.033,678.637-65.829
		c167.146-55.302,324.545-150.251,440.422-281.325C2479.751,2127.64,2482.068,2198.971,2453.922,2266.427"/>
	<path style="fill:#152315;" d="M2104.785,2515.166c-107.51,19.565-225.121,21.459-336.646,27.297
		c-244.793,12.809-532.754,26.289-772.329-19.974c-14.188-2.742-28.677-5.626-43.343-8.704c-5.148-18.15-5.537-37.787-5.626-56.859
		c-0.672-157.398,10.544-314.852,33.472-470.569c16.186-109.986,15.426-222.468,46.403-328.721
		c22.132-75.842,33.1-137.302,119.929-160.3c66.166-17.514,135.957-17.426,203.909-19.301
		c164.439-4.582,320.672-22.645,485.572-1.805c128.774,16.276,157.646,144.591,172.949,253.021
		c18.559,131.269,37.664,269.349,56.754,403.184c10.313,72.393,20.928,144.714,31.578,217.053
		C2105.033,2401.34,2119.84,2462.941,2104.785,2515.166"/>
</g>
<g>
	<path style="fill:#161916;" d="M1765.092,1107.938c8.56,11.937,10.404,25.265,4.123,29.769
		c-6.282,4.506-18.313-1.519-26.872-13.455c-8.56-11.937-10.404-25.265-4.122-29.769
		C1744.502,1089.978,1756.533,1096.002,1765.092,1107.938"/>
	<path style="fill:#161916;" d="M1239.681,1275.794c-6.162,13.334-16.846,21.515-23.862,18.272
		c-7.018-3.245-7.712-16.682-1.552-30.016c6.162-13.333,16.846-21.512,23.863-18.269
		C1245.147,1249.024,1245.842,1262.46,1239.681,1275.794"/>
	<path style="fill:#161916;" d="M1654.026,1299.862c-11.526,9.106-24.754,11.57-29.547,5.504
		c-4.792-6.064,0.665-18.363,12.191-27.471c11.524-9.104,24.753-11.57,29.546-5.503
		C1671.008,1278.458,1665.552,1290.757,1654.026,1299.862"/>
	<path style="fill:#161916;" d="M810.192,1878.595c-11.937,8.559-25.266,10.404-29.77,4.122c-4.506-6.283,1.52-18.314,13.456-26.873
		c11.936-8.559,25.265-10.404,29.769-4.122C828.154,1858.004,822.128,1870.035,810.192,1878.595"/>
	<path style="fill:#161916;" d="M1560.311,920.816c-11.936,8.56-25.265,10.404-29.769,4.122c-4.506-6.283,1.52-18.314,13.456-26.873
		c11.936-8.559,25.264-10.404,29.769-4.122C1578.272,900.225,1572.247,912.257,1560.311,920.816"/>
	<path style="fill:#161916;" d="M2166.36,1773.76c8.559,11.937,10.404,25.265,4.122,29.769c-6.281,4.507-18.314-1.52-26.873-13.455
		c-8.56-11.937-10.404-25.265-4.123-29.769C2145.77,1755.799,2157.802,1761.824,2166.36,1773.76"/>
	<path style="fill:#161916;" d="M1491.103,1399.478c5.809,8.101,5.724,18.105-0.189,22.345c-5.913,4.24-15.415,1.109-21.224-6.992
		c-5.808-8.1-5.723-18.104,0.189-22.344C1475.793,1388.248,1485.294,1391.377,1491.103,1399.478"/>
	<path style="fill:#161916;" d="M1340.074,1044.95c5.808,8.101,5.723,18.105-0.19,22.345c-5.912,4.24-15.414,1.109-21.223-6.992
		c-5.808-8.101-5.724-18.104,0.189-22.344C1324.764,1033.72,1334.266,1036.85,1340.074,1044.95"/>
	<path style="fill:#161916;" d="M855.528,2116.478c5.808,8.102,5.723,18.105-0.189,22.344c-5.913,4.241-15.414,1.112-21.224-6.989
		c-5.809-8.101-5.724-18.105,0.189-22.346C840.219,2105.247,849.72,2108.377,855.528,2116.478"/>
	<path style="fill:#161916;" d="M2165.691,2089.881c5.807,8.102,5.723,18.105-0.189,22.344c-5.912,4.241-15.414,1.111-21.223-6.989
		c-5.811-8.102-5.726-18.105,0.188-22.346C2150.381,2078.65,2159.883,2081.78,2165.691,2089.881"/>
	<path style="fill:#161916;" d="M2243.378,2389.428c5.807,8.102,5.722,18.106-0.19,22.344c-5.912,4.242-15.414,1.111-21.225-6.989
		c-5.808-8.1-5.724-18.104,0.19-22.346C2228.067,2378.198,2237.569,2381.327,2243.378,2389.428"/>
	<path style="fill:#161916;" d="M1958.06,1399.478c5.809,8.101,5.724,18.105-0.188,22.345c-5.912,4.24-15.414,1.109-21.224-6.992
		c-5.809-8.1-5.724-18.104,0.188-22.344C1942.751,1388.248,1952.253,1391.377,1958.06,1399.478"/>
	<path style="fill:#161916;" d="M978.741,1493.507c5.809,8.101,5.724,18.106-0.189,22.344c-5.913,4.241-15.414,1.112-21.225-6.989
		c-5.807-8.101-5.723-18.105,0.19-22.346C963.431,1482.277,972.933,1485.406,978.741,1493.507"/>
	<path style="fill:#161916;" d="M2401.361,2155.231c-7.344,12.72-18.724,19.899-25.42,16.034
		c-6.695-3.866-6.168-17.312,1.176-30.031c7.345-12.72,18.725-19.899,25.42-16.033
		C2409.233,2129.066,2408.704,2142.512,2401.361,2155.231"/>
	<path style="fill:#161916;" d="M681.091,2235.676c8.559,11.937,10.404,25.266,4.122,29.771
		c-6.282,4.504-18.314-1.521-26.873-13.458c-8.56-11.937-10.405-25.265-4.122-29.77
		C660.5,2217.715,672.532,2223.74,681.091,2235.676"/>
</g>
<g>
	<path style="fill:#7E897E;" d="M1171.748,1715.447c-3.063,219.734-9.06,466.189-16.745,685.809
		C1158.046,2181.521,1164.083,1935.069,1171.748,1715.447"/>
	<path style="fill:#7E897E;" d="M1070.005,2000.97c0.39,54.175-1.624,108.361-6.091,162.353
		C1063.503,2109.146,1065.556,2054.964,1070.005,2000.97"/>
	<path style="fill:#7E897E;" d="M1348.493,1620.24c-0.37,118.59-3.117,238.459-8.235,356.939
		C1340.609,1858.589,1343.393,1738.721,1348.493,1620.24"/>
	<path style="fill:#7E897E;" d="M1350.322,2094.813c-2.544,149.299-5.516,316.773-8.32,466.066
		C1340.104,2406.049,1342.919,2249.478,1350.322,2094.813"/>
	<path style="fill:#7E897E;" d="M1501.391,1628.68c-4.423,278.496-11.949,590.859-20.994,869.244
		C1484.801,2219.427,1492.364,1907.063,1501.391,1628.68"/>
	<path style="fill:#7E897E;" d="M1618.004,1838.599c3.744,90.597,5.156,182.283,4.148,272.951
		C1618.392,2020.953,1617.018,1929.266,1618.004,1838.599"/>
	<path style="fill:#7E897E;" d="M1780.576,1658.041c3.188,286.451,1.988,578.677-3.606,865.088
		C1777.773,2252.079,1779.135,1929.074,1780.576,1658.041"/>
	<path style="fill:#7E897E;" d="M1907.93,1918.359c6.519,90.526,10.741,182.211,12.518,272.955
		C1913.908,2100.79,1909.722,2009.102,1907.93,1918.359"/>
	<path style="fill:#7E897E;" d="M1948.748,2329.943c5.229,50.221,8.068,100.681,8.443,151.17
		C1951.942,2430.896,1949.144,2380.433,1948.748,2329.943"/>
	<path style="fill:#7E897E;" d="M1634.173,2283.722c-0.38,57.474-3.163,114.929-8.398,172.168
		C1626.136,2398.414,1628.958,2340.961,1634.173,2283.722"/>
</g>
</svg>
